<svg xmlns="http://www.w3.org/2000/svg" viewBox="0 0 1000 1000"><defs><style>.cls-1{fill:#2b2b2b;}.cls-2{fill:#709761;}.cls-3{fill:#deba7c;}.cls-4{fill:#262515;}.cls-5{fill:#1b2419;}.cls-6{fill:#2a2a2a;}.cls-7{fill:#58734f;}.cls-8{fill:#b09665;}.cls-9{fill:#89ac78;}.cls-10{fill:#728f6a;}.cls-11{fill:#585858;}.cls-12{fill:#fefefe;}.cls-13{fill:#964f50;}.cls-14{fill:#855253;}.cls-15{fill:#101010;}.cls-16{fill:#d57373;}.cls-17{fill:#00e7ff;}</style></defs><title>404</title><g id="Capa_2" data-name="Capa 2"><g id="Capa_1-2" data-name="Capa 1"><circle class="cls-1" cx="500" cy="500" r="500"/><path class="cls-2" d="M711,826.67H691.56c-.2-1.41-.75-2.86-.55-4.21,6.34-42.93,12.17-86,23.3-128,4.42-16.65,7.68-34.35,21.2-47.3,4.33-4.15,5.52-9.88,5.09-15.93-.64-8.93-1.07-17.87-1.6-26.81.75-22.62-.25-44.83-7.77-66.71-2.5-7.26-6.81-14.85-5.23-23.53,1.19-6.6-3.41-7.66-8.67-7.31C711.45,495,711,481,702.47,470.16c6-19.72,11.71-39.51,10.66-60.48,7.57-9.35,6-45.12-2.31-53.46a2.7,2.7,0,0,0-1-.4c-2.6.19-3.45,2.19-4.33,4.17-2.22.55-4.79,1.79-4.6,3.93,1.05,12-6.33,22.64-5.1,34.64.63,6.1-1,11.83-2.89,17.8-4.49,14.47-12.3,27.88-14.09,43.21l.13.06c-11.53-1.87-8.6,6.59-9,12.65-18.26,14.21-38.73,23.2-61.74,26.21-12.62-1-25.45-1.08-37,4.31-8.59,4-17.13,4.62-25.92,3.92-10.26-.82-18.93,5.22-28.93,5.9-2.77.19-9.64,1.22-10.64,7.25a1.52,1.52,0,0,1-1.52.21c-2.82-.26-5.63-.56-8.45-.77-16.75-1.21-29.35,9.74-43,16.36-5.12,2.48-15.41,5.11-15.47,15.12l-.16.05c-4.84-1.15-9.22-1.53-9.22,5.47l-4.12.9c-3-3.87-7.48-3.8-10.78-2-11.26,6.35-24.27,5.42-36,7-39.94,5.35-78.77-2.07-115.76-18.24a27.26,27.26,0,0,1-7.84-5.64c-3.5-3.42-4.06-8.41-1.58-11.93,3.46-4.92,6.76-.36,9.78,1.86a13.1,13.1,0,0,0,2.66,1.85c25.07,9.9,51,8.46,76.81,4.76,3.31-.47,6.68-2.68,10.2-1.65,9.89,2.91,19.14-1.24,28.66-2.28,4.06-.44,4.93-3.63,4.77-7.2l3,0c3.51.52,6.2-.62,7.78-3.92a2.89,2.89,0,0,1,1.93-.5c7.74,3.93,14.17,0,20.43-3.71,14.24-8.51,28.24-17.12,45.74-17.68A18.53,18.53,0,0,0,479.8,487.6l4.22-.38c1.19.7,2.36,2,3.58,2,19.73.74,38.46-4.6,57.21-9.7,3.74-1,4.23-4.39,4.17-7.77l.58-.2.37.49c10.65,2.32,18.13-2.71,25.51-9.75,6.55-6.24,12.07-13.19,18-19.81,5.26-5.83,8.58-10.89,7.06-18.61,10.38-26.16,14.23-54.76,29.52-79.09,8-5.83,12.23-17.82,25.93-14.65,3.09.72,1.64-4.34,1-6.93a15.39,15.39,0,0,0,2.2-8.68l6.17-.57c3.49,4.42,5.43.35,7.71-1.44,13.25-10.38,15.89-25.23,13.68-40.12-1.38-9.23-2.29-21.08-14.7-24.81-.75-1.3-1.49-2.61-2.23-3.91,2.81-15.64-11.21-21.69-18.57-31.14-8.25-10.61-24.06-8.05-34.5-16.39-2.63-2.1-6.74-2.21-8.39-6.52-2.27-5.92-7.59-8.05-13.22-6.44-8.89,2.54-17.82,1.23-26.73,1.75l-2-1.83c-2-2.84-4.21-3.07-6.6-.46l-6.48-.41c.51-5.72-1.7-8.42-7.83-8.26-4.77.13-9.47.68-14.28-2.18-7.35-4.38-12.77-1.89-14.4,7l.07.09c-6.93-1.27-14.09.56-21-1.87-4.67-1.64-10-.37-12.54,3.27s.32,8,3.35,11.2l-4,4.49c-12.1,1.64-20.4,13.53-19.9,28.52-.8,5.43-6.06,11.31,1.58,15.91,8.33,5.18,9.71-1.71,10.91-6.92,1-4.54,1.56-8.38,5.48-12.08,7.77-7.34,15.17-15.38,18.12-26.25l-.45-.71c4.31,2,7.48.15,10.45-2.88,1.95-2,4.44-5.38,7.06-3.74,10.25,6.41,22.46,1.94,33,6.61,4,1.78,9.33,3.54,10.86-3.72l4.33.29c3.14,8.46,10.37,3.22,15.61,4.66,11.42,4.3,24.12,5.67,33.62,14.47L611.8,212l2.71,0,.09.25a6.79,6.79,0,0,0,5.33,8.16c9.05,1.27,14.13,6.92,19.6,13.36,14.36,16.89,36.66,29.5,29.17,57.45-.11.41.81,1.09,1.25,1.65-.81,2.17-1.61,4.35-2.42,6.53-5.62-.4-8.31,3.81-11,7.5-5.25,7.29-12.44,5.91-17.53,2-8.48-6.55-18.45-8.23-27.86-9-11.17-.9-12-6.21-11.09-14.68.81-7.75,1-14.95-2.5-22.86-4.85-10.81-7.09-22.88-9.78-34.56-3.68-16-9.12-22.32-21.54-23.53-4.57-8.45-12.26-2.61-18.37-4h-3.15c-1.79-3.84-5.13-4.25-8.91-4.7-8.93-1-16.54,2.09-24.51,5.6-9.44,4.16-16.16,9.1-14.17,20.62-5,11.46-8.89,23.24-6.2,35.89,1.45,6.84,4.12,13.42,6.23,20.12-4.33,6.4-2.41,12.81,0,19.22,0,2.47-.33,5,2.4,6.48l.22-.23a24.2,24.2,0,0,0,19.54,10.23c7,0,9.53,3.25,13.18,7.95,3,3.91,1,11.34,8.27,12.13l-.06,0c.09,5.86-6.8,9.81-4.46,16.29l-2,1.57c-14-.1-21.63,5.82-25.57,19.83L504,373.82a2.94,2.94,0,0,0-4.58-.88c-7.74,5.85-15.19,3.24-23.19.31-3.58-1.3-6.85-6.36-10.49-4-8,5.25-16.61,2.69-24.92,3.78-16.08,2.11-25,10-25.59,22.2l-6.63,7.93c-6.15-.08-10.29,2.21-10.61,9l0-.14c-1.95-.11-3.62.26-4.23,2.46l.21.16c-12.73,3.77-24.13,9.41-30.58,21.94-14,4.55-28.48,5.59-43,6.3-1.46-.93-3.2-2.93-4.32-2.63-11.67,3.13-23.65.7-35.35,2.31-18.57,2.56-37,2-55.69.19-11.49-1.1-23.43-3.27-34.81,1.67l-4.25-.27c-18.56-19.5-25-43.58-26.29-69.59l-.1.09c3.36.2,6.89.81,5.61-4.72-1.13-4.86-1.43-9.94-2.89-14.67s-1.33-11.56-9.55-10.17l-1.59-1.74c-1.48-7.28,4.14-9.12,8.91-11.6,9.14.9,3.55-5.23,4-8.46,3.76-3.61,3.76-9,3.77-13.09,0-15.18,8.75-23,20.65-30,18.17-10.71,38.34-15.47,58-22,16.15-5.37,32.49-7.86,49.48-8.9,16.32-1,32.74-3.39,48.14-10.07,5.29-2.29,9.25-5.43,8-11.1-2.08-9.22,2.11-17.43,3.22-26,1.7-13.22,13.14-17.82,25.07-12,14.47,7.13,29.15,7.88,44.6,2.16,21.75-8,39.72-22.59,59.86-33.39a161.94,161.94,0,0,1,63.14-18.89c28.32-2.35,57-4,85.46-.62l-.15-.12,2.13,2.49c-.1,7.91,7,8.37,11.71,10.29,14,5.74,26.91,13.94,36.51,24.85a130.25,130.25,0,0,1,21.61,34.92c1.28,3,1.06,7.6,6.32,7.26l-.12-.1c.89,8.62,2.58,16.84,10.83,21.79h-.17c1.36,8.06,3.64,16.1,3.82,24.19.22,9.9,4.22,15.45,13.81,17.17l.17.63-.57.33c-.07,4.26-.16,8.52-.2,12.78-.08,7.63,1.32,14.56,8.95,18.46l-.13,0c-.84,9.51.31,18.79,4.94,27.16a34.25,34.25,0,0,1,3.7,12.08c2.88,18.62,1,37.06.29,55.72-1.47,37.39-1.65,74.94.31,112.28a293.87,293.87,0,0,0,3.43,33.28c.53,3.09,1,5.73,4.83,5.82h-.2c-.06,4.26-.32,8.53-.14,12.78.22,5,.19,10.37,7.25,10.9,4.75,1.86,6.87,6,9,10.22,8.2,16.35,16.92,32.46,24.69,49C823.54,681,838.64,719.24,849,759.29c-4.28,1.37-11.48-2.41-12.27,5.17-2.27,22-11.38,41-24.32,58.55-15.24-31.76-29.25-64.14-46.74-95.06-4.37,3-3.44,7.06-4.8,10.18-5.11,0-11.4-.26-10.61,7,1.67,15.25-8.8,24-16.72,34.23C722.6,793.48,712.58,808.08,711,826.67ZM410.6,267.14C397,265,383,259.45,371,271.74c-1.95,2-5.24.75-6.93,2-7.07,5.25-20.49.55-22.2,14.07a127.39,127.39,0,0,1-23.61,11.82c-4.66-.34-8.58.74-13.05,3-12.21,6.06-25.74,7.42-39.32,7.64-8.92-6.77-13.46,2.62-19.52,5.58-20.41,10-29.73,26.24-28.34,49.29.55,9.13,2.92,13.59,12.51,11.95l2.93,3.61c.13,2.77.89,5,4.26,4.95,4.43-.13,6.55-3.91,7.36-6.9,2-7.47,4.59-12.79,13.82-10.46,1.3.33,3.51-.9,4.56-2.07,5-5.58,11.72-8.29,18.52-10.25,6.19-1.78,6.06-4.75,3.75-9.48-1.85-3.77-7.25-8.91-1.45-11.6,4.81-2.24,5.13-9.16,9.8-8.8,10.19.79,17.51-4.81,25.05-9.71,9.54-6.21,19.11-12.58,26.25-21.78l.13.22c10.77,3.24,20.24-4.75,31-3.3,14.7,2,20.15-15.58,33.51-17.16a8.73,8.73,0,0,0,.18-2.05,3.41,3.41,0,0,1-.47-1.28c3.73-.57,8.36.82,10.47-4.28C416.44,264.22,413.7,268,410.6,267.14Z"/><path class="cls-1" d="M185.93,826.67c0-3.63-2.52-5.82-4.84-8.08-30.8-30.06-56.2-64.38-76.75-102-20.45-37.36-32.65-77.91-41.68-119.52-7.4-34.08-8.09-68.6-5.8-102.89A389.46,389.46,0,0,1,74,402.72c10.75-34,24.79-66.15,43.18-96.41a423.83,423.83,0,0,1,40.54-55.46c20.16-23.53,42.09-45.27,66.67-64C246.63,169.9,270,154.48,295,141.69c31.56-16.16,63.93-30.19,98.43-38.87,6.64-1.77,11.93-5.87,17.2-10h51.94c5,8.23,10,3.86,15.07,0h26c0,7.89-6,8.69-11.68,10.14-15.11,3.87-30.92,6.25-44.62,13.78a190.11,190.11,0,0,1-34,14.61c-11.6,3.72-24,4.24-34.83,11.93-15.06,10.69-29.66,21.34-38.17,38.1-4.09,8.07-8.34,15.35-16.42,20.14-13.29,7.89-24,19.59-39.59,24.27-13.07,3.92-26.76,5.65-39.36,10.34-16.4,6.1-32.12,14.16-49,19.22-14.11,4.23-25.44,13-37,21.49-4,3-6,7.46-8,12.32-8.27,20-12.14,40.84-15.62,62-1.69,10.24.63,17.23,7.23,24-2,3.35-2.39,6.85-.28,10.21,7.46,11.89,5.76,27.71,16.53,38.26,1.23,1.2,1.07,4.08,1.14,6.19a21.64,21.64,0,0,0,9.23,17.31c6.2,4.3,10.25,10,14.52,15.7,8.88,11.81,16.24,11.53,23.44-1.71,1.65-3,2.77-5.8,6.7-5.89,4.47-.1,6.32,3,7.6,6.47a36.16,36.16,0,0,1,1.2,6.3c-.15.24-.3.48-.44.72l.42-.74c3.63,4.06,5.68,10.51,13.24,8.55,6-1.57,9.17-4.48,10-11.54.56-4.6,5.15-8.45,12.05-8.12,7.29.35,12.67,4.4,19,6.61-.95,5-2,10.17,6.14,8.92,2.59,9.19,7.55,10.41,14.71,4.41,2.67-2.24,5-5.19,9.15-4.5l.67.4-.68-.4c0-3.92,0-7.85.06-11.78.05-4.88,2.45-9.12,7.12-9.26,12-.36,24.19-2.67,36,1.66.53,12.15-4,20.87-15.78,25.85-5.73,2.42-12.23,3.78-16.78,8.65-4.66.25-9.05,1.28-12.77,4.3-2.38.08-4.83-.06-6.47,2.19h-6.48c-6.94-.54-13.66-.11-19.49,4.33-5.11-2.73-6.86-.77-6.25,4.48-6.87,3.26-12.15,9.45-20.12,10.86-.76.13-1,3-1.54,4.68l-2,1.65c-8.35,7.2-6.4,17.22,4.67,24l-.33.48c-2.66,7-1.12,11.38,7.25,10.52,3.15-.33,5.53.91,8.2,1.88,13,4.75,24.87,12.23,38.79,14.94,25.78,5,51.58,3.9,77.56,2.47,8.8-.49,16.81-3.34,25.25-4.76,20.51-3.46,41-7.39,54.35-25.92,5-2.33,12.29-5.13,12.36,2.75.12,14.61,3.87,29.19,1.24,43.75-5.15,28.55-15.43,55.64-24.89,82.89a266.49,266.49,0,0,1-18.46,40.53c-6.19,11.27-10,23.14-13.54,35.29-7.8-.42-17.51,3.49-23-1.6-15.28-14.06-39.32-19.43-44.69-43.59-.13-.59-.9-1.49-1.36-1.49-11.89,0-4.88-7.26-4.65-11.91l.2.24c9.88-2.3,11.36-11.89,13.2-18.77,2.42-9,9-19.42-.25-28.82.94-6.26-4.1-9.88-6.46-14.68l1-5c-7.52.53-12.35-8-20.28-6.07-7.52-.67-15.72-7-22,2.61-9.31.09-13.65,11.35-23.41,10.41.7-1.12,2.27-2.69,2-3.3-1-1.89-3-1.07-4.46-.45-7.54,3.15-5.72,11.33-8.91,16.83-9.5,1.41-7.71,8.8-7.48,14.88.31,8.53,6.25,14.9,9.52,22.3,5.05,11.42,3.4,14.16-8.57,14.56-21.51.71-42.26,19.86-43.59,41.09-.22,3.42-.77,9,4.94,10.64.26.7.53,1.4.8,2.11L220.86,778l-.16,11.86c-2.7,2.13-2.85,5.06-1.56,7.72,4.66,9.56,3.78,19.27,1.37,29.1Z"/><path class="cls-3" d="M680.75,826.67H469c-.49-4.78-4.82-6-7.94-8-9.34-5.87-18.87-11.44-28.47-16.88-8.26-4.68-14.57-12.78-24.73-14.1,3.72-18.09,11.93-34.57,19.57-51.06,23-49.56,44.16-99.61,52.65-154.07,3.73-.35,6.62-2.43,9.67-4.37,32.33-20.59,67-35.27,104.84-42.32,22.29-4.16,45.3-4.15,66.66-13.92,10.06-4.6,17.63-10.56,22.9-19.9,4-7.16,7.94-14.41,11.9-21.62,1.51,2.32,3.55,4.45,4.45,7,11.48,32.37,20.87,65.32,26.18,99.32,3.78,24.23,7.73,48.5-9.38,70-1.51,1.9-2.17,4.52-3,6.88C695,716.32,689.1,771.75,680.75,826.67Z"/><path class="cls-4" d="M480.08,582.6c-8.49,54.46-29.68,104.51-52.65,154.07-7.64,16.49-15.85,33-19.57,51.06-8.13,11.88-11.52,25.78-16.65,38.94h-8.65c0-6.54,8.4-9.92,6.42-17.19,3.1-4.62,10.86-7.92,4.34-15.27l2.77-6.39c13-2.66,8.82-13.48,10.25-21.63,8.08-3.24,7.26-10.85,8.56-17.42,3.5-12.15,7.35-24,13.54-35.29A266.49,266.49,0,0,0,446.9,673c9.46-27.25,19.74-54.34,24.89-82.89,2.63-14.56-1.12-29.14-1.24-43.75-.07-7.88-7.39-5.08-12.36-2.74l-2.55-3.38a32.75,32.75,0,0,1,12.63-7.45c12.06-4,24-8.41,36-12.66a1.52,1.52,0,0,0,1.52-.21c10.46-2.19,21-4.22,31.38-6.62,23.59-5.42,48.13-6.24,71.07-14.76,23-3,43.48-12,61.74-26.21,4-3.53,7.33-7.5,9-12.65l-.13-.06c21-29.94,26.08-64.16,26.68-99.58.88-2,1.73-4,4.34-4.17,4.26,17.86,3.23,35.81.94,53.79-2.76,8-4.69,16.4-8.47,23.87C696,446,694.2,458,702.47,470.16c8.5,10.8,9,24.85,14.86,36.71,2.93,11.09,5.72,22.23,8.84,33.27,6,21.1,9.13,42.74,12.83,64.28.53,8.94,1,17.88,1.6,26.81.43,6-.76,11.78-5.09,15.93-13.52,13-16.78,30.65-21.2,47.3-11.13,42-17,85.07-23.3,128-.2,1.35.35,2.8.55,4.21H680.75c8.35-54.92,14.23-110.35,33.51-163,.87-2.36,1.53-5,3-6.88,17.11-21.51,13.16-45.78,9.38-70-5.31-34-14.7-66.95-26.18-99.32-.9-2.53-2.94-4.66-4.45-7-4.51-14.37-7.26-15.07-17.67-4.54-6.55,6.63-12.73,14.35-21.27,17.89-30.24,12.54-61.94,19.91-94.33,24.47a503.51,503.51,0,0,0-76.5,17.38c-5.55,1.69-9.73,3.44-9.13,11.69C478,559.12,479.55,570.82,480.08,582.6Z"/><path class="cls-5" d="M414.9,748.77c-1.3,6.57-.48,14.18-8.56,17.42l-.76-.59c.23-2.68,2-6.49-1.74-7.37-18-4.19-31-16.38-44.79-27.41-.55-.55-1.09-1.11-1.64-1.67-6.08-6.07-12-12.33-18.33-18.15-3-2.72-6-7.59-10.83-4.84-4.06,2.29-1.62,7.2-2.06,10.93a34.51,34.51,0,0,0-.17,7.53c.5,4.76-4,15.11,8.27,7.73,1.55-.93,2.58,1.91,3.32,3.5l-3,6.33c-6.46,5.65-14.57,8.39-22.41,12,2.78,4,5.64,2.73,8.86,1.85,7.29-2,9.39,1.41,6.92,7.91-1.75,4.63-4.21,9-6.36,13.47-8.52,3.53-16.43,8.64-26.18,8.95-2.43.08-5.69,1.45-6.81,4.57-.54,1.52.66,3.62,1.71,3.23,8.43-3.15,17.89,1.31,25.4-2.15,5.76-2.64,11-4.89,17.12-4.44,8.5.63,13.65-3.37,16.46-10.91,1.87-5,3.38-10.16,5.06-15.24l4.59,0c.82,8.19-.47,17.28,9.19,21.74-8.21-.6-15.05.47-22.57,6-8.16,6-19.21,9.2-29.46,11-6.93,1.2-10.93,3.73-14.37,9.17s-3.79,11.51-5.6,17.28h-41c-5.1-4.28-11.82-4.83-17.61-7.59-7.21-3.44-10.77-.18-10.48,7.59h-6.48c2.41-9.83,3.29-19.54-1.37-29.1-1.29-2.66-1.14-5.59,1.56-7.72,10.27,20.75,30.15,24.71,50.05,28,7,1.17,10.22-3.78,10.4-10.56,3.82-12.11,2.64-14-9-15-14.24-1.28-26.23-7.63-35.75-17.9-6-6.49-9.39-6.68-12.14,2l-3.4,1.61q3.24-14.64,6.47-29.27c11.82,17.72,25.82,32.14,48.73,34.41,10.68,1.06,16.1-2.43,18.75-13.76,7.17-4,6.49-10.73,4.9-17-1.54-6.08-7.38-6-12.41-6.34a68.79,68.79,0,0,1-28.56-8.91c-3-1.68-7.47-3.74-5.47-7.9s5.87-.7,8.44.4c7,3,10.73,2.09,11.09-6.56.27-6.3,1.92-12.54,2.95-18.81-28.56-4.11-38.71,1.59-45.7,31.52a21.3,21.3,0,0,0-3.51,10.81c-5.71-1.61-5.16-7.22-4.94-10.64,1.33-21.23,22.08-40.38,43.59-41.09,12-.4,13.62-3.14,8.57-14.56-3.27-7.4-9.21-13.77-9.52-22.3-.23-6.08-2-13.47,7.49-14.88-6.91,28.3,12.35,53.17,41.19,54,10.28.29,19.66-1.21,28.23-7-.23,4.65-7.24,11.93,4.65,11.91.46,0,1.23.9,1.36,1.49,5.37,24.16,29.41,29.53,44.69,43.59C397.39,752.26,407.1,748.35,414.9,748.77Zm-97.34-22.43h.1c0-4.3,0-8.59,0-12.89,0-3.54-1-6.06-4.81-7.33-24.07-8-26.9-5.86-30,19.72-.95,7.82-.16,11,8.5,10.87,3.86-.06,8,2.86,11.58,5.16,3.23,2.08,5.38,5.59,10.22,3.06s4.47-6.76,4.4-11.06C317.53,731.36,317.56,728.85,317.56,726.34Zm-12.87,50.41c7.41-2.09,12.35-5.28,14.3-11.5.59-1.87-1.89-2.23-3.83-2.25C306.7,762.92,306.08,769.07,304.69,776.75ZM288.6,814.61c6.89-3.8,10.76-6.94,11.26-12.75,0-.31-2.32-1.28-3.47-1.14C289,801.59,289.84,807.35,288.6,814.61Z"/><path class="cls-6" d="M296.13,826.67c1.81-5.77,2.21-11.94,5.6-17.28s7.44-8,14.37-9.17c10.25-1.77,21.3-4.94,29.46-11,7.52-5.54,14.36-6.61,22.56-6a3.19,3.19,0,0,1,1.52.31c.23,13.28,13.92,16.52,19.34,25.93,2,7.27-6.46,10.65-6.42,17.19Z"/><path class="cls-7" d="M812.36,823c12.94-17.51,22-36.51,24.32-58.55.79-7.58,8-3.8,12.26-5.17,3.37,2,3.77,5.75,5.25,8.88,4.61,9.76,9.32,19.46,14,29.19q.29,14.65.56,29.31H812.56Z"/><path class="cls-3" d="M801.76,826.67H732.61c6.12-10.34,13.48-19.86,23.7-26.12,6.21-3.81,9-8.69,10.94-15.09,2.51-8.06,1.18-16.6,3.08-27.75C782.93,782,793.81,803.64,801.76,826.67Z"/><path class="cls-4" d="M801.76,826.67c-8-23-18.83-44.7-31.43-69-1.9,11.15-.57,19.69-3.08,27.75-2,6.4-4.73,11.28-10.94,15.09-10.22,6.26-17.58,15.78-23.7,26.12h-10.8c6.06-12.62,15.5-22.73,26.53-30.62,6.3-4.5,8.47-9.66,10.59-16.24,4.45-13.83-2.33-28,1.89-41.68,1.36-3.12.43-7.2,4.8-10.18,17.49,30.92,31.5,63.3,46.74,95.06.07,1.22.13,2.44.2,3.66Z"/><path class="cls-8" d="M391.21,826.67c5.13-13.16,8.52-27.06,16.65-38.94,10.16,1.32,16.47,9.42,24.73,14.1,9.6,5.44,19.13,11,28.47,16.88,3.12,2,7.45,3.18,7.94,8Z"/><path class="cls-7" d="M760.82,738.13c-4.22,13.7,2.56,27.85-1.89,41.68-2.12,6.58-4.29,11.74-10.59,16.24-11,7.89-20.47,18-26.53,30.62H711c1.58-18.59,11.6-33.19,22.49-47.33,7.92-10.27,18.39-19,16.72-34.23C749.42,737.87,755.71,738.13,760.82,738.13Z"/><path class="cls-7" d="M227,826.67c-.29-7.77,3.27-11,10.48-7.59,5.79,2.76,12.51,3.31,17.61,7.59Z"/><path class="cls-6" d="M617.62,92.72l17.8-.09c.26,8.27,6.47,5.24,10.84,5.7l0,.1c1.2,4.62-3.56,6-6.51,10.69,7.73-1.68,15.65,1.89,17.28-8.5,30.64,6.61,59.48,18.12,88,30.83,36.37,16.18,68.47,38.93,100.13,62.45,7.75,5.76,14.39,13,21.49,19.62,3.09,2.87,2,6.75,2,10.22q0,271.17,0,542.33c-11.69.72-12.15-8.1-12.68-15.86-.62-9.14-2.12-17.59-8.46-24.75-2.05-2.31-3.28-5.48-4.48-8.42-6.78-16.69-9.68-34.64-18.84-50.67-17-29.76-26.29-63.79-49.56-90.18-1-1.14-.18-3.83-1.14-5.09-5.74-7.51-.42-18.49-8.09-25.29q-.32-6.45-.64-12.89c.73-1.2,2.08-2.38,2.11-3.6,1-34.83.77-69.68,1.8-104.53.63-21.22-1.13-42.72-1.44-64.11a139.1,139.1,0,0,0-1.26-14.95c-1.55-12.68-7.34-23.89-11-35.82-4.5-14.8-7.14-30.48-13.76-44.25-8.5-17.7-13.81-36.55-22.66-54.21-9-17.9-16.45-36.34-31.32-50.09a31.12,31.12,0,0,0-24.14-8.15c-10-3-16.54-13-27.68-13.69a19.37,19.37,0,0,0-2.14-.21l.15.12c-6.33-7.39-16.84-7.85-23.75-14.29-.68-3.1-1.35-6.27-5-2l-3.92-1.33v-8.15c7.26-7.88,13.26-7.27,17.89,2.64a3.9,3.9,0,0,0,.56.92c3,3.41,6.76,5.38,11.43,4.56,2.83-.5,4.24-2.57,4.5-5.34.5-5.2-3.38-6.35-7.13-8C621.25,105.53,616.82,100.78,617.62,92.72Z"/><path class="cls-5" d="M765.35,545.81c7.67,6.8,2.35,17.78,8.09,25.29,1,1.26.13,3.95,1.14,5.09,23.27,26.39,32.55,60.42,49.56,90.18,9.16,16,12.06,34,18.84,50.67,1.2,2.94,2.43,6.11,4.48,8.42,6.34,7.16,7.84,15.61,8.46,24.75.53,7.76,1,16.58,12.68,15.86,0,1.51,0,3,0,4.54-1.66.26-3.36.58-3.62,2.63-.34,2.64,1.51,3.3,3.61,3.61q-.2,10.24-.4,20.5c-4.67-9.72-9.38-19.42-14-29.18-1.48-3.13-1.88-6.88-5.25-8.88-10.3-40-25.4-78.34-42.93-115.7-7.77-16.55-16.49-32.66-24.69-49-2.12-4.24-4.24-8.36-9-10.22-2-8-2.4-16.49-7.11-23.68h.19Z"/><path class="cls-1" d="M657,100.62c-1.63,10.39-9.55,6.82-17.28,8.5,2.95-4.64,7.71-6.07,6.51-10.69C649.87,98.86,653.89,97.49,657,100.62Z"/><path class="cls-6" d="M868.58,776.85c-2.1-.31-4-1-3.61-3.61.26-2,2-2.37,3.62-2.63Q868.58,773.73,868.58,776.85Z"/><path class="cls-9" d="M609.65,125.14c6.91,6.44,17.42,6.9,23.75,14.29-28.5-3.34-57.14-1.73-85.46.62a161.94,161.94,0,0,0-63.14,18.89c-20.14,10.8-38.11,25.35-59.86,33.39-15.45,5.72-30.13,5-44.6-2.16-11.93-5.87-23.37-1.27-25.07,12-1.11,8.61-5.3,16.82-3.22,26,1.29,5.67-2.67,8.81-8,11.1-15.4,6.68-31.82,9.06-48.14,10.07-17,1-33.33,3.53-49.48,8.9-19.64,6.52-39.81,11.28-58,22-11.9,7-20.61,14.84-20.65,30,0,4.06,0,9.48-3.77,13.09-12.49-18.29-14.47-31.51-3.89-40.88,8.72-7.72,18.79-14.81,29.48-19.18,15.81-6.46,32.71-10.26,49.13-15.22A525.79,525.79,0,0,0,321,215.69c6.76-3.36,12.31-7.66,15.95-15.15,15.74-32.41,38.11-57.11,76.49-61.8a29.28,29.28,0,0,0,9.21-2.91,401.08,401.08,0,0,1,58.14-22.94c33.78-10.53,67.45-14.18,100.83,1.84,6.11,2.93,12.74,4.77,19.14,7.1l3.92,1.33Z"/><path class="cls-5" d="M544.74,200.33h3.16c3,4,8.33,3.2,11.92,6l.36,3.08c-2.13,3-5.33,1.87-7.84,1.41-6-1.11-10.37,1.48-14.44,5.13-7.46,6.71-9,15-6.36,24.41,2.91,10.45,12,14.82,20.45,16.8,12.4,2.89,23.88-12.17,23.83-29l5.78,1.46c1.12,4.35,1.95,8.8,3.42,13,2,5.73-1.8,12.91,4.46,17.5-2.86.35-5.51,1-6,4.51-14.55,36.88-56.18,41.16-78.08,18.18-.15-5.94-4.69-4.63-8.23-5-2.11-6.7-4.78-13.28-6.23-20.12-2.69-12.65,1.18-24.43,6.2-35.89,8.26-9,17.6-16.38,29.73-19.5C532.74,200.85,539.12,203.94,544.74,200.33Zm-4.55,92.44c5.06-1.81,9.7-5,10.16-10.36.49-5.64-3.6-9.48-9.42-9.39-5.2.09-8.88,3.33-9,8.78S534.54,291.2,540.19,292.77Z"/><path class="cls-5" d="M600.75,121.83c-6.4-2.33-13-4.17-19.14-7.1-33.38-16-67.05-12.37-100.83-1.84a401.08,401.08,0,0,0-58.14,22.94,29.28,29.28,0,0,1-9.21,2.91c-38.38,4.69-60.75,29.39-76.49,61.8-3.64,7.49-9.19,11.79-15.95,15.15a525.79,525.79,0,0,1-82.2,32.36c-16.42,5-33.32,8.76-49.13,15.22-10.69,4.37-20.76,11.46-29.48,19.18-10.58,9.37-8.6,22.59,3.89,40.88-.5,3.23,5.09,9.36-4,8.46a33.45,33.45,0,0,0-5.54-12.47c-1.19-1.72-2.53-3.5-5-1.33-5.88,5.18-4.89,21.2,1.61,25.4l1.59,1.74c4.17,9.42,7.49,19,6.83,29.56l.11-.09c-4.86.9-6.06-2-6.49-6-.3-2.74-1.89-4.52-4.87-4.53s-4.25,2.17-4.78,4.7a62.35,62.35,0,0,0-.74,6.27l-.16.12c-6.6-6.73-8.92-13.72-7.23-24,3.48-21.2,7.35-42,15.62-62,2-4.86,4-9.36,8-12.32,11.55-8.45,22.88-17.26,37-21.49,16.85-5.06,32.57-13.12,49-19.22,12.6-4.69,26.29-6.42,39.36-10.34,15.63-4.68,26.3-16.38,39.59-24.27,8.08-4.79,12.33-12.07,16.42-20.14,8.51-16.76,23.11-27.41,38.17-38.1,10.84-7.69,23.23-8.21,34.83-11.93a190.11,190.11,0,0,0,34-14.61C461,109.2,476.84,106.82,492,103c5.65-1.45,11.7-2.25,11.68-10.14l43.1,0c3.64,5.5,8.37,8.2,15.06,5.81,11.39,9.14,25.3,11.81,39,15.11ZM142.37,346.23c-2.3-.13-3.62,1.27-3.23,3.13a9.09,9.09,0,0,0,6.83,7.38c2.11.55,3.63-.7,3.19-2.85C148.38,350.14,145.47,348,142.37,346.23Z"/><path class="cls-4" d="M317.54,487.42c4.55-4.87,11-6.23,16.78-8.65,11.83-5,16.31-13.7,15.78-25.85l2.89-.05,10.14,13.06c-.13,7.31,5.12,7.49,9.49,5.77,5.46-2.14,4.14-6.48,1-10.28L373,444.7c3.87-4.67,8.3-9.08,7.28-16,4.44-4.78,11.2-7.31,13.64-14l-.22-.18c2.15.46,3.36-.69,4.23-2.45l0,.13c5-1.3,7.67-5.29,10.61-9l6.63-7.94c5.95-4.41,9.28-11.66,17.25-14,14.38-4.31,29.11-6.69,43.39-2.34,11,3.35,19.89,3.07,28.13-5.06l4.68-2.52c8.68-6.4,17.95-12.06,25.57-19.83l2-1.57c6.84-4,14.27-7.15,19.26-13.73l-.14.09,3.38-2.27.15,0c11.18-7.65,18.86-19.4,30.74-26.22l2.68.43a5.91,5.91,0,0,0,2.74,5l-.87,3.48c-4.31-.24-6.61,1.63-6.44,6.11l-2.57,2.57c-.18.22-.54.48-.51.65a9,9,0,0,0,.58,1.45c.1,2.2.21,4.4.31,6.6-3.38,4-1.64,8.71-1.81,13.16a4.42,4.42,0,0,1-.34,1.9c-3.77.48-5.71,4.93-9.88,4.55,1.88-5,4.41-9.76,3.83-15.33,2.84-.7,4.87-1.67,1.53-4.48-7.39-2.7-8.72,5.68-13.6,7.42-6,2.15-3.55,5.79-2.08,9.38l-5.45.5c-3.34-.59-5.73,1.94-8.67,2.67-6.17-2.21-7.42,2-8.47,6.49-2.12,1.91-4.17,3.9-6.36,5.73C519,378.86,498,385.45,491.85,408c-1.65,6.08-7.72,6.35-13.26,2.19a84.51,84.51,0,0,1-18-18.38c-5.12-7.1-12.19-7.14-19.33-4.85-7.48,2.4-15.31,4.93-15.76,15.14-.27,6.07-1.36,12.11-1.77,18.18-.92,13.47-4.93,16-15.53,8.26-6-4.34-10.07-4-14.64,1.11-2.38,2.67-4.93,5.19-7.4,7.78a3.78,3.78,0,0,0-2.81,4.63c-.37,7.16-.54,14.33-1.15,21.47-1.41,16.38-7.74,19.78-21.53,11.17-4.7-2.93-7.56-2.94-12.21.58-9.14,6.91-19.1,12.77-30.67,15Zm147.07-101c6.2,5.82,9.94,9.52,13.9,13,1.72,1.51,3.39,4.86,6.07,2.87a14.75,14.75,0,0,0,4.55-7.08c1.13-3.55-2.74-3.6-4.63-4.66C479.51,387.72,474.2,385.8,464.61,386.42ZM415,411.57c-3.07,2.74-9,3.31-7.23,8.83.68,2.1,4,4.66,5.82,3.51C418.13,421,415.94,416.11,415,411.57Z"/><path class="cls-5" d="M630.05,344.81c-15.28,24.33-19.13,52.93-29.51,79.1-13.48,19.62-27.68,38.47-50.61,48.16l-.37-.49-.58.2c-10.67,2.66-21.37,5.22-32,8-10.91,2.83-22.39,3.1-33,7.46l-4.22.38c-3.62-.8-7.06,0-10.6.81-25.84,5.87-48.63,18.8-71.76,30.93a2.89,2.89,0,0,0-1.93.5c-3.23,0-6.26.47-7.78,3.92l-3,0-8.59.62,4.2-9c-.2-2.69-1.76-4-4.36-4.16.18-2.88.37-5.76.55-8.64,2.84-.72,3.72-2.83,3.9-5.46.28-4.2,2.58-5.35,6.39-4.2-3.43,19.25-3.43,19.24,14.63,13.72a8.55,8.55,0,0,1,2.1-.11c5.18-.06,11.21,2.12,13.73-5.11l2.35-1a4.89,4.89,0,0,0,1.55-.89l4.5-1.5c3.06.15,6,0,6.61-3.91,4.56-.5,7-5.91,12.08-5.22,13.72,0,18.12-4.28,17.72-17.21.32-1.23.64-2.45,1-3.68a4.14,4.14,0,0,0,3.8-4.13l4-3c1.66,2.59,4.26,2.74,6.95,2.66,7.1,5.18,12.7,13.69,23.53,10.64,2.62,3,3.7,1.25,4.48-1.45l4.24-.57c6.54,2.56,8.65-.53,8.44-6.6.09-2.88.19-5.76.28-8.64l-.09-6.22a1.15,1.15,0,0,1,1.32-.51c2.78.39,5.77.27,7.61,3C525,469.51,525,469.52,541.14,464c4.07-1.4,8.06-3.05,12.17-4.32,3.53-1.08,4.29-3.35,3.53-6.58l7-.13.15.14c.62,1.05,1.33,1.3,2.2.26,18.63-17.8,30.52-39.18,34.38-64.81l.29-7.94c3.35-3.11,2.5-7.62,3.81-11.41.28-3.84,1.48-7.78-1.24-11.3.13-9.85-4.41-18.4-7.61-27.33.62-2.62,1.63-4.88,4.77-5.18,5.79,8,9.45,17.05,11.42,28.52,5.14-5.23,7.38-10,11.84-12.48C625.13,344,627.39,344.78,630.05,344.81ZM482,476.1c-10-9.68-10.37-9.61-14.88,2.56A28.15,28.15,0,0,0,482,476.1Z"/><path class="cls-5" d="M353,452.87l-2.89.05c-11.8-4.33-24-2-36-1.66-4.67.14-7.07,4.38-7.12,9.26-.05,3.93,0,7.86-.06,11.78h0c-4.13-.69-6.48,2.26-9.15,4.5-7.16,6-12.12,4.78-14.71-4.41l1.95-2c8.73,3.6,10.28,2.1,13.28-14.67-6.77,5.3-15.81-2-20.74,7.13l-.62.58c-6.3-2.21-11.68-6.26-19-6.61-6.9-.33-11.49,3.52-12.05,8.12-.86,7.06-4,10-10,11.54-7.56,2-9.61-4.49-13.24-8.55l0,0a36.16,36.16,0,0,0-1.2-6.3c-1.28-3.47-3.13-6.57-7.6-6.47-3.93.09-5,2.87-6.7,5.89-7.2,13.24-14.56,13.52-23.44,1.71-4.27-5.66-8.32-11.4-14.52-15.7A21.64,21.64,0,0,1,160,429.81c-.07-2.11.09-5-1.14-6.19-10.77-10.55-9.07-26.37-16.53-38.26-2.11-3.36-1.7-6.86.28-10.21l.16-.12c4.05.75,4.38,4.37,5.33,7.28,6.09,18.65,14.67,36.19,23.59,53.6,3.12,6.09,7,9.72,14.24,8.28l4.25.26c43.48,6.67,86.88,7.52,130.17-1.53,14.54-.71,29-1.75,43-6.3,6.88,0,11.44-5,16.95-7.9,1,6.9-3.41,11.31-7.28,16C366.94,448.88,358,446.11,353,452.87ZM231.51,458c-2.64,0-6.3-.88-5,3.16,1.28,3.89,3.42,8.71,7.72,9.32,4.77.69,4.65-4.84,5-7.72C240.24,455.87,234.18,459.16,231.51,458Z"/><path class="cls-5" d="M663.07,153.21a31.12,31.12,0,0,1,24.14,8.15c14.87,13.75,22.34,32.19,31.32,50.09,8.85,17.66,14.16,36.51,22.66,54.21,6.62,13.77,9.26,29.45,13.76,44.25,3.63,11.93,9.42,23.14,11,35.82a139.1,139.1,0,0,1,1.26,14.95c.31,21.39,2.07,42.89,1.44,64.11-1,34.85-.82,69.7-1.8,104.53,0,1.22-1.38,2.4-2.11,3.6-4.36-35.28-4.1-70.67-2.7-106.1,1.52-38.26,6.76-77-14.09-112.48l.12,0q-4.37-15.61-8.74-31.24l.57-.33-.17-.63c-4.4-14.42-8.73-28.86-17.63-41.36h.17c-2.41-7.85-3-16.6-10.83-21.79l.11.1c-3.15-13.2-9.21-25-16.56-36.39C686.79,170.1,673.56,163.2,663.07,153.21Z"/><path class="cls-5" d="M318.3,299.65a127.7,127.7,0,0,0,23.6-11.84c4-1.41,8.05-2.86,12.09-4.21,17.86-6,35.33-13.43,54.47-14.67l1.35,2.07a3.52,3.52,0,0,0,.47,1.29c-22.07,6.07-44.65,10.68-64.73,22.5l-.13-.21c-13.63,3.6-25.71,11-36.61,19.07C296.37,322.9,283,325,268.7,325.34c-11.33.29-18.47,5.09-22.85,17,7.56-4,14.61-7.93,21.77-11.6,5-2.55,7.62-1.13,9.25,4.57,3.62,12.63-.31,22-16.28,24.41-14.37,2.18-23.21,7.22-27.09,20.93l-2.93-3.61c-4.43-31.27,15.38-50.76,33.08-58.53C284.71,320.47,302.26,312.23,318.3,299.65Zm-48.21,47c0-3.86.05-4.94,0-6-.1-1.93-1-4.16-2.9-3.75-7.39,1.56-11.69,7.68-16.92,12.38-1,.94-1.52,2.85.13,3.6,4.72,2.15,9-.87,13.54-1.55C268.14,350.65,270.12,348,270.09,346.61Z"/><path class="cls-2" d="M376.13,524.42l8.59-.63c.16,3.57-.71,6.76-4.77,7.2-9.52,1-18.77,5.19-28.66,2.28-3.52-1-6.89,1.18-10.2,1.65-25.86,3.7-51.74,5.14-76.81-4.76a13.1,13.1,0,0,1-2.66-1.85c-3-2.22-6.32-6.78-9.78-1.86-2.48,3.52-1.92,8.51,1.58,11.93a27.26,27.26,0,0,0,7.84,5.64c37,16.17,75.82,23.59,115.76,18.24,11.74-1.58,24.75-.65,36-7,3.3-1.85,7.77-1.92,10.78,2-1.79,1.11-3.46,2.87-5.39,3.25-40.62,7.93-81.33,12.9-122.27,2.13-17-4.47-33.67-10-49.36-18.16l.32-.49c-2.72-7.78-5.12-15.63-4.66-24l2-1.65c4.6-1.26,8.67-4,13.88,0,24,18.14,51,19.14,79.15,13.09l3.92-.39c2.89.23,5.72.26,7.78-2.3l.51.6c4.8,1.53,9.17-.46,13.63-1.68l6.23-1.39C371.88,526.17,374.28,526.32,376.13,524.42Z"/><path class="cls-2" d="M589.65,307.79c-11.88,6.82-19.56,18.57-30.74,26.21.88-6.54.57-12.64-4.4-17.92a7.38,7.38,0,0,1-1.35-8.09c.89-2,2.75-2.19,4.48-1.16,12.38,7.41,16.32-2.41,21.21-10.32,1,2.79-1.27,7.26,3,8.2,3.39.74,5.45-2.71,7.75-4.9,3.71-3.53,2.33-7.91,2.29-12.09,4.27-9.62,4-18.86-2.37-27.57-6.27-4.59-2.48-11.77-4.47-17.5-1.47-4.23-2.3-8.68-3.42-13-.67-11.22-11.65-15.76-16-24.63l.61-.66c12.42,1.21,17.86,7.53,21.54,23.53,2.69,11.68,4.93,23.75,9.78,34.56,3.54,7.91,3.31,15.11,2.5,22.86-.88,8.47-.08,13.78,11.09,14.68,9.41.76,19.38,2.44,27.86,9,5.09,3.93,12.28,5.31,17.53-2,2.66-3.69,5.35-7.9,11-7.5.19,6.68-9,8.15-8.38,15.08a15.39,15.39,0,0,1-2.2,8.68c-5.59-3.18-9.93-8.78-17.11-8.9l-19.36-6.47c-4.78-3.11-10.1-2.25-15.32-2.09l-8.72.06A7.61,7.61,0,0,0,589.65,307.79Z"/><path class="cls-5" d="M246.79,544.43c15.69,8.12,32.33,13.69,49.36,18.16,40.94,10.77,81.65,5.8,122.27-2.13,1.93-.38,3.6-2.14,5.39-3.25l4.12-.9c3.9-.43,7.79-.87,9.22-5.47l.16-.06c7.39-1.31,11.29-8.68,18.33-10.59l2.55,3.38c-13.39,18.52-33.84,22.45-54.35,25.91-8.44,1.42-16.45,4.27-25.25,4.76-26,1.43-51.78,2.56-77.56-2.47-13.92-2.71-25.78-10.19-38.79-14.94-2.67-1-5.05-2.21-8.2-1.88C245.67,555.81,244.13,551.44,246.79,544.43Z"/><path class="cls-5" d="M659.15,314.55c-.62-6.93,8.57-8.4,8.38-15.08.81-2.18,1.61-4.36,2.42-6.53a36.85,36.85,0,0,0,.86-30.19c-10.5-25.35-29.23-42.81-56.21-50.43l-.1-.24c-.4-.64-.79-1.29-1.18-1.93-9.5-8.8-22.2-10.17-33.63-14.47,5.63-8.68,13.19-3.86,18.82-1.32,26.7,12,53.36,24.48,71.27,49.34.74,1.3,1.48,2.61,2.23,3.91,12.91,23.65,12.84,46-6.69,66.37Z"/><path class="cls-1" d="M578.85,296.51c-4.89,7.91-8.83,17.73-21.21,10.32-1.73-1-3.59-.82-4.48,1.16a7.38,7.38,0,0,0,1.35,8.09c5,5.28,5.28,11.38,4.4,17.92h-.15c-1.85-.33-3.14.19-3.38,2.27l.14-.09-14.8-2.56.06,0c-.66-11-4.76-20-15.91-23.68-8.19-2.71-16.71-4.46-25.08-6.63l-.23.23a6.71,6.71,0,0,0-2.39-6.48c-2.4-6.41-4.32-12.82,0-19.22,3.54.35,8.08-1,8.23,5-4.1-1.88-6.41-.77-5.74,3.93,1.07,7.44,4.77,12.05,12.88,13.55,12.18,2.26,25.23,3.41,31.09,17.61,1.68,4.07,1.35,13.33,6.87,10.91,7.9-3.48-1.65-8.39-2.58-12.9s-2.25-8.43,1.35-12c2.56-2.54,5.63-5.16,9.47-2.8,9.15,5.61,12-.54,14.72-7.43,1.77-4.58,2.42-10.24,9-10.56,3.72-.18,6.93-1.41,6.3-5.42-.73-4.61,2.8-11.35-5.29-13.08.48-3.51,3.13-4.16,6-4.51,6.42,8.71,6.65,18,2.38,27.58C587,289.84,578.66,286.87,578.85,296.51Z"/><path class="cls-2" d="M233.5,380.67c3.88-13.71,12.72-18.75,27.09-20.93,16-2.42,19.9-11.78,16.28-24.41-1.63-5.7-4.29-7.12-9.25-4.57-7.16,3.67-14.21,7.56-21.77,11.6,4.38-11.93,11.52-16.73,22.85-17,14.3-.38,27.67-2.44,40.11-11.69,10.9-8.1,23-15.47,36.61-19.07-7.14,9.19-16.71,15.56-26.25,21.77-7.54,4.9-14.86,10.5-25.05,9.71-4.67-.36-5,6.56-9.8,8.8-5.8,2.69-.4,7.83,1.45,11.6,2.31,4.73,2.44,7.7-3.75,9.48-6.8,2-13.49,4.67-18.52,10.25-1.05,1.17-3.26,2.4-4.56,2.07-9.23-2.33-11.81,3-13.82,10.46-.81,3-2.93,6.77-7.36,6.9C234.39,385.71,233.63,383.44,233.5,380.67Z"/><path class="cls-2" d="M747.92,314.34c20.85,35.47,15.61,74.22,14.09,112.48-1.4,35.43-1.66,70.82,2.7,106.1q.31,6.45.64,12.89l.06,14.87c-3.86-.09-4.29-2.73-4.82-5.82a293.87,293.87,0,0,1-3.43-33.28c-2-37.34-1.78-74.89-.31-112.28.74-18.66,2.59-37.1-.29-55.72a34.25,34.25,0,0,0-3.7-12.08C748.23,333.13,747.08,323.85,747.92,314.34Z"/><path class="cls-9" d="M263.65,318.53c-17.7,7.77-37.51,27.26-33.08,58.53-9.59,1.64-12-2.82-12.51-11.95-1.39-23.05,7.93-39.32,28.34-49.29,6.06-3,10.6-12.35,19.52-5.58C265.17,313,264.41,315.77,263.65,318.53Z"/><path class="cls-2" d="M669.78,243.7c-17.91-24.86-44.57-37.29-71.27-49.34-5.63-2.54-13.19-7.36-18.82,1.32-5.23-1.44-12.46,3.8-15.6-4.66,3.37-.64,4.38-3,4.28-6.06,8.91-.52,17.84.79,26.73-1.75,5.63-1.61,10.95.52,13.22,6.44,1.65,4.31,5.76,4.42,8.39,6.52,10.44,8.34,26.25,5.78,34.5,16.39C658.57,222,672.59,228.06,669.78,243.7Z"/><path class="cls-2" d="M185.92,444.19c-7.2,1.44-11.12-2.19-14.24-8.28-8.92-17.41-17.5-35-23.59-53.6-1-2.91-1.28-6.53-5.33-7.28a62.35,62.35,0,0,1,.74-6.27c.53-2.53,1.68-4.71,4.78-4.7s4.57,1.79,4.87,4.53c.43,4,1.63,6.91,6.49,6C160.94,400.61,167.36,424.69,185.92,444.19Z"/><path class="cls-2" d="M663.07,153.21c10.49,10,23.72,16.89,31.89,29.52,7.35,11.37,13.41,23.19,16.56,36.39-5.25.34-5-4.26-6.31-7.26a130.25,130.25,0,0,0-21.61-34.92c-9.6-10.91-22.49-19.11-36.51-24.85-4.7-1.92-11.81-2.38-11.71-10.3,0-.75,0-1.51,0-2.27C646.53,140.21,653.09,150.17,663.07,153.21Z"/><path class="cls-2" d="M320.34,442.92c-43.29,9.05-86.69,8.2-130.17,1.53,11.38-4.93,23.32-2.76,34.81-1.66,18.65,1.79,37.12,2.37,55.69-.19,11.7-1.61,23.68.82,35.35-2.31C317.14,440,318.88,442,320.34,442.92Z"/><path class="cls-2" d="M559.76,190.73c-1.53,7.26-6.85,5.5-10.86,3.72-10.55-4.67-22.76-.2-33-6.61-2.62-1.64-5.11,1.75-7.06,3.74-3,3-6.14,4.92-10.44,2.89-.42-4.83,10.69-4.82,5.55-10.19-4.27-4.47-8.7,2.2-13,4.08-1.59.7-2.87,2.07-4.3,3.14-3-3.22-5.79-7.66-3.35-11.2s7.87-4.91,12.54-3.27c6.91,2.43,14.07.6,21,1.87-3.2,6.09,1.9,5.38,5,5.89C534.49,186.86,547.13,188.76,559.76,190.73Z"/><path class="cls-5" d="M486.66,191.5c1.43-1.07,2.71-2.44,4.3-3.14,4.28-1.88,8.71-8.55,13-4.08,5.14,5.37-6,5.36-5.55,10.19l.44.71c-4.49-.21-6.69,2.89-9.56,5.75-11.35,11.32-18.7,25-24.95,39.49-7.64-4.6-2.38-10.48-1.58-15.92q9.94-14.25,19.9-28.51Z"/><path class="cls-2" d="M614.6,212.32c27,7.62,45.71,25.08,56.21,50.43a36.85,36.85,0,0,1-.86,30.19c-.44-.56-1.36-1.24-1.25-1.65,7.49-28-14.81-40.56-29.17-57.45-5.47-6.44-10.55-12.09-19.6-13.36A6.79,6.79,0,0,1,614.6,212.32Z"/><path class="cls-2" d="M705.51,360c-.6,35.42-5.66,69.64-26.68,99.58,1.79-15.33,9.6-28.74,14.09-43.21,1.86-6,3.52-11.7,2.89-17.8-1.23-12,6.15-22.65,5.1-34.64C700.72,361.78,703.29,360.54,705.51,360Z"/><path class="cls-2" d="M397.44,519.34c23.13-12.13,45.92-25.06,71.76-30.93,3.54-.81,7-1.61,10.6-.81A18.53,18.53,0,0,1,463.61,498c-17.5.56-31.5,9.17-45.74,17.68C411.61,519.37,405.18,523.27,397.44,519.34Z"/><path class="cls-10" d="M504,373.82c-8.24,8.13-17.11,8.41-28.13,5.06-14.28-4.35-29-2-43.39,2.34-8,2.38-11.3,9.63-17.25,14,.63-12.22,9.51-20.08,25.59-22.19,8.31-1.09,16.94,1.47,24.92-3.78,3.64-2.4,6.91,2.66,10.49,4,8,2.93,15.45,5.54,23.19-.31A2.94,2.94,0,0,1,504,373.82Z"/><path class="cls-2" d="M739,604.42c-3.7-21.54-6.86-43.18-12.83-64.28-3.12-11-5.91-22.18-8.84-33.27,5.26-.35,9.86.71,8.67,7.31-1.58,8.68,2.73,16.27,5.23,23.53C738.75,559.59,739.75,581.8,739,604.42Z"/><path class="cls-7" d="M702.47,470.16C694.2,458,696,446,702.32,433.48c3.78-7.47,5.71-15.88,8.47-23.87l2.34.07C714.18,430.65,708.5,450.44,702.47,470.16Z"/><path class="cls-2" d="M608.19,498.49c-22.94,8.52-47.48,9.34-71.07,14.76-10.41,2.4-20.92,4.43-31.38,6.62,1-6,7.87-7.06,10.64-7.25,10-.68,18.67-6.72,28.93-5.9,8.79.7,17.33.1,25.92-3.92C582.74,497.41,595.57,497.45,608.19,498.49Z"/><path class="cls-4" d="M639.84,314.33c7.18.12,11.52,5.72,17.11,8.9.68,2.59,2.13,7.65-1,6.93-13.7-3.17-17.91,8.82-25.93,14.65-2.67,0-4.93-.78-6.2-3.35.65-6.29,5.89-9.68,9.86-13,7.56-6.35,3.38-7.75-2.68-9.38Z"/><path class="cls-2" d="M408.46,268.93c-19.14,1.24-36.61,8.68-54.47,14.67-4,1.35-8.06,2.8-12.09,4.21,1.71-13.51,15.13-8.81,22.2-14.06,1.69-1.26,5,0,6.93-2,12-12.29,26-6.78,39.57-4.6Z"/><path class="cls-2" d="M345.55,294.79c20.08-11.82,42.66-16.43,64.73-22.5a8.69,8.69,0,0,1-.18,2c-13.36,1.58-18.81,19.13-33.51,17.16C365.79,290,356.32,298,345.55,294.79Z"/><path class="cls-2" d="M665.32,314c19.53-20.38,19.6-42.72,6.69-66.37,12.41,3.73,13.32,15.58,14.7,24.81,2.21,14.89-.43,29.74-13.68,40.12C670.75,314.33,668.81,318.4,665.32,314Z"/><path class="cls-2" d="M484,487.22c10.56-4.36,22-4.63,33-7.46,10.64-2.76,21.34-5.32,32-8,.06,3.38-.43,6.75-4.17,7.77-18.75,5.1-37.48,10.44-57.21,9.7C486.38,489.2,485.21,487.92,484,487.22Z"/><path class="cls-4" d="M559.76,190.73c-12.63-2-25.27-3.87-37.89-5.94-3.12-.51-8.22.2-5-5.89l-.08-.09q18.27,1.71,36.52,3.45l6.48.41,6.6.46,2,1.83c.1,3.1-.91,5.42-4.28,6.06Z"/><path class="cls-2" d="M544.74,200.33c-5.62,3.61-12,.52-17.86,2-12.13,3.12-21.47,10.48-29.73,19.5-2-11.52,4.73-16.46,14.17-20.62,8-3.51,15.58-6.64,24.51-5.6C539.61,196.08,543,196.49,544.74,200.33Z"/><path class="cls-2" d="M464.32,240.42c6.25-14.47,13.6-28.17,24.95-39.49,2.87-2.86,5.07-6,9.56-5.75-2.95,10.86-10.35,18.9-18.12,26.24-3.92,3.7-4.44,7.54-5.48,12.08C474,238.71,472.65,245.6,464.32,240.42Z"/><path class="cls-2" d="M263.65,318.53c.76-2.76,1.52-5.53,2.27-8.29,13.58-.22,27.11-1.58,39.32-7.64,4.47-2.22,8.39-3.3,13.05-3C302.26,312.23,284.71,320.47,263.65,318.53Z"/><path class="cls-2" d="M549.93,472.07c22.93-9.69,37.13-28.54,50.61-48.16,1.52,7.71-1.8,12.77-7.06,18.6-6,6.62-11.49,13.57-18,19.81C568.06,469.36,560.58,474.39,549.93,472.07Z"/><path class="cls-2" d="M455.64,540.19c-7,1.91-10.94,9.28-18.33,10.59.06-10,10.35-12.63,15.47-15.11,13.64-6.62,26.24-17.57,43-16.36,2.82.21,5.63.51,8.45.77-12,4.25-23.89,8.66-36,12.66A32.75,32.75,0,0,0,455.64,540.19Z"/><path class="cls-2" d="M553.29,182.26q-18.25-1.72-36.52-3.45c1.64-8.88,7.06-11.37,14.41-7,4.81,2.86,9.51,2.31,14.28,2.18C551.59,173.84,553.8,176.54,553.29,182.26Z"/><path class="cls-2" d="M713.13,409.68l-2.34-.07c2.29-18,3.32-35.93-.94-53.79a2.72,2.72,0,0,1,1,.4C719.16,364.56,720.7,400.33,713.13,409.68Z"/><path class="cls-2" d="M722.07,240.82c8.9,12.5,13.23,26.94,17.63,41.36-9.59-1.72-13.59-7.27-13.81-17.17C725.71,256.92,723.43,248.88,722.07,240.82Z"/><path class="cls-2" d="M151.11,343.39c-6.5-4.2-7.49-20.22-1.61-25.4,2.45-2.17,3.79-.39,5,1.33A33.45,33.45,0,0,1,160,331.79C155.25,334.27,149.63,336.11,151.11,343.39Z"/><path class="cls-2" d="M499.79,303.33c8.37,2.17,16.89,3.92,25.08,6.63,11.15,3.7,15.25,12.66,15.91,23.68-7.29-.79-5.22-8.22-8.27-12.13-3.65-4.7-6.17-7.91-13.18-7.95A24.2,24.2,0,0,1,499.79,303.33Z"/><path class="cls-2" d="M380.31,428.72c-5.51,2.92-10.07,7.9-16.95,7.9,6.45-12.53,17.85-18.17,30.58-21.94C391.51,421.41,384.75,423.94,380.31,428.72Z"/><path class="cls-2" d="M482.64,196q-10,14.25-19.9,28.51C462.24,209.52,470.54,197.63,482.64,196Z"/><path class="cls-2" d="M534.25,351.47c-7.62,7.77-16.89,13.43-25.57,19.83C512.62,357.29,520.26,351.37,534.25,351.47Z"/><path class="cls-10" d="M159.53,374.69c.66-10.53-2.66-20.14-6.83-29.56,8.22-1.39,8.1,5.46,9.55,10.17s1.76,9.81,2.89,14.67C166.42,375.5,162.89,374.89,159.53,374.69Z"/><path class="cls-2" d="M540.72,333.61l14.8,2.56c-5,6.58-12.42,9.74-19.26,13.73C533.92,343.42,540.81,339.47,540.72,333.61Z"/><path class="cls-2" d="M739.3,283.14q4.38,15.63,8.74,31.24c-7.62-3.9-9-10.83-8.94-18.46C739.14,291.66,739.23,287.4,739.3,283.14Z"/><path class="cls-2" d="M765.22,560.68c4.71,7.19,5.15,15.66,7.11,23.68-7.06-.53-7-5.92-7.25-10.9C764.9,569.21,765.16,564.94,765.22,560.68Z"/><path class="cls-2" d="M711.41,219c7.8,5.19,8.42,13.94,10.83,21.79C714,235.86,712.3,227.64,711.41,219Z"/><path class="cls-10" d="M559.82,206.29c-3.59-2.76-9-2-11.92-6,6.1,1.39,13.79-4.45,18.36,4l-.61.65C563.56,204.72,561.41,204.27,559.82,206.29Z"/><path class="cls-2" d="M679,459.63c-1.7,5.15-5.05,9.12-9,12.65C670.36,466.22,667.43,457.76,679,459.63Z"/><path class="cls-1" d="M408.46,268.93l2.14-1.79c3.1.81,5.84-2.92,9.68-.42-2.11,5.1-6.74,3.71-10.47,4.28Z"/><path class="cls-2" d="M408.6,403.2c-2.94,3.7-5.63,7.69-10.61,9C398.31,405.41,402.45,403.12,408.6,403.2Z"/><path class="cls-2" d="M437.15,550.84c-1.43,4.6-5.32,5-9.22,5.47C427.93,549.31,432.31,549.69,437.15,550.84Z"/><path class="cls-2" d="M387.73,523.76c1.52-3.45,4.55-3.88,7.78-3.92C393.93,523.14,391.24,524.28,387.73,523.76Z"/><path class="cls-10" d="M566.37,183.13l-6.6-.46C562.16,180.06,564.36,180.29,566.37,183.13Z"/><path class="cls-10" d="M497.17,297.08a6.71,6.71,0,0,1,2.39,6.48C496.84,302.11,497.13,299.55,497.17,297.08Z"/><path class="cls-10" d="M398,412.06c-.87,1.76-2.08,2.91-4.23,2.45C394.34,412.32,396,412,398,412.06Z"/><path class="cls-10" d="M613.32,210.15c.39.64.78,1.29,1.18,1.93l-2.7,0Z"/><path class="cls-9" d="M635.39,139.52c0,.76,0,1.52,0,2.27l-2.13-2.48A19.37,19.37,0,0,1,635.39,139.52Z"/><path class="cls-11" d="M341.15,690.18c-8.57,5.75-17.95,7.25-28.23,7-28.84-.83-48.1-25.7-41.19-54,3.18-5.5,1.36-13.68,8.9-16.83,1.48-.62,3.48-1.44,4.46.45.31.61-1.26,2.18-2,3.3l.08-.09c-2.36,1.46-2.39,4-2.81,6.28-2.19,8,4.53,9.92,9.23,11.84C306,654.76,323,655.46,340,650.83c9.62-2.62,11.05-9.23,4.38-17.18-1.23-1.47-4.23-2.77-2.54-4.89.88-1.11,4-.46,6-.61,2.37,4.8,7.41,8.42,6.47,14.68-1.56,14.86-2.81,29.77-12.2,42.42-.92,1.23-.53,3.42-.75,5.17Z"/><path class="cls-7" d="M226.54,746.61a21.3,21.3,0,0,1,3.51-10.81c4.49-.22,7.34,2.61,10,5.57,14.69,16.33,32.06,27.37,54.77,28-2.65,11.33-8.07,14.82-18.75,13.76-22.91-2.27-36.91-16.69-48.73-34.41C227.07,748,226.8,747.31,226.54,746.61Z"/><path class="cls-11" d="M283.13,630.06c9.76.94,14.1-10.32,23.41-10.42l22.22,2.12,8.42,6.08c-3,.36-6.23-1.17-9.07,1.22,1.11,3.86,4.32,2.83,6.91,3.17,3,2.64,8.92,3.39,7.74,8.78s-7,3.56-10.79,4.88a10.23,10.23,0,0,1-3.08.83c-16.05.08-32.78,3.15-45.83-10.2l.15-6.55Z"/><path class="cls-7" d="M220.86,778l3.4-1.61c9.44,11.79,19.43,22.49,35.75,24.67,7.23,1,14.86,1.67,21.14,6.28-.18,6.78-3.38,11.73-10.4,10.56-19.9-3.33-39.78-7.29-50.05-28Q220.78,783.91,220.86,778Z"/><path class="cls-5" d="M337.45,531.3c-28.11,6.05-55.16,5.05-79.15-13.09-5.21-3.94-9.28-1.21-13.88,0,.5-1.63.78-4.55,1.54-4.68,8-1.41,13.25-7.6,20.12-10.86l.24.23c-3,7.2-3.57,13.21,7.34,14.17-.21-3.53-.39-6.67-.57-9.81,1.1.82,3,1.47,3.19,2.48,3.79,17.88,16.24,20.86,31.71,18.58,4.18-.62,9.79,2.52,11.88-4.17L324,524c4.11-.19,8.33.47,12.16-1.7C336.56,525.32,337,528.31,337.45,531.3Z"/><path class="cls-6" d="M337.18,627.84l-8.42-6.08-.21-4.72c7.93-1.88,12.76,6.6,20.28,6.07l-1,5c-2.09.15-5.17-.5-6,.61-1.69,2.12,1.31,3.42,2.54,4.89,6.67,8,5.24,14.56-4.38,17.18-17,4.63-34,3.93-50.32-2.74-4.7-1.92-11.42-3.84-9.22-11.83l2.65.26c13.05,13.35,29.78,10.28,45.83,10.2a10.23,10.23,0,0,0,3.08-.83c3.79-1.32,9.61.54,10.79-4.88s-4.76-6.14-7.74-8.78Z"/><path class="cls-6" d="M319.87,524.21c-2.09,6.68-7.7,3.54-11.88,4.16-15.47,2.28-27.92-.7-31.71-18.58-.21-1-2.09-1.66-3.19-2.48-.44-1.93-.87-3.85-1.31-5.78.18-1.1.37-2.19.55-3.29,5.83-4.44,12.55-4.87,19.49-4.33,0,1.26.05,2.52.08,3.78-3,3.46-11.63.32-10.63,8.05,1.07,8.27,1.38,17.24,14.2,17.25,7,0,14.17,1.17,21.31.92Z"/><path class="cls-5" d="M341.35,690.42c.22-1.75-.17-3.94.75-5.17,9.39-12.65,10.64-27.56,12.2-42.42,9.23,9.4,2.67,19.77.25,28.82C352.71,678.53,351.23,688.12,341.35,690.42Z"/><path class="cls-5" d="M242.45,519.91c-.46,8.4,1.94,16.25,4.66,24C236.05,537.13,234.1,527.11,242.45,519.91Z"/><path class="cls-5" d="M328.55,617l.21,4.72-22.22-2.12C312.83,610,321,616.37,328.55,617Z"/><path class="cls-6" d="M317.54,487.42c.08.95.17,1.89.26,2.83a20.84,20.84,0,0,1-12.49,4.17l-.54-2.7C308.49,488.7,312.88,487.67,317.54,487.42Z"/><path class="cls-5" d="M283.08,472.39c-8.18,1.25-7.09-3.88-6.14-8.92l.63-.58,7.46,7.54Z"/><path class="cls-5" d="M272.33,498.24c-.18,1.1-.37,2.19-.54,3.29L266.32,503l-.24-.23C265.47,497.47,267.22,495.51,272.33,498.24Z"/><path class="cls-4" d="M291.9,497.69c0-1.26,0-2.52-.08-3.78h6.47c-.69,1.15-1.38,2.3-2.08,3.45Z"/><path class="cls-4" d="M304.77,491.72c.18.9.36,1.8.53,2.69l-.35-.19-6.66-.31h0C299.94,491.66,302.39,491.8,304.77,491.72Z"/><path class="cls-5" d="M306.93,472.3l.68.4-.67-.4Z"/><path class="cls-5" d="M222.66,468l-.42.74c.14-.24.29-.48.44-.72Z"/><path class="cls-8" d="M480.08,582.6c-.53-11.78-2.08-23.48-2.93-35.24-.6-8.25,3.58-10,9.13-11.69a503.51,503.51,0,0,1,76.5-17.38c32.39-4.56,64.09-11.93,94.33-24.47,8.54-3.54,14.72-11.26,21.27-17.89,10.41-10.53,13.16-9.83,17.67,4.54-4,7.21-7.86,14.46-11.9,21.62-5.27,9.34-12.84,15.3-22.9,19.9-21.36,9.77-44.37,9.76-66.66,13.92-37.81,7.05-72.51,21.73-104.84,42.32C486.7,580.17,483.81,582.25,480.08,582.6Z"/><path class="cls-7" d="M369.64,783.55a3.19,3.19,0,0,0-1.52-.31c-9.65-4.46-8.36-13.55-9.18-21.74,4.65-2.31,7.83.42,11,3.21C377.67,771.54,385,779,395.6,781.5c.16,2.11.33,4.21.49,6.32l-2.77,6.39c-2.68,4-3.86,10.5-10.07,1.77C380,791.36,374.19,787.74,369.64,783.55Z"/><path class="cls-5" d="M369.64,783.55c4.55,4.19,10.33,7.81,13.61,12.43,6.21,8.73,7.39,2.28,10.07-1.77,6.52,7.35-1.24,10.65-4.34,15.27C383.56,800.07,369.87,796.83,369.64,783.55Z"/><path class="cls-5" d="M396.09,787.82c-.16-2.11-.33-4.21-.49-6.32,1.74-.83,2.13-2.39,2.26-4.1,4.59-2.61,4.76-8.12,7.72-11.81l.76.6C404.91,774.34,409.11,785.16,396.09,787.82Z"/><path class="cls-2" d="M294.81,769.37c-22.71-.63-40.08-11.67-54.77-28-2.65-3-5.5-5.79-10-5.57,7-29.93,17.14-35.63,45.7-31.52-1,6.27-2.68,12.51-2.95,18.81-.36,8.65-4.05,9.55-11.09,6.56-2.57-1.1-6.44-4.56-8.44-.4s2.45,6.22,5.47,7.9a68.79,68.79,0,0,0,28.56,8.91c5,.37,10.87.26,12.41,6.34C301.3,758.64,302,765.33,294.81,769.37Z"/><path class="cls-2" d="M397.86,777.4c-.13,1.71-.52,3.27-2.26,4.1-10.61-2.47-17.93-10-25.68-16.79-3.15-2.79-6.33-5.52-11-3.21l-4.59,0c-7.26-5-12.54,3.74-19.21,2.78.93-4.82-5.51-11.21-.33-13.93,7.95-4.17,2.07-5.56-.23-8.13l3-6.33c.66-.23,1.9-.44,1.9-.68.29-11.79,6.08-10.74,13.72-6.11,1,.62,2.77.09,4.18.09l1.64,1.68c-.24,2.67.82,4.77,2.54,6.79,7.22,8.44,18,13.43,23.05,24.09,1.15,2.41,4,5,8,2.2,4.47-3.19,5.68.48,5.9,3.93C398.71,771,398.1,774.21,397.86,777.4Z"/><path class="cls-11" d="M317.56,726.34c0,2.51,0,5,0,7.53.07,4.3.58,8.46-4.4,11.06s-7-1-10.22-3.06c-3.56-2.3-7.72-5.22-11.58-5.16-8.66.12-9.45-3.05-8.5-10.87,3.09-25.58,5.92-27.72,30-19.72,3.8,1.27,4.84,3.79,4.81,7.33,0,4.3,0,8.59,0,12.89Z"/><path class="cls-7" d="M335.14,764.24c6.67,1,11.95-7.76,19.21-2.78-1.68,5.08-3.19,10.23-5.06,15.24-2.81,7.54-8,11.54-16.46,10.91-6.11-.45-11.36,1.8-17.12,4.44-7.51,3.46-17-1-25.4,2.15-1.05.39-2.25-1.71-1.71-3.23,1.12-3.12,4.38-4.49,6.81-4.57,9.75-.31,17.66-5.42,26.18-8.95C328.4,775.39,332.82,770.89,335.14,764.24Z"/><path class="cls-10" d="M281.15,807.33c-6.28-4.61-13.91-5.31-21.14-6.28-16.32-2.18-26.31-12.88-35.75-24.67,2.75-8.67,6.14-8.48,12.14-2,9.52,10.27,21.51,16.62,35.75,17.9C283.79,793.34,285,795.22,281.15,807.33Z"/><path class="cls-2" d="M357.41,729.15c-1.41,0-3.15.53-4.18-.09-7.64-4.63-13.43-5.68-13.72,6.11,0,.24-1.24.45-1.9.68-.74-1.59-1.77-4.43-3.32-3.5-12.28,7.38-7.77-3-8.27-7.73a34.51,34.51,0,0,1,.17-7.53c.44-3.73-2-8.64,2.06-10.93,4.86-2.75,7.87,2.12,10.83,4.84C345.41,716.82,351.33,723.08,357.41,729.15Z"/><path class="cls-2" d="M397.86,777.4c.24-3.19.85-6.4.65-9.56-.22-3.45-1.43-7.12-5.9-3.93-4,2.85-6.82.21-8-2.2-5.09-10.66-15.83-15.65-23.05-24.09-1.72-2-2.78-4.12-2.54-6.79,13.76,11,26.75,23.21,44.79,27.4,3.76.88,2,4.69,1.74,7.37C402.62,769.28,402.45,774.79,397.86,777.4Z"/><path class="cls-2" d="M335.14,764.24c-2.32,6.65-6.74,11.15-13.55,13.21,2.15-4.48,4.61-8.84,6.36-13.47,2.47-6.5.37-9.91-6.92-7.91-3.22.88-6.08,2.12-8.86-1.85,7.84-3.65,15.95-6.39,22.41-12,2.3,2.57,8.18,4,.23,8.13C329.63,753,336.07,759.42,335.14,764.24Z"/><path class="cls-9" d="M304.69,776.75c1.39-7.68,2-13.83,10.47-13.75,1.94,0,4.42.38,3.83,2.25C317,771.47,312.1,774.66,304.69,776.75Z"/><path class="cls-9" d="M288.6,814.61c1.24-7.26.41-13,7.79-13.89,1.15-.14,3.49.83,3.47,1.14C299.36,807.67,295.49,810.81,288.6,814.61Z"/><path class="cls-1" d="M600.75,113.68c-13.66-3.3-27.57-6-39-15.12,4.18,0,7.93-.67,8.77-5.76l47.06-.08c-.8,8.06,3.63,12.81,10.38,15.76,3.75,1.63,7.63,2.78,7.13,8-.26,2.77-1.67,4.84-4.5,5.34-4.67.82-8.38-1.15-11.43-4.56a3.9,3.9,0,0,1-.56-.92C614,106.41,608,105.8,600.75,113.68Z"/><path class="cls-6" d="M570.56,92.8c-.84,5.09-4.59,5.76-8.77,5.76-6.69,2.4-11.42-.3-15.06-5.8Z"/><path class="cls-5" d="M609.65,125.14l-5-2C608.3,118.87,609,122,609.65,125.14Z"/><path class="cls-12" d="M575.82,228.16c0,16.79-11.43,31.85-23.83,29-8.49-2-17.54-6.35-20.45-16.8-2.63-9.46-1.1-17.7,6.36-24.41,4.07-3.65,8.46-6.24,14.44-5.13,2.51.46,5.71,1.61,7.84-1.41C566.24,214.93,572.73,220.13,575.82,228.16Z"/><path class="cls-9" d="M583.49,264.66c8.09,1.73,4.56,8.47,5.29,13.08.63,4-2.58,5.24-6.3,5.42-6.59.32-7.24,6-9,10.56-2.68,6.89-5.57,13-14.72,7.43-3.84-2.36-6.91.26-9.47,2.8-3.6,3.56-2.26,7.56-1.35,12s10.48,9.42,2.58,12.9c-5.52,2.42-5.19-6.84-6.87-10.91-5.86-14.2-18.91-15.35-31.09-17.61-8.11-1.5-11.81-6.11-12.88-13.55-.67-4.7,1.64-5.81,5.74-3.93C527.31,305.82,568.94,301.54,583.49,264.66Z"/><path class="cls-12" d="M540.19,292.77c-5.65-1.57-8.48-5.46-8.31-11s3.85-8.69,9-8.78c5.82-.09,9.91,3.75,9.42,9.39C549.89,287.78,545.25,291,540.19,292.77Z"/><path class="cls-11" d="M575.82,228.16c-3.09-8-9.58-13.23-15.64-18.79l-.36-3.08c1.59-2,3.74-1.57,5.83-1.31,4.3,8.88,15.28,13.42,16,24.64Z"/><path class="cls-11" d="M142.37,346.23c3.1,1.77,6,3.91,6.79,7.66.44,2.15-1.08,3.4-3.19,2.85a9.09,9.09,0,0,1-6.83-7.38C138.75,347.5,140.07,346.1,142.37,346.23Z"/><path class="cls-13" d="M383.36,442a3.76,3.76,0,0,1,2.82-4.62c6.87,1.75,11.7-6.26,19.42-3.18,19,7.6,22.19,5,22.46-15.63.06-5.13-2-10.72,2.38-15.36,11.73-12.42,23.35-12.17,35.16.78,4.24,4.67,6.81,11.06,13.67,13.1,2,.59,4.35,1.8,3.53,4.51-.7,2.28-3,3-5.22,3-6.06,0-12.11.69-18.14-1.19-4.52-1.41-9.38-2.08-11.81,3.82a4.66,4.66,0,0,1,0,1.86c-2.82.11-5.94-.18-6.43,3.77a4.1,4.1,0,0,0,3.2,4.79c3.57,1,4.13,4.42,6,6.84,3.08,4,5.55,9.55,12.36,8l0,0c-2.15,8.54-10.37,14.23-11,23.57-.08,1.21-3,3.48-3.86,3.18-13.71-4.49-16.81,6.73-22.16,14.64-7,.88-12.1-1.55-16.5-7.46-3-4.06-6.36-10-12.24-9.52-13.56,1.06-11-6.8-9.36-14.87C389.2,454.83,391.81,447.19,383.36,442Z"/><path class="cls-14" d="M447.64,427.28c2.42-5.9,7.28-5.23,11.8-3.82,6,1.88,12.08,1.17,18.14,1.19,2.23,0,4.52-.74,5.22-3,.82-2.71-1.57-3.92-3.53-4.51-6.86-2-9.43-8.43-13.67-13.1-11.81-12.95-23.43-13.2-35.16-.78-4.38,4.64-2.32,10.23-2.38,15.36-.27,20.6-3.44,23.23-22.46,15.63-7.72-3.08-12.55,4.93-19.42,3.18,2.46-2.6,5-5.12,7.39-7.79,4.57-5.13,8.68-5.45,14.64-1.11,10.6,7.72,14.61,5.21,15.53-8.26.41-6.07,1.5-12.11,1.77-18.18.45-10.21,8.28-12.74,15.76-15.14,7.14-2.29,14.21-2.25,19.33,4.85a84.51,84.51,0,0,0,18,18.38c5.54,4.16,11.61,3.89,13.26-2.19,6.12-22.52,27.17-29.11,42.42-41.88,2.19-1.83,4.24-3.82,6.36-5.73a14.51,14.51,0,0,0,8.47-6.49c2.94-.73,5.33-3.26,8.67-2.67,2.64,6.6,4.75,14.83,13.3,14.66,8.07-.16,9-8.86,12.11-14.58a5.81,5.81,0,0,0,.24-2.12,4.27,4.27,0,0,0,.33-1.9c2.9-4.07,1.75-8.7,1.82-13.16-.1-2.2-.21-4.4-.31-6.6a3.22,3.22,0,0,0-.07-2.1l2.57-2.56c2.72,2.55,4.21,6.36,8,7.74,3.21,8.93,7.75,17.48,7.62,27.33-.42,3.86-1.17,7.75,1.24,11.3-1.31,3.79-.46,8.3-3.81,11.41-18.68-6.63-37.08-2.84-55.46,1.49-2.34-4.47-6.07-11.24-10.49-8.26-9.59,6.47-26.67,6.23-25.07,24.46.38,4.37-4.08,4.13-6.57,5.83-2.86,2-6.46,4.13-5.68,8.34.93,5.1,5.61,3.1,8.8,3.86-6.86,10.94-16.93,15-29.61,15.44C466.6,432.17,457.31,429,447.64,427.28Z"/><path class="cls-14" d="M383.36,442c8.45,5.16,5.84,12.8,4.34,20.05C386,470.15,383.5,478,397.06,477c5.88-.46,9.22,5.46,12.24,9.52,4.4,5.91,9.48,8.34,16.5,7.46l1.25,1.32-1.38,2.83-4.49,1.5a1.12,1.12,0,0,0-1.56.89l-2.35,1c-8.89-2.81-11.09-12.7-18.66-17.29-8.86-5.37-16.52-3.92-19.86,5.86-1.37,4-1.53,8.39-2.23,12.6-.18,2.88-.37,5.76-.55,8.63-.2,1.29-.41,2.57-.62,3.85l-3.52,1.19a3.63,3.63,0,0,0-4.28,1.59l-13.1,2.38-10.61-.59v.07c-.2-2.35-.22-4.75-2.18-6.51,0-1.74,0-3.5-.12-5.24-.36-4,1.47-9.13-3.93-10.8-4.7-1.46-7.79,1.9-10.37,5.43-1,1.41-2.07,2.8-3.11,4.19-2.37.53-3.75,1.88-3.65,4.44-.37,1.17-.73,2.35-1.1,3.52-2.16,1.15-4.15,2.37-2.27,5.26l-.33,3.88c-7.14.25-14.29-.92-21.31-.92-12.82,0-13.13-9-14.2-17.25-1-7.73,7.6-4.59,10.63-8.05l4.31-.32c3.62.9,6.57,0,8.74-3.15l.35.19a20.77,20.77,0,0,0,12.5-4.16c11.57-2.23,21.53-8.09,30.67-15,4.65-3.52,7.51-3.51,12.21-.58,13.79,8.61,20.12,5.21,21.53-11.17C382.82,456.36,383,449.19,383.36,442Z"/><path class="cls-14" d="M631,319.07c6.06,1.63,10.24,3,2.68,9.38-4,3.33-9.21,6.72-9.86,13-4.47,2.46-6.71,7.23-11.85,12.46-2-11.47-5.63-20.51-11.42-28.52l-6.39-8.68.87-3.49A72.9,72.9,0,0,1,631,319.07Z"/><path class="cls-12" d="M353,452.87c5-6.76,13.95-4,20-8.17l.6,16.72c-1,7.28-4.1,9.76-10.5,4.51Z"/><path class="cls-12" d="M563.22,350.7c-1.47-3.59-3.94-7.23,2.08-9.38,4.88-1.74,6.21-10.12,13.6-7.42-2.49.82-1.78,2.73-1.53,4.48.58,5.57-2,10.37-3.83,15.33C567.82,360.55,567.6,348.47,563.22,350.7Z"/><path class="cls-15" d="M631,319.07a72.9,72.9,0,0,0-36-5.84,5.88,5.88,0,0,1-2.74-5l4.11-2.39,8.72-.06c4.66,4,10.14,1.94,15.32,2.09l19.36,6.47Z"/><path class="cls-3" d="M464.61,386.42c9.59-.62,14.9,1.3,19.89,4.09,1.89,1.06,5.76,1.11,4.63,4.66a14.75,14.75,0,0,1-4.55,7.08c-2.68,2-4.35-1.36-6.07-2.87C474.55,395.94,470.81,392.24,464.61,386.42Z"/><path class="cls-6" d="M563.22,350.7c4.38-2.23,4.6,9.85,10.32,3,4.17.38,6.11-4.07,9.88-4.55a5.81,5.81,0,0,1-.24,2.12c-3.1,5.72-4,14.42-12.11,14.58-8.55.17-10.66-8.06-13.3-14.66Z"/><path class="cls-3" d="M415,411.57c.92,4.54,3.11,9.39-1.41,12.34-1.78,1.15-5.14-1.41-5.82-3.51C406,414.88,412,414.31,415,411.57Z"/><path class="cls-6" d="M594.2,316.72l6.39,8.68c-3.14.3-4.15,2.56-4.77,5.18-3.85-1.38-5.34-5.19-8.06-7.74C587.59,318.35,589.89,316.48,594.2,316.72Z"/><path class="cls-5" d="M363.13,465.93c6.4,5.25,9.48,2.77,10.5-4.51,3.13,3.8,4.45,8.14-1,10.28C368.25,473.42,363,473.24,363.13,465.93Z"/><path class="cls-6" d="M549.1,353.87a14.51,14.51,0,0,1-8.47,6.49C541.68,355.88,542.93,351.66,549.1,353.87Z"/><path class="cls-6" d="M585.57,334.1c-.07,4.46,1.08,9.09-1.82,13.16C583.93,342.81,582.19,338.11,585.57,334.1Z"/><path class="cls-6" d="M577.37,338.38c-.25-1.75-1-3.66,1.53-4.48C582.24,336.71,580.21,337.68,577.37,338.38Z"/><path class="cls-6" d="M596.44,305.83l-4.11,2.39-2.68-.43A7.61,7.61,0,0,1,596.44,305.83Z"/><path class="cls-6" d="M585.19,325.4a3.22,3.22,0,0,1,.07,2.1,9,9,0,0,1-.58-1.45C584.65,325.88,585,325.62,585.19,325.4Z"/><path class="cls-10" d="M555.38,336.26c.24-2.08,1.53-2.6,3.38-2.27Z"/><path class="cls-16" d="M520,450.27a1.15,1.15,0,0,0-1.32.51c-12.95,1.85-25.9,3.31-38.92.58-4.57-2.59-10.92-3.05-13.14-11.23,5.79,0,10.39.26,14.95-.05,11.17-.76,21.47-4.29,28.21-13.56,6.86-9.44,15.6-16.81,24-24.66,19.48-18.32,42.09-21.27,66.84-13.3-3.86,25.63-15.75,47-34.38,64.81l-2.2-.26-.15-.14c-5.4-12.38-14.15-22-24.51-30.46-5.12-4.18-8.28-3.1-10.4,2.56C525.81,433.42,523,441.87,520,450.27Z"/><path class="cls-4" d="M600.57,388.56c-24.75-8-47.36-5-66.84,13.3-8.35,7.85-17.09,15.22-24,24.66-6.74,9.27-17,12.8-28.21,13.56-4.56.31-9.16.05-14.95.05,2.22,8.18,8.57,8.64,13.14,11.23-.05,1.33-.1,2.66-.14,4l-8.84-.16-7.92-2.65h0c-3.78-8.62-12.68-13.92-15.15-23.39a4.66,4.66,0,0,0,0-1.86c9.68,1.71,19,4.89,29.15,4.5,12.68-.49,22.75-4.5,29.61-15.44q4.11-4.14,8.23-8.26c2-1.09,3.66-2.41,4.27-4.72l.06,0c9.28-6.39,18.46-12.91,26.11-21.3l.34,0c18.38-4.34,36.78-8.13,55.46-1.5C600.76,383.27,600.67,385.91,600.57,388.56Z"/><path class="cls-12" d="M556.84,453.1c.76,3.23,0,5.5-3.53,6.58-4.11,1.27-8.1,2.92-12.17,4.32-16.16,5.52-16.17,5.51-13.53-10.69,4.6-7,4.1-16.22,9.87-23.29C545.46,436.9,550.25,445.76,556.84,453.1Z"/><path class="cls-1" d="M556.84,453.1c-6.59-7.34-11.38-16.2-19.36-23.08-5.77,7.07-5.27,16.31-9.87,23.29-1.84-2.77-4.83-2.65-7.61-3,3-8.4,5.81-16.85,8.93-25.2,2.12-5.66,5.28-6.74,10.4-2.56,10.36,8.46,19.11,18.08,24.51,30.46Z"/><path class="cls-14" d="M501.33,474.26c-10.83,3.05-16.43-5.46-23.53-10.64l2-5.05c13.21,4.61,26.12,2.05,39-1.57-.09,2.88-.19,5.76-.28,8.64-1.62,3.73-5.54,4.51-8.44,6.6l-4.24.56A4.32,4.32,0,0,0,501.33,474.26Z"/><path class="cls-14" d="M462.86,452.54l7.92,2.65.06,5.77-4,3c-2.57.18-3.88,1.51-3.8,4.13-.33,1.23-.65,2.45-1,3.68-3.34,8.38-10.68,12.64-17.72,17.21-5.08-.69-7.52,4.72-12.08,5.21l-5.23,1.09-1.25-1.32c5.35-7.91,8.45-19.13,22.16-14.64.9.3,3.78-2,3.86-3.18C452.49,466.77,460.71,461.08,462.86,452.54Z"/><path class="cls-6" d="M376.52,502.62c.7-4.21.86-8.61,2.23-12.6,3.34-9.78,11-11.23,19.86-5.86,7.57,4.59,9.77,14.48,18.66,17.29-2.52,7.24-8.55,5.06-13.73,5.12-.55-9.94-5.81-15.45-15.65-16.66-.77-.59-.75-3.11-2.31-1.37-.48.54.81,2.69,1.29,4.1l-.06.32c-3.81-1.15-6.11,0-6.39,4.2C380.24,499.79,379.36,501.9,376.52,502.62Z"/><path class="cls-12" d="M387.89,489.91c9.84,1.21,15.1,6.72,15.65,16.66a8.55,8.55,0,0,0-2.1.11c-18.06,5.52-18.06,5.53-14.63-13.72l.05-.32C387.2,491.73,387.54,490.82,387.89,489.91Z"/><path class="cls-1" d="M518.77,457c-12.87,3.62-25.78,6.18-39,1.58-.06-1.08-.11-2.15-.16-3.23,0-1.33.09-2.66.14-4,13,2.73,26,1.27,38.92-.58Z"/><path class="cls-4" d="M371.83,516.29l3.53-1.19,5,.32-4.2,9c-1.85,1.91-4.25,1.76-6.6,1.73-2.76-2.56-4.88-2.31-6.24,1.39-4.46,1.22-8.83,3.21-13.62,1.68l4.78-9,13.09-2.38C370.09,520.35,371.11,518.72,371.83,516.29Z"/><path class="cls-3" d="M482,476.1a28.15,28.15,0,0,1-14.88,2.56C471.67,466.49,472,466.42,482,476.1Z"/><path class="cls-6" d="M444.36,489c7-4.57,14.38-8.83,17.72-17.21C462.48,484.67,458.08,488.94,444.36,489Z"/><path class="cls-6" d="M479.62,455.35c.05,1.08.1,2.15.16,3.23l-2,5c-2.69.08-5.29-.07-6.95-2.66,0-1.93-.05-3.85-.07-5.77Z"/><path class="cls-6" d="M510.05,472.24c2.9-2.09,6.82-2.87,8.44-6.6C518.7,471.71,516.59,474.8,510.05,472.24Z"/><path class="cls-6" d="M427.05,495.25l5.23-1.09c-.65,3.94-3.55,4.07-6.61,3.92Z"/><path class="cls-1" d="M604.67,369.21c-2.41-3.55-1.66-7.44-1.24-11.3C606.15,361.43,605,365.37,604.67,369.21Z"/><path class="cls-6" d="M463.05,468.06c-.08-2.62,1.23-3.95,3.8-4.13A4.14,4.14,0,0,1,463.05,468.06Z"/><path class="cls-6" d="M380.33,515.42l-5-.32c.2-1.28.41-2.56.61-3.85C378.57,511.45,380.13,512.73,380.33,515.42Z"/><path class="cls-6" d="M501.33,474.26a4.32,4.32,0,0,1,4.48-1.46C505,475.51,504,477.27,501.33,474.26Z"/><path class="cls-1" d="M564,453.11l2.2.26C565.32,454.41,564.61,454.16,564,453.11Z"/><path class="cls-6" d="M419.62,500.47a1.12,1.12,0,0,1,1.56-.89A5.05,5.05,0,0,1,419.62,500.47Z"/><path class="cls-12" d="M285,470.43l-7.46-7.54c4.93-9.15,14-1.83,20.74-7.13C295.31,472.53,293.76,474,285,470.43Z"/><path class="cls-3" d="M231.51,458c2.67,1.21,8.73-2.08,7.79,4.76-.39,2.88-.27,8.41-5,7.72-4.3-.61-6.44-5.43-7.72-9.32C225.21,457.07,228.87,458,231.51,458Z"/><path class="cls-11" d="M270.09,346.61c0,1.43-1.95,4-6.16,4.67-4.5.68-8.82,3.7-13.54,1.55-1.65-.75-1.17-2.66-.13-3.6,5.23-4.7,9.53-10.82,16.92-12.38,1.93-.41,2.8,1.82,2.9,3.75C270.14,341.67,270.09,342.75,270.09,346.61Z"/><path class="cls-4" d="M316.78,523.91l.33-3.88c2.09-1.18,2.6-3,2.27-5.26.37-1.17.73-2.35,1.1-3.52,2.45-.46,3.58-2,3.65-4.44,1-1.39,2.09-2.78,3.11-4.19,2.58-3.53,5.67-6.89,10.37-5.43,5.4,1.67,3.57,6.84,3.93,10.8.16,1.74.08,3.5.12,5.24-.16,2.47-.28,4.92,2.18,6.51v-.07q1.05,4.33,2.11,8.67c-1.88.22-3.58.77-4.58,2.57l-3.92.39c-.45-3-.89-6-1.34-9-.75-4.3-.5-9-4.21-13-3.68,4.8-8.36,8.28-7.95,14.66l-4.08.18Z"/><path class="cls-6" d="M346,528.34q-1.06-4.33-2.11-8.67l10.61.59-4.78,9-.52-.6Z"/><path class="cls-5" d="M363.29,527.53c1.36-3.7,3.48-3.95,6.24-1.39Z"/><path class="cls-5" d="M346,528.34l3.2.27c-2.06,2.56-4.89,2.53-7.78,2.3C342.37,529.11,344.07,528.56,346,528.34Z"/><path class="cls-2" d="M578.85,296.51c-.19-9.64,8.13-6.67,13-8.78,0,4.17,1.42,8.55-2.29,12.08-2.3,2.19-4.36,5.64-7.75,4.9C577.58,303.77,579.86,299.3,578.85,296.51Z"/><path class="cls-6" d="M620.48,307.86c-5.18-.15-10.66,1.91-15.32-2.09C610.38,305.61,615.7,304.75,620.48,307.86Z"/><path class="cls-1" d="M283.06,636.52l-2.65-.26c.41-2.33.44-4.83,2.8-6.29Z"/><path class="cls-1" d="M337.18,627.84,335,632.23c-2.59-.34-5.8.69-6.91-3.17C331,626.67,334.2,628.2,337.18,627.84Z"/><path class="cls-3" d="M324,524c-.41-6.38,4.27-9.86,7.95-14.66,3.71,4,3.46,8.67,4.21,13C332.28,524.49,328.06,523.83,324,524Z"/><path class="cls-3" d="M266.32,503l5.47-1.42c.43,1.93.86,3.85,1.3,5.78.18,3.14.36,6.28.57,9.81C262.75,516.16,263.35,510.15,266.32,503Z"/><path class="cls-6" d="M305,494.22c-2.17,3.12-5.12,4-8.74,3.15l2.08-3.46Z"/><path class="cls-14" d="M447.67,429.14c2.47,9.47,11.37,14.77,15.15,23.39-6.81,1.56-9.28-4-12.36-8-1.89-2.42-2.45-5.83-6-6.84a4.1,4.1,0,0,1-3.2-4.79C441.73,429,444.85,429.25,447.67,429.14Z"/><path class="cls-13" d="M514.62,408.08q-4.11,4.13-8.23,8.26c-3.19-.76-7.87,1.24-8.8-3.86-.78-4.21,2.82-6.37,5.68-8.34,2.49-1.7,7-1.46,6.57-5.83-1.6-18.23,15.48-18,25.07-24.46,4.42-3,8.15,3.79,10.49,8.26h-.34c-12.38-.86-24.13,8.74-26.11,21.3l-.06,0C515.73,403.37,514.48,405.1,514.62,408.08Z"/><path class="cls-6" d="M324.13,506.81c-.07,2.43-1.2,4-3.65,4.44C320.38,508.69,321.76,507.34,324.13,506.81Z"/><path class="cls-6" d="M371.83,516.29c-.72,2.43-1.74,4.06-4.29,1.59A3.65,3.65,0,0,1,371.83,516.29Z"/><path class="cls-6" d="M319.38,514.77c.33,2.22-.18,4.08-2.27,5.26C315.23,517.14,317.22,515.92,319.38,514.77Z"/><path class="cls-6" d="M343.84,519.74c-2.46-1.59-2.34-4-2.18-6.51C343.62,515,343.64,517.39,343.84,519.74Z"/><path class="cls-14" d="M519,403.4c2-12.56,13.73-22.16,26.11-21.3C537.41,390.49,528.23,397,519,403.4Z"/><path class="cls-14" d="M514.62,408.08c-.14-3,1.11-4.71,4.27-4.72C518.28,405.67,516.58,407,514.62,408.08Z"/><path class="cls-5" d="M387.89,489.91c-.35.91-.69,1.82-1,2.73-.47-1.41-1.76-3.56-1.28-4.1C387.14,486.8,387.12,489.32,387.89,489.91Z"/><path class="cls-17" d="M509.08,289.26a40.33,40.33,0,0,0-6-7.79,1.52,1.52,0,0,0-2.5.66c-1.2,3.76-2.34,8.65,0,12.2a8.37,8.37,0,0,0,5.64,3.36c2.55.49,5.13.75,7.67,1.32a63.74,63.74,0,0,1,15.21,5.49A43.14,43.14,0,0,1,541,313c3.44,3.66,6.16,8.53,5.39,13.71l3,.4c-.2-1.45-1.27-3.12-3-2.57a2.16,2.16,0,0,0-1.12,3.26,1.82,1.82,0,1,0,1-2.93,1.5,1.5,0,0,0-1,1.84c.79,2.79,5.17,2.86,6.13.14,1.13-3.22-4.35-5-4.82-1.81a1.54,1.54,0,0,0,1,1.84c3.34,1.26,5.2-4.61,1.59-5.51a3.43,3.43,0,0,0-3.87,2.23,3.48,3.48,0,0,0,2,4.22c3.41,1.56,7.37-2.23,6.41-5.77-.52-1.92-2.39-2.29-4.12-2.14a3.43,3.43,0,0,1-2.45-.42,9.07,9.07,0,0,1-2.07-2.21,1.52,1.52,0,0,0-2.74.36,2.8,2.8,0,0,0,3.29,3.5,1.53,1.53,0,0,0,1-1.85q-1-4.26-2.08-8.53c-.6-2.46-1.15-4.9.69-7,3.41-3.81,9.3-3.24,13.78-4.71s8.37-4.53,11.68-7.92c3.75-3.85,7.12-8.07,10.62-12.14,2.48-2.9,8.88-9.05,3.89-12.66a1.52,1.52,0,0,0-2,.53l-5.52,8c-1.72,2.48-3.36,5.05-5.25,7.41a22.27,22.27,0,0,1-6.37,5.55,53,53,0,0,1-7.93,3.43c-5.58,2-11.38,3.89-17.33,4.39a31.09,31.09,0,0,1-17.21-3.52c-6.46-3.31-12.79-6.89-19.17-10.34a1.52,1.52,0,0,0-2.06.54,13.26,13.26,0,0,0-1.08,8.78,1.51,1.51,0,0,0,2.51.67l2.73-3.39-2.5-.66a9.57,9.57,0,0,1,0,4.42c-.46,1.88,2.43,2.68,2.89.8l.92-3.72a1.5,1.5,0,0,0-2.89-.8l-1.09,3.29,1.85-1a3,3,0,0,0-3.82,2l2.94.4.12-3.81a1.51,1.51,0,0,0-2.79-.76c-1.15,1.77.66,3.32,2.4,3.28a2.9,2.9,0,0,0,2.21-1.08c.44-.53.79-1.9,1.49-2l-1.84-1a12.7,12.7,0,0,1,.49,6.44l2.95.4.31-2.74a1.51,1.51,0,0,0-2.26-1.3c-2,1.5-1.95,4-.59,6s4.2,2.48,5.73,4.45l1.06-2.57a14.45,14.45,0,0,1-8.47-2.54l-.76,2.8q6.64.68,13.2,1.91l-.35-2.74-2.55,1.09c-1.25.53-.77,2.41.36,2.74,5.41,1.58,11.55,0,16.44,3.27,4,2.72,6.39,7.46,8.52,11.69.87,1.72,3.46.2,2.59-1.52-2.34-4.66-4.95-9.48-9.3-12.56a16.32,16.32,0,0,0-7.76-2.7c-3.24-.37-6.53-.15-9.69-1.07l.36,2.74,2.54-1.09a1.51,1.51,0,0,0-.36-2.74q-6.94-1.31-14-2c-1.6-.17-1.87,2-.76,2.79a17.33,17.33,0,0,0,10,3,1.52,1.52,0,0,0,1.06-2.56c-1.06-1.36-2.6-2-4-2.89a3.65,3.65,0,0,1-1.56-1.48c-.13-.26-.48-1.05-.15-1.31l-2.25-1.29-.31,2.74c-.19,1.67,2.63,2.06,2.94.4a15.86,15.86,0,0,0-.49-8,1.56,1.56,0,0,0-1.85-1.05,3.42,3.42,0,0,0-2.29,1.76,12.52,12.52,0,0,0-.7,1.23s.08,0,.09,0a.26.26,0,0,1-.27,0c-.4-.26-.25.16.46,1.25l-2.8-.75-.12,3.81c-.05,1.79,2.39,1.91,2.95.4-.13.06-.09.11.13.13a1.52,1.52,0,0,0,1.84-1.05l1.09-3.29-2.89-.8-.92,3.72,2.89.8a12.89,12.89,0,0,0,0-6,1.51,1.51,0,0,0-2.51-.66l-2.73,3.39,2.51.66a9.86,9.86,0,0,1,.77-6.48l-2,.54c6.06,3.27,12.09,6.61,18.18,9.82a40.65,40.65,0,0,0,8.65,3.6,32.21,32.21,0,0,0,9.27.95c6.25-.23,12.34-1.92,18.2-4,5.65-2,11.55-4.09,15.76-8.53a66.68,66.68,0,0,0,6.2-8.26l6.63-9.59-2,.54c1.26.91-.87,3.69-1.48,4.42q-2.78,3.25-5.57,6.49A125.33,125.33,0,0,1,566.61,291a27.74,27.74,0,0,1-5.44,3.94,23.59,23.59,0,0,1-7.25,2.24c-4.37.77-9.11,1.74-11.72,5.74-1.55,2.37-1.34,5.06-.72,7.7.74,3.16,1.53,6.31,2.3,9.46l1.05-1.84a.3.3,0,0,1,.4.19l-2.74.36a11,11,0,0,0,3.78,3.63,5.31,5.31,0,0,0,2.48.54c.41,0,1.77-.38,2.06-.11s-.33,1.35-.54,1.63a1.44,1.44,0,0,1-1.7.63c-.12-.06-.42-.22-.45-.38s.22-.26.24-.42c.19,0,.18-.06,0-.17a.19.19,0,0,1-.15-.23c.11.38-.17-.06.17.07l1,1.85q-.33.63-.81.45c.18.1.15,0-.08-.43-.11-.14.17,0,0-.07.1,0-.57.11-.49.07-.1.05.06.13,0,.05l-1.05,1.85.15,0-1.15-.15.53-2.06,1.06.44-1.27,1.16a1.51,1.51,0,0,0,1.3,1.47,1.47,1.47,0,0,0,1.64-1.07c1.42-9.61-5.7-17.55-13.22-22.47a67.11,67.11,0,0,0-22.05-9.1c-2.52-.54-5.12-.71-7.62-1.29a4.93,4.93,0,0,1-4.17-4.57,18.19,18.19,0,0,1,1.17-7.18l-2.51.66a37.63,37.63,0,0,1,5.57,7.18,1.5,1.5,0,0,0,2.59-1.51Z"/><path class="cls-17" d="M505.13,282a4.61,4.61,0,0,0-5.8,1l2.35,1.82c.18-.41.32-.66.77-.79l-.8-2.9c-5,1.85-2.59,9.33-1.09,12.84.77,1.81,2.2,3.8,4.33,4,2.74.26,3.64-3.06,3.73-5.2a1.5,1.5,0,0,0-1.89-1.45,9.25,9.25,0,0,0-3.13,1.7c-1.36,1.09.38,3.18,1.81,2.36a18.2,18.2,0,0,0,5.49-4.88l-2.74-1.15a3.58,3.58,0,0,1-.68,1.12,1.5,1.5,0,0,0,1.81,2.35l1.87-1.06-2.05-2.05-1,1.71c-.59,1.05.41,2.69,1.69,2.2l1.28-.49-1.84-1.84a2.55,2.55,0,0,1-.47,1.11c-1,1.46,1.14,2.87,2.35,1.81l1.73-1.51-2.51-1.46.22-.16,1.84,1.85.49-1.75-1.45,1.1a32.68,32.68,0,0,1,8.41,2.3l.8-2.89q-6-1-12-1.6c-1.7-.16-2,2.54-.4,2.95l10,2.5.4-2.94H512.8c-1.64,0-2.1,2.62-.4,2.95l14.21,2.75.4-2.95a48.06,48.06,0,0,1-11.57-1.56l-.4,2.95,2.75-.09c1.62,0,2.13-2.62.4-2.94l-9.11-1.68c-1.88-.35-2.69,2.52-.79,2.89a101.19,101.19,0,0,1,11.09,2.82l.4-2.95-6.56-.5c-1.67-.12-2.06,2.63-.4,2.95q7.48,1.47,14.84,3.49l.79-2.89-4.2-.81-.4,2.95,3.56.22c1.94.12,1.89-2.82,0-3l-1.82-.17v3l10.3.73c1.69.12,2-2.54.4-2.95a43.47,43.47,0,0,0-6.79-1.1v3a32.83,32.83,0,0,1,7.31,1v-2.89l-4.56,1.38a1.5,1.5,0,0,0,.4,2.94l6.28.64-.4-2.95a26.52,26.52,0,0,1-2.95.28,3.61,3.61,0,0,1-2.14-.51,8.36,8.36,0,0,0-5.17-.63c-1.66.29-1.28,3,.4,2.95,3.86-.21,7.72-.31,11.58-.32a1.5,1.5,0,0,0,0-3l-7.85,0,.4,2.95a20.37,20.37,0,0,1,5.16-1.25l-.4-2.95-2.82,1a1.5,1.5,0,0,0,.8,2.89,17.93,17.93,0,0,1,5.22-.29l-.4-2.95-5.65,1.59c-1.57.44-1.34,3.15.39,2.94l4.7-.56-.75-2.8-2,1.24a1.51,1.51,0,0,0,1.16,2.74l5.35-.85-1.9-1.45c0-.24-.17.06-.33.18a5.41,5.41,0,0,0-1,.82,2.71,2.71,0,0,0-.67,2.59,9.32,9.32,0,0,0,1.82,2.87c.78,1,1.6,2,2.47,3a1.52,1.52,0,0,0,2.56-1.06,8.27,8.27,0,0,0-.93-2.83c-.51-1-.69-1.58.24-2.35a29,29,0,0,1,6.81-3.64c5.12-2.27,10.34-4.34,15.52-6.49a1.5,1.5,0,0,0-.8-2.89l-30.42,6.55c-1.89.41-1.09,3.3.79,2.9l30.43-6.56-.8-2.89c-5.82,2.42-11.74,4.69-17.47,7.34-2.32,1.08-5.35,2.29-6.95,4.38a4,4,0,0,0-.7,3.42c.27,1,1.16,2,1.28,3.06l2.56-1.07c-.69-.76-1.37-1.55-2-2.37-.36-.46-.7-.93-1-1.41-.1-.14-.4-1-.51-.55.06-.25,1-.75,1.27-1a2.82,2.82,0,0,0,.83-2,1.53,1.53,0,0,0-1.9-1.45l-5.35.86,1.15,2.74,2-1.24c1.16-.71.81-3-.76-2.79l-4.7.56.4,2.95,5.66-1.58a1.51,1.51,0,0,0-.4-2.95,20.63,20.63,0,0,0-6,.4l.8,2.89,2.82-1c1.46-.53,1.41-3.13-.4-2.94a23.44,23.44,0,0,0-6,1.36,1.5,1.5,0,0,0,.4,2.94l7.85,0v-3c-3.86,0-7.72.11-11.58.32l.4,2.94a5,5,0,0,1,2.65.26,12.92,12.92,0,0,0,2.13.92,16.59,16.59,0,0,0,5.48-.32c1.8-.27,1.14-2.79-.4-2.94l-6.28-.64.4,2.95,4.55-1.38a1.51,1.51,0,0,0,0-2.89,35.76,35.76,0,0,0-8.1-1.11c-2-.05-1.9,2.84,0,3a38.21,38.21,0,0,1,6,1l.4-2.95-10.3-.73c-1.94-.14-1.89,2.82,0,3l1.82.17v-3l-3.56-.22c-1.67-.11-2.07,2.63-.4,2.95l4.21.8c1.87.36,2.68-2.37.79-2.89q-7.35-2-14.83-3.49l-.4,2.94,6.56.5c1.74.14,2-2.45.39-2.94a100.61,100.61,0,0,0-11.09-2.82l-.79,2.89,9.11,1.68.39-2.95-2.75.09a1.5,1.5,0,0,0-.4,2.94A51.13,51.13,0,0,0,527,298.26c1.65,0,2.09-2.62.4-2.95l-14.21-2.75-.4,2.95h5.81a1.51,1.51,0,0,0,.4-2.95l-10-2.51-.4,2.95q5.64.56,11.24,1.49a1.5,1.5,0,0,0,.8-2.89,35.85,35.85,0,0,0-9.21-2.41,1.48,1.48,0,0,0-1.44,1.1l-.49,1.75a1.52,1.52,0,0,0,1.85,1.85,2.64,2.64,0,0,0,1.88-1.94,1.52,1.52,0,0,0-2.51-1.46L509,292l2.36,1.82a4.66,4.66,0,0,0,.77-1.82c.2-1-.68-2.29-1.84-1.85l-1.28.49,1.69,2.2,1-1.7a1.52,1.52,0,0,0-2.05-2.06l-1.87,1.06,1.82,2.36a7.6,7.6,0,0,0,1.45-2.45c.66-1.73-1.8-2.38-2.74-1.15a14.51,14.51,0,0,1-4.41,3.8l1.82,2.35a5.51,5.51,0,0,1,1.8-.93l-1.9-1.44a5.86,5.86,0,0,1-.48,2c-.18.44,0,.15-.2.1a1.84,1.84,0,0,1-.6-.43,6.74,6.74,0,0,1-1.46-2.82,24,24,0,0,1-1.09-4.18c-.11-.77-.39-3.05.66-3.44,1.78-.66,1.08-3.46-.8-2.9a3.88,3.88,0,0,0-2.56,2.18c-.59,1.4,1.16,3.26,2.36,1.82a1.65,1.65,0,0,1,2.17-.5,1.5,1.5,0,0,0,1.51-2.59Z"/><path class="cls-17" d="M543.08,301.89c1.06-.74,2.42-.64,3.65-.86a13.76,13.76,0,0,0,4.16-1.51c1.25-.68.75-2.94-.76-2.79a61,61,0,0,0-9.49,1.64,1.51,1.51,0,0,0,.4,2.95,63,63,0,0,0,13.14-1.11l-.8-2.89-9.09,1.89c-1.89.39-1.08,3.27.8,2.89l4.14-.84c1.9-.39,1.08-3.24-.8-2.89l-7.11,1.33.79,2.89a112.17,112.17,0,0,1,14-1.65c1.9-.14,2-3,0-3h-2.71l1.29,2.26a2,2,0,0,1,.72-.65,1.52,1.52,0,0,0-.75-2.8,20.64,20.64,0,0,0-7.46.67,1.5,1.5,0,0,0,.8,2.89,31.5,31.5,0,0,1,3.34-.72l-.8-2.89a110.25,110.25,0,0,0-13.66,4.84c-1.63.69-.42,3.08,1.15,2.74l3-.66-.8-2.89a16.32,16.32,0,0,1-2.68.54l1.29,2.26a1.08,1.08,0,0,1,.27-.46,1.51,1.51,0,0,0-1.46-2.51,28.9,28.9,0,0,0-2.9.95,1.52,1.52,0,0,0-.66,2.5,10.82,10.82,0,0,0,7.72,3.75A1.52,1.52,0,0,0,543,305.2l-2.36-2.13a1.52,1.52,0,0,0-2.51.66,5.81,5.81,0,0,0,0,3.64c.33,1,1.74,1.6,2.5.67,1.58-1.92.41-3.8-1.28-5.09a1.52,1.52,0,0,0-2.21.9,2.54,2.54,0,0,0,1.78,3.21,2.69,2.69,0,0,0,3.2-2.29l-2.94-.4a21.71,21.71,0,0,0,1.08,5.18c.43,1.25,2.66,1.6,2.89,0a12.78,12.78,0,0,0-.27-5.33,1.52,1.52,0,0,0-2.75-.36,9.85,9.85,0,0,0-1.07,4.61c0,1.63,2.65,2.12,2.94.4.48-2.86-2.21-4.39-4.44-5.48a28,28,0,0,0-8.71-2.4L519,299.63c-2.09-.29-7-.33-7.32-3.26-.22-1.9-3.22-1.92-3,0a6.38,6.38,0,0,0,4.78,5.32c2.89.93,6.18,1,9.18,1.44s6.26.71,9.31,1.41a19.2,19.2,0,0,1,4.1,1.44c.46.23,3.17,1.4,3.06,2.09l3,.4a6.52,6.52,0,0,1,.66-3.1L540,305a9,9,0,0,1,.28,3.73h2.89a18.64,18.64,0,0,1-1-4.38c-.15-1.53-2.7-2.2-3-.39-.17.47.1.7.81.66l-2.21.9a3.8,3.8,0,0,1,.47.42c.11.26.18.25.21,0l2.51.67a3.07,3.07,0,0,1,0-2.05l-2.5.66,2.36,2.13,1.06-2.56a7.88,7.88,0,0,1-5.6-2.87l-.66,2.51a26.51,26.51,0,0,1,2.9-.94L537.09,301a3.94,3.94,0,0,0-.74,1.07c-.4.91,0,2.39,1.3,2.25a20.71,20.71,0,0,0,3.48-.65,1.5,1.5,0,0,0-.8-2.89l-3,.65,1.15,2.75a105.67,105.67,0,0,1,12.95-4.54c1.9-.53,1.07-3.18-.8-2.89a30.15,30.15,0,0,0-3.34.72l.8,2.89a18.25,18.25,0,0,1,6.66-.56L554,297a5.51,5.51,0,0,0-1.8,1.73,1.51,1.51,0,0,0,1.3,2.25h2.71v-3a119,119,0,0,0-14.84,1.76c-1.9.38-1.09,3.24.79,2.89l7.12-1.33-.8-2.89-4.14.84.8,2.89,9.09-1.89c1.89-.39,1.08-3.25-.8-2.89a59.43,59.43,0,0,1-12.34,1l.39,2.95a55.82,55.82,0,0,1,8.7-1.54l-.76-2.8a11.52,11.52,0,0,1-4.23,1.31,7.47,7.47,0,0,0-3.58,1.06c-1.57,1.09-.07,3.7,1.52,2.59Z"/><path class="cls-17" d="M538.83,300.58c1.19,2.33,2.92,4.29,5.78,3.94a9.83,9.83,0,0,0,3.74-1.47,27.19,27.19,0,0,1,4.22-1.92c1.77-.67,1.07-3.49-.8-2.9-2.07.65-4.07.7-5.51,2.55a13,13,0,0,0-2.3,6.15c-.67,4.81,1.13,9.18,3.25,13.39l1.56,3.06.84,1.65.42.82.21.42c.12.27.14.27.07,0a4.11,4.11,0,0,1-1.74,0,1.92,1.92,0,0,1-1.11-.67,9,9,0,0,1-1.85-2.94c-.33-1-.45-1.94-.87-2.87a25.82,25.82,0,0,0-1.78-2.94c-1.21-2-.86-4.52-.87-6.78,0-1.07-.22-2.5.37-3.46s1.93-1.38,2.81-1.85a68.46,68.46,0,0,1,7.81-3.54l-1.15-2.74c-6,3.31-10.13,12.23-6,18.48.95,1.43,8,8.15,4.82,9.46-1.79.73-3.76-.45-4.86-1.81a15.72,15.72,0,0,1-2.48-5.7c-.67-2.35-1.48-4.63-2.32-6.92a36.7,36.7,0,0,0-2.89-6.94l-2.59,1.52A146.88,146.88,0,0,1,547,325.14l2.36-1.81c-2.4-2.49-4.86-5.09-5.58-8.58-.39-1.89-3.28-1.09-2.9.8.83,4,3.61,7.05,6.36,9.9,1.23,1.28,3.06-.34,2.35-1.82A146.29,146.29,0,0,0,538.22,305c-1.07-1.57-3.63-.14-2.59,1.52a34.52,34.52,0,0,1,2.75,6.68c.81,2.21,1.57,4.42,2.22,6.68,1.14,3.93,3,8.49,7.46,9.5a5.86,5.86,0,0,0,5.61-1.45c1.52-1.67,1-3.9.06-5.71a23.75,23.75,0,0,0-3.76-5.1,8.33,8.33,0,0,1-2.58-5.68A11.74,11.74,0,0,1,553.44,301c1.45-.81.46-3.36-1.16-2.74a75.57,75.57,0,0,0-7.71,3.41c-2.15,1.11-4.61,2.17-5.25,4.74a14,14,0,0,0-.23,3.36c0,1.43,0,2.87,0,4.3a8.85,8.85,0,0,0,.86,3.51c.57,1.16,1.47,2.13,2,3.3s.56,2.19,1,3.24a13,13,0,0,0,2.22,3.4,6.08,6.08,0,0,0,6.66,1.37c2.75-1.34,1-4.12,0-6-1.28-2.5-2.67-5-3.73-7.59a15,15,0,0,1-1.09-8.86,9.38,9.38,0,0,1,1.54-3.85c.94-1.14,2.65-1.06,4-1.47l-.8-2.9a62.89,62.89,0,0,0-5.93,2.79,3.08,3.08,0,0,1-2.74.36,5.12,5.12,0,0,1-1.68-2.32c-.88-1.72-3.47-.2-2.59,1.52Z"/><path class="cls-17" d="M556.11,300.38a13.34,13.34,0,0,1,3.41,1.49,25,25,0,0,0,3.64,1.38c2.39.66,5.21,1,7-1,1.61-1.82,2.35-4.47,3-6.74.79-2.67,1.33-5.41,1.87-8.14a1.5,1.5,0,0,0-2.74-1.16c-.71,1.49-1.7,2.83-2.43,4.31a16.64,16.64,0,0,1-2.27,4.11,11.13,11.13,0,0,1-3.34,2.42,14.3,14.3,0,0,1-1.9.78c-.5.17-1.72.71-2.13.39l.53.54,0,.23-.75,1.29.1-.07-.75.21c1-.11,2.1,0,3.15,0a3.47,3.47,0,0,0,2.69-1.42,14.45,14.45,0,0,0,1.51-2.47c.24-.46.47-.92.72-1.37l.36-.6c.17-.25.44-.36,0-.26h-.8l.15,0-.67-.39.1.11-.38-.66c.07.23.09.19,0-.12,0,.18-.1.35-.15.53s-.16.44-.25.66c-.25.6-.55,1.17-.83,1.75a12.9,12.9,0,0,0-1.28,3.7c-.19,1.39,1.35,2.63,2.51,1.46.9-.9,1.82-1.77,2.76-2.63l-2.36-1.82-.89,1.51a1.51,1.51,0,0,0,2,2.05,11.07,11.07,0,0,0,1.8-1.24l-2.5-1.46a1.62,1.62,0,0,1-.35.69l2.56,1.06,0-1a1.51,1.51,0,0,0-2.26-1.3,18.7,18.7,0,0,0-2.37,2,1.51,1.51,0,0,0,1.82,2.35c2-1.1,3-3,3.91-5l-2.59-1.51-1.68,3.93c-.74,1.72,1.55,3.21,2.59,1.51,1.17-1.91,2.54-4.54,2.33-6.85-.25-2.58-2.65-3.69-4.87-4.25l.66,2.51a11.55,11.55,0,0,1,1.39-1.32l-2.56-1.06a18.4,18.4,0,0,1-.15,2.22,1.56,1.56,0,0,0,1,1.85,1.51,1.51,0,0,0,1.84-1,25.64,25.64,0,0,0,.26-3,1.52,1.52,0,0,0-2.56-1.07,11.64,11.64,0,0,0-1.39,1.33,1.51,1.51,0,0,0,.67,2.5c1.18.3,2.89.64,2.64,2.2a13.25,13.25,0,0,1-1.9,4.5l2.59,1.51,1.68-3.93a1.55,1.55,0,0,0-.54-2.05,1.52,1.52,0,0,0-2,.54c-.67,1.48-1.36,3.12-2.83,3.95l1.81,2.36a13.25,13.25,0,0,1,1.77-1.5l-2.26-1.3,0,1a1.51,1.51,0,0,0,2.56,1.06,4.71,4.71,0,0,0,1.12-2,1.51,1.51,0,0,0-2.51-1.46,7.44,7.44,0,0,1-1.2.77l2.06,2.05.89-1.5a1.51,1.51,0,0,0-2.35-1.82c-.94.86-1.86,1.73-2.76,2.63l2.51,1.46a14.88,14.88,0,0,1,1.57-4.23c.58-1.26,1.59-3.1.62-4.4a1.77,1.77,0,0,0-2.16-.57,4.14,4.14,0,0,0-1.63,1.76c-.39.64-.71,1.32-1.06,2a6,6,0,0,1-1.28,2.05c-.39.27-1.38.11-1.89.11a3.79,3.79,0,0,0-2.47.41,1.78,1.78,0,0,0-.33,2.29,2.65,2.65,0,0,0,2.4,1.2,12.64,12.64,0,0,0,4.85-1.43,14.46,14.46,0,0,0,3.78-2.46,13.35,13.35,0,0,0,3-4.54c.8-1.79,2-3.37,2.81-5.14l-2.74-1.16c-.47,2.37-.94,4.73-1.56,7.06a21.1,21.1,0,0,1-2.34,6.21c-1.13,1.68-3.46.86-5,.34a25.06,25.06,0,0,1-3-1.25,11.55,11.55,0,0,0-3.3-1.4,1.54,1.54,0,0,0-1.84,1,1.52,1.52,0,0,0,1.05,1.85Z"/><path class="cls-17" d="M565.47,292.24c2.07-.74,3.07-2.39,4.18-4.17s2.93-2.72,4.65-3.83a52.73,52.73,0,0,1,5.94-3.67,10.29,10.29,0,0,1,3-.85,8.1,8.1,0,0,1,3.46-.11,2.75,2.75,0,0,1,.63.34c.45.47.63.15.52-1-.19-.07-1.29.67-1.5.77a22.83,22.83,0,0,1-2.73,1.2c-2.12.74-4.41.79-6.5,1.61a7,7,0,0,0-3.91,3.33,5.84,5.84,0,0,0-.49,2.77c0,.78-.22,1.4-1.12,1.41l1.06,2.56a20.78,20.78,0,0,0,2.34-2.15c.64-.8,1.22-1.63,1.88-2.41a23.36,23.36,0,0,1,4.33-4,36.72,36.72,0,0,1,5.41-2.67c1.8-.87,3.36-2.56,3.14-4.7-.11-1-1.23-2-2.26-1.29l-7,4.89,1.81,2.36a14.55,14.55,0,0,1,1.88-1.43l-2.06-2.05a10,10,0,0,1-1.57,1.74l2.56,1.06a2.65,2.65,0,0,1,.23-.95,1.51,1.51,0,0,0-1.85-1.84,29.33,29.33,0,0,0-3.84,1.6l1.82,2.36a5.79,5.79,0,0,1,2.54-1.32l-1.7-2.2a29.26,29.26,0,0,1-4.74,7,15,15,0,0,1-2.74,2.83,19.4,19.4,0,0,1-4,1.73l1.69,2.21c-.31.22-.27.31.12.25a2.51,2.51,0,0,0,.72-.06,4.22,4.22,0,0,0,1.46-.5,13.56,13.56,0,0,0,2.37-1.82,20.1,20.1,0,0,0,3.88-4.83,1.5,1.5,0,0,0-2.59-1.51,17.48,17.48,0,0,1-3.86,4.62,3.48,3.48,0,0,1-2.31,1.08,2.62,2.62,0,0,0-2.38,1.25c-.68,1,.47,2.68,1.69,2.21a33.13,33.13,0,0,0,4.34-1.82,14,14,0,0,0,3.41-3.19,33.2,33.2,0,0,0,5.49-7.92,1.52,1.52,0,0,0-1.69-2.2,9,9,0,0,0-3.87,2.09c-1.32,1.18.37,3.08,1.82,2.35a23.73,23.73,0,0,1,3.13-1.3l-1.85-1.85a5.27,5.27,0,0,0-.33,1.75,1.51,1.51,0,0,0,2.56,1.06,13.94,13.94,0,0,0,2-2.35c.86-1.24-.83-2.84-2.06-2.05a19,19,0,0,0-2.48,1.9c-1.25,1.12.41,3.34,1.82,2.35l7-4.89-2.25-1.3c.2,1.92-2.58,2.43-3.91,3a21.17,21.17,0,0,0-4.68,2.91,26.62,26.62,0,0,0-3.78,3.8c-.57.69-1.08,1.42-1.63,2.11a19.27,19.27,0,0,1-2.22,2,1.52,1.52,0,0,0,1.06,2.56,4.13,4.13,0,0,0,3.83-2.51c.64-1.56-.18-3.08,1.24-4.32s3.52-1.41,5.32-1.76a22.12,22.12,0,0,0,5.5-1.95c1.46-.72,4-1.79,2.77-3.87a5.4,5.4,0,0,0-4.82-2.16,17.27,17.27,0,0,0-6,1.14,36,36,0,0,0-5.36,3.14,38.58,38.58,0,0,0-5.47,3.74,11.6,11.6,0,0,0-1.9,2.55,4.63,4.63,0,0,1-2.07,2.27c-1.81.64-1,3.54.8,2.89Z"/><path class="cls-17" d="M588.43,281.77c2.72-1.69,2.72-5.83,2-8.56a22,22,0,0,0-1.75-4.36,6.22,6.22,0,0,0-3-3.3c-1.5-.68-3-1.07-4.16.48a18.08,18.08,0,0,0-1.87,4.21,63.11,63.11,0,0,0-3.1,10,1.51,1.51,0,0,0,2.74,1.15,32.87,32.87,0,0,0,4.56-7.67,24.23,24.23,0,0,0,1.13-4.19,20.33,20.33,0,0,0,.36-2.3,4,4,0,0,0-.05-1,1.75,1.75,0,0,0-.12-.55c-.17-.4-.21-.48-.11-.25l-.2.76L585,266l-.53.54.13-.09-.76.2c.84,0,1.49.89,1.79,1.56a15.74,15.74,0,0,1,.91,3.54c.55,2.66,1.09,5.32,1.45,8a1.52,1.52,0,0,0,1.3,1.47,1.5,1.5,0,0,0,1.64-1.07,17.19,17.19,0,0,0-1.2-10.53,13.91,13.91,0,0,0-2.79-4.18,3.78,3.78,0,0,0-2.31-1.14,3.07,3.07,0,0,0-1.24.15,5.74,5.74,0,0,1-.89.39h.8l-.24-.05.66.39-.18-.15.39.66,0-.22v.8c-.08.26,0,.06,0,.09s.33.27.45.36c.4.28.79.56,1.2.81a5.34,5.34,0,0,1,2.16,1.83,14.13,14.13,0,0,1,1.38,6.44,10.08,10.08,0,0,1-.25,3c-.28.9-1.14.83-1.95,1.05-2.11.6-4.05,1.67-6.24,2l1.85,1.85c.07-.31.6-.63.84-.86s.74-.7,1.09-1.08a24.68,24.68,0,0,0,1.9-2.3,23.91,23.91,0,0,0,2.87-5.31c.58-1.46-1.51-2.44-2.51-1.46a20.46,20.46,0,0,1-2.61,2.21h1.52l-.12-.07.68.9c0,.42,0,.42.07,0,.07-.21.14-.41.22-.61a11,11,0,0,1,.49-1.11,1.5,1.5,0,0,0-2.59-1.52l-1.47,2,2.8.76a2.81,2.81,0,0,1,.42-1.3l-2.74-1.16-.84,2.41a1.5,1.5,0,1,0,2.9.8l1.06-2.69a3.61,3.61,0,0,0,.43-2.18,2.48,2.48,0,0,0-1.33-1.65,3,3,0,0,0-1.32-.31,3.51,3.51,0,0,0-.72.07c-.38,0-.43,0-.14.08l.89.69a11.08,11.08,0,0,1-1.18-4.32l-2.8.76.67,1.08c1,1.63,3.62.13,2.6-1.52l-.68-1.08c-.71-1.14-3-.81-2.79.76a21.44,21.44,0,0,0,.65,3.36c.26.91.53,2.3,1.33,2.9a1.84,1.84,0,0,0,1.2.34,3.78,3.78,0,0,0,.85-.12c.31,0,.25-.16-.19-.56l-.09.24c-.31.27-.51,1.28-.67,1.67l-.67,1.68,2.9.8.83-2.41c.56-1.63-1.9-2.6-2.74-1.16a6.08,6.08,0,0,0-.83,2.82c-.1,1.62,2,1.85,2.79.75l1.47-2-2.59-1.52c-.69,1.4-2.1,3.88-.27,5a1.48,1.48,0,0,0,1.52,0,26.61,26.61,0,0,0,3.22-2.68l-2.51-1.46a19.82,19.82,0,0,1-4.87,7.16,5.07,5.07,0,0,0-1.83,2.39,1.52,1.52,0,0,0,1.84,1.84,27.23,27.23,0,0,0,5.05-1.61c1.58-.56,3.47-.61,4.53-2.07s1.07-3.41,1.06-5.09a20.47,20.47,0,0,0-.78-5.5,8.1,8.1,0,0,0-2.8-4.6c-.62-.46-1.29-.82-1.93-1.24a6.19,6.19,0,0,0-2.29-1.22c-1.65-.29-3.86,1.23-3.27,3.08a2,2,0,0,0,2.26,1.24c.3-.06.78-.43,1-.44s.5.28.67.48a12.36,12.36,0,0,1,2.67,5.2,13.15,13.15,0,0,1,.36,6.38l3,.4c-.45-3.42-1.11-6.81-1.84-10.18-.56-2.61-2.07-6.07-5.31-5.94a1.81,1.81,0,0,0-1.65,1.34c-.2.71.21,1.22.24,1.89a9.87,9.87,0,0,1-.37,2.28c-.16.82-.36,1.64-.6,2.44-.94,3.07-2.82,5.66-4.69,8.22l2.74,1.16a53.29,53.29,0,0,1,2.13-7.35c.43-1.2.89-2.4,1.35-3.59.21-.55.41-1.1.67-1.63,0-.05.4-.69.39-.7-.58,0-.73.12-.43.19l.4.14a3.42,3.42,0,0,1,2,2,21,21,0,0,1,1.42,3.31,9.12,9.12,0,0,1,.45,3.2c0,.76-.19,2.16-.91,2.6-1.64,1-.13,3.62,1.51,2.6Z"/></g></g></svg>