<svg xmlns="http://www.w3.org/2000/svg" viewBox="0 0 1127.97 1016.11"><defs><style>.cls-1{fill:#98acca;}.cls-2{fill:#c9c8cb;}.cls-3{fill:#ecf1fe;}.cls-4{fill:#c7d2e4;}.cls-5{fill:#30273b;}.cls-6{fill:#b7c5da;}.cls-7{fill:#1b1823;}.cls-8{fill:#fecca7;}.cls-9{fill:#99adca;}.cls-10{fill:#e7bd9c;}.cls-11{fill:#99adcb;}.cls-12{fill:#fefefe;}.cls-13{fill:#fdfdfd;}.cls-14{fill:#99acca;}.cls-15{fill:#fdfdfc;}.cls-16{fill:#f9f8f9;}.cls-17{fill:#e8d1c1;}.cls-18{fill:#c7d3e7;}.cls-19{fill:#c6d1e2;}.cls-20{fill:#b8c5da;}.cls-21{fill:#f2e1d9;}.cls-22{fill:#4aaba7;}.cls-23{fill:#a1badc;}.cls-24{fill:#2f7e91;}.cls-25{fill:#596777;}.cls-26{fill:#596677;}.cls-27{fill:#3c434c;}.cls-28{fill:#3e454e;}.cls-29{fill:#343c45;}.cls-30{fill:#383f48;}.cls-31{fill:#384049;}.cls-32{fill:#303841;}.cls-33{fill:#2f3640;}.cls-34{fill:#0e242a;}.cls-35{fill:#a6adb6;}.cls-36{fill:#b0b6be;}.cls-37{fill:#122d32;}.cls-38{fill:#10292e;}.cls-39{fill:#102a2f;}.cls-40{fill:#fcfdfd;}.cls-41{fill:#1a454e;}.cls-42{fill:#1a464f;}.cls-43{fill:#4aaaa6;}.cls-44{fill:#626f7f;}.cls-45{fill:#4aaca8;}.cls-46{fill:#acdad5;}.cls-47{fill:#4dada9;}.cls-48{fill:#586677;}.cls-49{fill:#596778;}.cls-50{fill:#fdfdfe;}</style></defs><title>Imagen1</title><g id="Capa_2" data-name="Capa 2"><g id="Capa_1-2" data-name="Capa 1"><path class="cls-1" d="M58.57,471.34c-12.59.56-24.48-1.48-35-9.06-11.86-8.57-18.1-20.59-21.49-34.42-.51-2.09-.4-4.4-2.1-6.08V391.92c2.66-4.9,2.43-10.5,3.83-15.72,10.59-39.44,31.07-72.31,63.7-97.27a14.53,14.53,0,0,0,1.43-1.4c2-3.47,5.65-5,8.91-6.73,17.18-9.23,35.09-13.56,54.39-7.4a7.1,7.1,0,0,1,1.92.71c7.8,5.53,16.7,5,25.62,5A36.49,36.49,0,0,1,185,279c5.82,5.27,5.07,17.86-3.14,20.82-4.75-.63-8.61-3.77-13.3-4.67s-5-.67-3.72,4.07c.69,2.65,2.58,5.33.42,8.17-6.18,2.52-12.39,2.27-18.63.29-2.34-2.2-2.5-5.45-3.79-8.16s-2.79-3.75-5.89-2.29c-2.56,1.2-4.77,3.28-7.77,3.51-6.13-2.75-8.63-7.76-7.65-14.08.63-4.11-1-4.4-4.3-4.65-13.94-1.06-25.58,4.66-36.78,11.88-3.55,2.37-6.9,5-10.23,7.67C45.36,324.92,28.49,353,21.62,386.59c-2.69,13.16-3.13,26.54.54,39.68C25,436.6,30.52,445,40.85,449.37c5.89,2.51,12.08,1.93,18.22,1.86,11.71-1.61,21.69-7.22,31-14a127.9,127.9,0,0,0,33.59-36.83c8.09-11.46,13.57-24.19,18.27-37.3a33.67,33.67,0,0,0,1.81-9.05,52.14,52.14,0,0,0,3.22-14.26c.27-2.93.73-5.8,4.27-6.67,7.74.07,15.19,2.36,22.87,3,26,2.23,51.63.79,76.82-6.47,18.31-5.27,35.34-12.95,50-25.39,9.51-8.07,16.5-17.75,19.78-29.93.39-1.42-.06-3.7,2.56-3.67,0,8.54,1.34,17.16-.55,25.6C319,312.63,308.36,324,295.21,333.35,276,347,254.12,354.07,231.1,357.92a209.17,209.17,0,0,1-41.36,2.94c-7.33-.24-14.65-1.1-21.94-1.89-3.24-.35-4.77.46-5.72,3.91a154.55,154.55,0,0,1-11.75,30.06,14.58,14.58,0,0,1-2,6.77c-13.55,24-30.47,45-54.06,59.9A90.66,90.66,0,0,1,64,471.76C62.14,472.14,60.28,472.67,58.57,471.34Z"/><path class="cls-2" d="M452.9,920a3.25,3.25,0,0,0,0-.88c1.76-1.66,3.51-1.68,5.25,0a3.91,3.91,0,0,1-.06.84Z"/><path class="cls-3" d="M899.9,627.56l5.24,10.37c-10.33,7.08-21.46,12.82-32.28,19.1q-54.51,31.63-109.15,63.07-69.32,39.95-138.59,80-33.45,19.24-66.85,38.57a13.32,13.32,0,0,1-4.17,2c-2.21.21-3.58-1.06-4.47-2.82-6.82-13.47-18.42-21.61-31.2-28.71-25.88-14.37-51.27-29.61-77-44.28-1.91-1.09-4-2.05-5.11-4.15.09-2.52,2.25-3.29,3.89-4.33,17.61-11.06,34.82-22.73,52.48-33.71,17.94-11.44,36.4-22,53.92-34.15,7.22-5,14.12-10.33,20.85-15.92a40.92,40.92,0,0,0,4-4c7.43-8.21,7.92-12.63,2.42-21.74a7,7,0,0,1,1.07-4.36c4.16-8,6.9-16.49,9.44-25.09,8.38-6.57,8.47-15.25,7.66-25-1.24-14.81-.86-29.73-.11-44.61,1.34-4.52.67-9.16.7-13.75,0-3.45.92-6.4,3.48-8.73,4.77-4.33,6.05-10,6.8-16.11,1.17-9.46,1.22-19.07,3.48-28.4,1-2.46,3.3-2.65,5.42-3.09,4.45-.95,8.9-1.9,13.29-3.14,2.19-.61,4.19-1.46,4.56-4.09,1.21-5.82,1.64-6.06,6.92-3.19,7.93,4.33,15.6,9.1,23.49,13.51a50.68,50.68,0,0,0,7.37,3.5,43.25,43.25,0,0,0,8.48,5.76c34.83,19.86,69.44,40.11,104.2,60.09,27,15.55,54,31.21,81,46.76,9.39,5.92,19.76,10.3,28.26,17.58C893.74,618.15,897.67,622.21,899.9,627.56Z"/><path class="cls-4" d="M786.81,764.78c3.8,5.14,9.89,6.92,15.05,10,19.49,11.44,39.19,22.5,58.79,33.74,19.29,11,16.8,27.19.51,37.78-13.33,8.67-27.34,16.29-41.11,24.27q-34.87,20.22-69.82,40.3-38.7,22.32-77.39,44.64c-20.6,11.9-41,24.14-61.8,35.69-25.12,14-50.56,16.46-76.47,1.27-31.9-18.69-64.08-36.9-96.14-55.3-.95-.54-2-1.65-3.1-.18a72.2,72.2,0,0,1-8.93-9.32,10.79,10.79,0,0,1-.27-4.38c1.43-5,1.56-10.09,1.71-15.24.56-18.67-1.16-37.28-1.08-55.92,0-2.57-.18-5.15.47-7.66,2-4.06,4.69-1.64,6.83-.41,6.83,3.91,13.68,7.81,20.47,11.78,25,14.61,50.15,28.89,75.16,43.44,8.93,5.2,17.53,5.12,25.75-1.52q85-49.62,170.23-98.88c18.23-10.58,36.42-21.23,54.7-31.72C782.33,766,784.06,763.86,786.81,764.78Z"/><path class="cls-5" d="M631.07,470.38c.63,3.13-.69,4.47-3.82,5.14-6.65,1.41-13.2,3.25-19.79,4.92-6.18,3-13,2.78-19.52,3.32a54.63,54.63,0,0,1-17.38-.88c-3.5-.84-5.1.25-5,4.07.18,5.65-.14,11.31.09,16.95.31,7.31-2.82,12.81-8.11,17.47-15,13.23-29.58,27-44.43,40.38-11.16,10.09-22,20.55-33.51,30.25-5.21,4.39-10.85,8.69-18.55,6.13-13.82-7.88-27.47-16.08-41.36-23.85a10.41,10.41,0,0,1-3.16-2.6,21.39,21.39,0,0,1-4.07-14.55c1.45-16.7,2-33.46,3.4-50.15.73-2.8,1.24-5.66,1.8-8.5,3.61-16.66,6.88-33.38,9.61-50.2.44-2.71.66-5.41.85-8.13.61-2.66,1.37-5.3,1.93-8,2.07-11.63,2.63-23.43,4-35.14,1.51-12.72,2.05-25.56,4.82-37.1-4,20.14-10,40.8-15.42,61.64-.55,2.14-.83,4.4-2.37,6.16-2.24,1.83-4.16.4-6.08-.65-8.3-4.53-15.39-10.65-22.34-17-3.32-3.92-6.79-7.7-9.72-11.94-2-2.89-2.67-5.9-.88-9.15.31-.67.66-1.32,1-2,2.17-4.3,4.38-8.59,6.42-13,14-26.5,31.59-50.55,50.75-73.47,2.94-3.53,5-7.85,9-10.5,7.21-6.62,16.29-8.25,25.5-9.53a3,3,0,0,1,2.9.62,62.17,62.17,0,0,0,21.56,10.54c3.48.93,3.35,2.92,1,5.15-.62.59-1.21,1.21-1.87,1.77-10.71,9.05-8.87,20.95-1,29.91,10.87,12.37,29.55,17.14,45.18,11.69s19.86-22.49,8.32-34.6a91.78,91.78,0,0,0-6.69-6.39c-1.91-1.65-3.44-3.5-1.34-6.09,35,14.22,56.82,40.05,68,75.91a480.14,480.14,0,0,1,17.55,79.49c.27,2,.69,4,1,6.07,2.38,3.26,2.71,6.92,1.82,10.71A8.24,8.24,0,0,0,631.07,470.38Z"/><path class="cls-4" d="M384,387.76c.12.54,0,1-.6,1.12-1.58,1.27-3.46,1.33-5.36,1.34-3.08,0-6.16,0-9.24,0-10.27,0-10.39,0-11.06,10-.27,3.94-2.17,5.57-5.86,5.41-5.85-.25-11.56,1.43-17.4,1.12-2.85-.16-4.17,1.08-3.65,4,.09.51,0,1,.1,1.54,1.22,7.24-1.54,12.09-8.34,15.05-4.69,2.05-8.85,5.19-13.34,7.68-2.24,1.25-3.41,2.73-2,5.37,12,22.16,7.17,41.93-8.93,59.8-2.62,2.9-2.54,4.42.4,6.39.6,3.76-2.52,4.09-4.8,5.21-.49.09-1.09.25-1.48,0-3.59-2.37-6.37-.49-9.13,1.65-.41-2.36-1.48-1.06-2.41-.43-18.58,12.37-39.38,18.93-61.09,22.64-18.78,3.2-37.71,3.27-56.73,1.68a179.28,179.28,0,0,1-49.73-11.45c-18.82-7.25-35.7-17.37-47.3-34.53a42.64,42.64,0,0,1-7.45-20c18.73-2.47,34.72-10.95,49-22.87,16.32-13.61,28.89-30.34,39.35-48.72,1.25-2.21,2.28-4.54,3.42-6.81,4.34,2.28,8.62,0,12.84-.44a225.84,225.84,0,0,1,45.4.06,202.83,202.83,0,0,1,34.6,6.62c2.08.6,3.56-.15,5.22-1.12q31-18.17,62-36.25,44-25.81,88-51.7c11.05-6.5,22.21-12.84,33.09-19.62,6-3.77,11.79-1.33,17.71-.37-4.87,9.17-12.5,16.22-18.75,24.32-14.76,19.1-28.45,38.91-40.13,60.06-4.84-.23-6.58,2.21-5.92,6.8C384.73,383.47,383.72,385.58,384,387.76Z"/><path class="cls-6" d="M631.07,470.38c-1.4-5.15-1.15-10.49-1.77-15.72q29.12-16.87,58.23-33.73c10.08-5.83,20.29-11.45,30.28-17.43,16.85-10.09,35.24-14.76,54.67-15.66,20.42-.94,40.5,1.3,59,10.43,13,6.42,25.41,14.16,38,21.41,28.06,16.14,56.17,32.19,84.09,48.55,19.94,11.68,40.82,21.87,59.6,35.38,22.84,16.43,22.17,42.34-1.23,58.23-15.17,10.3-31.55,18.63-47.36,27.88L899.9,627.56c-9.65-14.28-25.1-20.92-39-29.63,1-2.94,3.84-3.75,6.14-5.11,30.06-17.56,60.41-34.6,90.38-52.31,10.5-6.21,10.35-11-.21-17.07q-79.87-45.78-159.47-92.09c-12.57-7.32-24.25-7.12-36.74.31-28.73,17.09-57.85,33.54-86.81,50.25-2.12,1.22-4.09,3.25-7,2.7-5.57.84-8.82-3.75-13.1-5.8a156.72,156.72,0,0,1-19-10.94C631.07,465.17,631.24,467.63,631.07,470.38Z"/><path class="cls-3" d="M146.37,306.41c6.43,2,12.86,1.47,19.3,0,4.69-3.43,10.39-4.67,15.53-7.11,9.13-6.89,8.53-16.59-1.22-22.85-10.28-6.6-21.65-6.6-33.16-5.93-1.55.09-2.95.42-4.39-.5-17.67-11.25-35.89-9.69-54.46-2.51-6.75,2.61-12.62,6.77-19,10-.4-7.27-.95-14.59.68-21.76,3.72-16.31,14.37-27.66,27.49-37,19.34-13.71,41.18-21,64.44-24.7a213.5,213.5,0,0,1,92.68,4.7,30.56,30.56,0,0,0,3,.53c5,0,9.32,2.21,13.67,4.11,16.31,7.15,31.6,15.79,42.67,30.31,3.44,4.52,6.42,9.29,7.64,14.94,1,7.3,2.92,14.5,2,22-5.35,24-22.12,38.12-42.54,48.81-19.87,10.4-41.26,15.72-63.56,17.94a226.17,226.17,0,0,1-65.69-3.26c-16.24-.44-30.38-7.42-44.33-14.64A88.91,88.91,0,0,1,82,300.12c-1.75-1.94-4.27-3.77-2.68-7.05,12-8,24.7-13.94,39.74-12.5,3.42.33,5.78-.05,4,5.09-2.19,6.25,1.22,11.17,6.69,14.56A177.19,177.19,0,0,1,146.37,306.41Z"/><path class="cls-1" d="M786.81,764.78q-49.89,29-99.79,58-59.65,34.68-119.29,69.38c-3.84,2.24-7.79,4.3-11.68,6.45-2.18-.27-1.17-1.73-.74-2.52,9-16.5,5-32.66-1-48.85-.84-2.26-3.38-4.79-.29-7.34q32.22-18.68,64.44-37.34Q707.13,751.24,795.86,700q52.49-30.3,105-60.5c1.35-.78,2.59-1.68,4.24-1.54,6.58,13.88,10.26,28.23,7.37,43.71-1.58,8.43-6.08,14.13-13.76,18.51-37.15,21.16-74,42.83-111,64.31A4.8,4.8,0,0,1,786.81,764.78Z"/><path class="cls-3" d="M367.58,205.49c0,3.43-.17,6.87.11,10.28.32,3.91-.82,5.6-5.1,5.33-5.8-.36-11.65.08-17.47-.15-3.46-.14-4.33,1.21-4.38,4.48-.05,4,1.18,8.17-.84,12.06-2.3-2.47-1.22-5.53-1.35-8.34-.24-5-.39-5.15-4.85-2.52-3.39,2-6.69,4.16-10.19,6-2.81,1.46-5.09,1.23-7.23-1.36-12.87-15.56-30-24.64-48.54-31.42-1.93-.71-4.55-.6-5.18-3.4,12.42-7.46,24.79-15,37.26-22.35q28.46-16.8,57-33.42L426.23,100c3.83-2.25,8-4,11.38-6.87,7-6,14.81-4.59,22.74-3.45,8.91,1.28,17.85,2.43,26.77,3.64-.68,3.43-4,4-6.3,5.4-30.12,17.81-60.35,35.42-90.52,53.15q-44.81,26.32-89.64,52.59c-1.43.83-3.16,1.37-4,3,5.71,4.9,6.17,4.94,11.95,1.53,59.39-35,119-69.74,178.36-104.76,5.5-3.25,5.84-3.15,7.39,1.39-1.51,9-4.06,17.67-6.11,26.5-1.39,6-8.27,10.58-15.76,10.9-6,.26-12,.15-18,.06-3.67-.06-5.29,1.33-5.2,5.13.07,3,.75,6.22-1.45,8.89l0-.06c-3.19,2.46-6.92,1.38-10.44,1.54-3.76.17-7.54,0-11.31.06-3.06,0-4.29,1.28-3.88,4.46s1,6.49-.87,9.51c-2.88,2.07-6.21,1.28-9.38,1.43-1.86.09-3.73,0-5.6,0-10.83,0-11,0-11.47,10.88-.15,3.34-2,4.33-4.63,5.06-5.4.94-10.87.56-16.29.44-4.35-.1-6.44,1.44-6,5.89-.09,1.37-.11,2.73-.12,4.1,0,3.58-1.9,5.29-5.38,5.45-5.29.24-10.59,0-15.88.15-4.78.16-5.24,1-5.4,6.52-.11,4.05,1.22,6,5.57,5.81s8.54-.2,12.8,0c4,.17,5.32-1.67,5.43-5.5C365.19,210.36,363.77,207,367.58,205.49Z"/><path class="cls-7" d="M454.27,249c-12.27-3.13-15.29-13.33-17.44-23.7-2.42-11.65-2-23.53-1.06-35.35.12-1.54-.35-3.94,2.74-2.11,6.91,4.06,12.54.93,18.38-3.06,22.3-15.21,46.59-21,73.13-14A40.42,40.42,0,0,1,550.49,183c17,19.57,25.31,42.1,20.92,68.24a33.1,33.1,0,0,1-11.8,20.5c-1.69,1.4-3.52,3.14-5.71.61-4.25-5-2.23-10.55-1.19-15.9.58-3,2.49-5.59,3.7-8.41,1.31-3.06,2.54-6.42-.77-8.83s-6.81-1.61-9.9.87-4.9,5.65-7.25,8.57c-4.24,5.27-6.85,5.41-11.61.51a23.6,23.6,0,0,0-4.81-3.77c-6.31-3.77-13.38-4.15-20.34-4a93.41,93.41,0,0,0-31.48,6.49C464.9,250,459.69,250,454.27,249Z"/><path class="cls-8" d="M523.17,244.63a12.15,12.15,0,0,1,4.38,3.44c4.83,5.08,5.73,5,10.17-.63,2-2.56,3.88-5.24,6.1-7.59,3.8-4,9.45-4.91,12.87-2,4.25,3.57,2.72,7.74.5,11.57-4.2,7.27-6.25,14.73-3.29,23l-11.2,12.5a54.78,54.78,0,0,1-28.44,10.45c-3.41.27-4.41,1.83-4.28,4.9.14,3.4,0,6.8-.07,10.79,12.2-3.87,21.88-10.48,28.7-21.14,1-1.59,1.32-4,4-4l.12,7.33a4.86,4.86,0,0,0,2.44,5.54,31.39,31.39,0,0,1,10.75,11.52c5.79,10.71,2.8,22.07-7.49,28.54-17.18,10.81-46.26,3.32-56-14.42-5.52-10.08-3.16-20.88,6-27.81,1-.77,2.56-1,3-3.05-10.18-1.71-18.82-6.63-26.76-12.92-6.68-7.19-12.13-15.08-14.64-24.75a13.77,13.77,0,0,1-.77-5c4.86,1.18,9.07,4,14.54,3.91,14.56-.15,28-4.62,41.42-9.33C517.86,244.51,520.37,243.28,523.17,244.63Z"/><path class="cls-7" d="M427.4,928.5c4.26,1.3,6.22,4.74,7.93,8.44,4,10.89,1.63,20.54-4.68,30.07-8.81,13.3-17.76,26.42-28.28,38.44-5.17,5.91-11.31,9.87-19.26,10.66l-5.25,0c-8.68-2.3-12.29-7-12.27-16.89,0-13.58,4.59-26.09,9.78-38.41,4.31-10.25,10-19.74,16-29,2.91.34,2.34,2.93,2.75,4.64,2.91,12.29,12.42,17.54,24.6,13.45,5.23-1.76,7.38-5.05,7.43-10.94C426.19,935.39,424.86,931.7,427.4,928.5Z"/><path class="cls-6" d="M493.34,104.64c-.86-3.57-2.45-1-3.6-.33q-28,16.27-55.86,32.64-46.49,27.28-92.95,54.63c-9.88,5.81-20.2,11-29.52,17.61-6.91,4.89-12,3.37-17.93-1.8,8-4.79,15.82-9.54,23.7-14.17q38.51-22.65,77-45.23Q440.08,121.14,486,94.32a8.85,8.85,0,0,0,1.17-1,4.51,4.51,0,0,1,.52,0c8.62.79,8.75.8,8.56,9.09-.08,3.17,1.12,6.5-.8,9.52-2.77-3-.44-6.21-.6-8.82.45-1.14-.71-.67-.06-.46.09,0,0,.17,0,.44C494.7,104.05,494.46,104.73,493.34,104.64Z"/><path class="cls-9" d="M493.34,104.64l2.06-4.2V112c-2.95,12.58-5.4,25.3-9.07,37.67-1.49,5-7,7.24-12.33,7.42-8.69.31-17.39.11-26.09.12a92.94,92.94,0,0,0-.14-9.74c-.5-4.33.63-6.23,5.43-5.93,6.31.39,12.66.07,19,0,7.84-.05,13.39-4.4,15.24-12C489.44,121.24,491.38,112.94,493.34,104.64Z"/><path class="cls-9" d="M262.56,196.42c11.65,4.47,23.33,8.84,33.86,15.73,7.79,5.09,15.08,10.78,20.68,18.26,1.91,2.56,3.36,2.63,5.84,1.1,5.21-3.23,10.57-6.21,16.4-9.61.91,5.51.5,10.57.56,15.59L321.24,248.7c-3.47-4.61-5.3-10.18-9-14.72-13.07-16-30.54-25.22-49.4-32.33-1.89-.7-4-.84-5.58-2.31Z"/><path class="cls-10" d="M523.17,244.63c-9.8,2.3-18.92,6.75-28.82,8.84a100.82,100.82,0,0,1-20.2,2.65c-5.78.05-10.81-.93-14.84-5.28-1.28-1.71-3.7-.36-5-1.89,6.06.37,11.71-1,17.44-3.06,13-4.58,26.26-7.35,40.15-5.41C515.94,241.06,519.9,241.88,523.17,244.63Z"/><path class="cls-11" d="M390.17,189c3.49-.57,3.56-2.81,3.41-5.79-.5-10.57-.37-10.58,10.24-10.58l17.46,0a11.43,11.43,0,0,1,12.3,0c-2.52,1.57-5.34.85-8,.7-3.7-.2-4.54,1.27-4.53,4.73C421.11,189,421,189,410.23,189a103.72,103.72,0,0,1-10.73-.08c-4.46-.45-5.49,1.42-5.32,5.52.13,3.25,1.07,6.72-.83,9.85-1.87-2-1.44-4.48-1.43-6.83C391.93,194.49,391.73,191.63,390.17,189Z"/><path class="cls-11" d="M367.58,205.49c-1.76,3.4-.69,7-.8,10.57-.08,2.67-.61,4.15-3.71,4.07-6.52-.16-13-.12-19.56,0-2.6,0-3.73-.85-3.7-3.53.17-14.74-2.31-11.7,11-12.07a92.63,92.63,0,0,1,10.8,0c4.05.36,5.76-1,5.09-5.13a16.76,16.76,0,0,1,.08-3.08c3.64,2.34,2.5,5.16.81,8C367.58,204.76,367.58,205.13,367.58,205.49Z"/><path class="cls-10" d="M542.62,285.86c-5,9.13-11.68,16.58-21,21.66a59.15,59.15,0,0,1-13,5.09c0-5.13,0-10,0-14.86,0-2.13.31-3.61,3-3.67a53.43,53.43,0,0,0,28.8-9.13c.65-.43,1.46-1,2.24-.08A4.73,4.73,0,0,1,542.62,285.86Z"/><path class="cls-9" d="M433.58,172.62h-12.3c-.55-3.88.1-7.83-.94-11.69-.78-2.9.69-3.89,3.59-3.84,8,.12,16,0,24,0,0,.51,0,1,0,1.53-.38,4.51,2.12,10.37-1,13.18S438.14,172.48,433.58,172.62Z"/><path class="cls-1" d="M367.57,204.4c-.31-2.68.89-5.51-.81-8-.42-7.36-.42-7.37,6.58-7.37l16.83,0c2.47-.16,3.28,1.08,3.21,3.43-.12,3.94,0,7.88,0,11.81Z"/><path class="cls-6" d="M283.28,513.42c2.9-5.66,2.9-5.66,10.15-2.07,4.54.28,7.84,3.31,11.49,5.42q57.61,33.29,115.21,66.63c6.89,4,10.52,9.92,10.56,17.62.22,33.4.15,66.81.06,100.22a40.58,40.58,0,0,1-.68,5.6,5.37,5.37,0,0,1-4.17,3.77c-3.24,0-5.9-1.6-8.56-3.15-6.95-4.05-14-7.89-20.87-12.11-2.49-1.53-5-2.54-7.43,0-11.14,11.52-21.8,23.26-23.82,40.28-1.2,10.06,1.06,19.77,2.24,29.59,1.61,13.24,3.41,26.46,5.15,39.69a5.51,5.51,0,0,1-.52,4c-5.21,1.37-8.06-2.4-11.35-5.23a146.61,146.61,0,0,1-1.58-23c.27-19.72-1.53-39.37-1.27-59.07A22.49,22.49,0,0,1,362,708.17a163,163,0,0,1,14.66-17.86c3.82-4,3.84-4.23-.91-6.93-16.23-9.23-32.32-18.71-48.53-28-11.6-7.18-23.56-13.74-35.33-20.64-6.89-4-10.3-9.83-10-17.65.21-5.73-1.27-11.6,1.21-17.17Z"/><path class="cls-10" d="M371.63,809c-1.89-14.5-3.9-29-5.62-43.5-1.47-12.45-4.44-24.83-.63-37.49a61,61,0,0,1,10.56-20.31c3.67-4.7,8.16-8.74,12-13.33,2.52-3,4.82-2.92,7.92-1,7.29,4.45,14.75,8.61,22.08,13a41.47,41.47,0,0,0,8.42,3.69c2.14-.55,3.77.8,5.58,1.48,4.22,2.38,8.31,1.35,12.35-.5,18.69-10.41,37.07-21.32,55.61-32,10.23-5.89,20.5-11.71,30.68-17.68,7.39-4.33,8.44-6.19,7.24-15,.14-2.89-1.28-4.7-3.72-6.15-3.67-2.18-7.56-4-11-6.52-1.14-.83-3.58-1.59-1.13-3.68,8.48-1,17-1.21,25.52-2.31,11.43-1.48,22.61-3.88,33.17-8.67,1.38-.63,2.81-1.38,4.41-.62-1.08,8.14-4.53,15.46-7.87,22.83-.9,2-1.72,4-2.57,6-.37,3.6-2.8,6.15-4.63,9-9.48,14.76-22.85,25.11-37.82,33.85-18.76,10.94-37.32,22.24-55.89,33.51-14.13,8.31-27.93,17.19-42.17,25.3-5.29,3-7.38,6.65-6.26,12.43-.38,21.38,1.78,42.7,1.15,64.07a74.45,74.45,0,0,0,.77,9.19c.27,2.87.71,5.83-1.33,8.36.36,22.09.65,44.18,1.1,66.26.11,5.2-.3,10.24-2.24,15.09-1,3.5-3.55,5.63-6.61,7.38-5.68,3.26-11.93,4-18.23,4a13.33,13.33,0,0,1-11.06-5.41c-4.89-5-5.42-11.54-6.23-18-.27-2.18-.72-4.35-1.09-6.53-3.06-7.06-2.95-14.7-3.95-22.11-3.1-22.89-6.27-45.78-9-68.71C370.87,812.92,370.24,810.83,371.63,809Z"/><path class="cls-10" d="M327.35,654.3C340,660.46,351.73,668.15,364,675c6.22,3.51,12.38,7.13,18.9,10.89-7.85,8-15.1,15.94-21,25a15.36,15.36,0,0,0-2.54,8.66c-.19,21.43,1.41,42.82,1.38,64.25,0,6.6.52,13.31.83,20a9.82,9.82,0,0,1,1.46,5.38c-.45,12.51,1.51,24.93,1.14,37.45a164.75,164.75,0,0,0,.75,24.11c.82,7,.27,14.05-3.67,20.34-4.84,8.92-22.46,14-34.6,8.22-1.58-.35-1.74-1.77-2.22-3-6.68-8.52-5.34-19.08-7.28-28.8-3.46-6.56-3.12-13.9-4.08-20.94-1.84-13.51-3.75-27-5.38-40.55-.33-2.8-1.31-5.71.15-8.52l-3.21-26.66c-3.73-5.94-3.09-12.85-4-19.34-1.72-12-3.19-24.08-4.73-36.12a52.27,52.27,0,0,1,5.4-31.3c5.3-10.95,14.62-18.71,22.21-27.84C324.39,655.16,325.56,654,327.35,654.3Z"/><path class="cls-6" d="M302.7,683.3c-1.88,5.65-4.13,11.1-5.32,17.05-1.88,9.41.58,18.39,1.43,27.49,1.23,13.06,3.3,26,5,39,.17,1.35.49,2.68.74,4-23.48-13.66-46.89-27.43-70.47-40.93-13.78-7.9-22.15-20.1-28-34.29-5.44-13.3-8.56-27-4.28-41.39,2.21-7.45,6.41-13.18,14.37-15.31,5.62-2.37,10.87-.78,15.72,2,22.53,12.77,44.81,26,67.34,38.74C300.79,680.54,302.34,681.37,302.7,683.3Z"/><path class="cls-3" d="M302.7,683.3l-58.65-33.95c-3.11-1.8-6.46-3.26-9.37-5.33a28.32,28.32,0,0,0-18.44-5c11.67-8.11,24.41-14.42,36.55-21.73,10-6,20.18-11.57,30.28-17.33,0,6.16,0,12.33.12,18.49.11,6.48,2.83,11.4,8.6,14.68,11.15,6.33,22.21,12.81,33.29,19.26a15.49,15.49,0,0,1,2.27,2C318.62,663.53,309.5,672.43,302.7,683.3Z"/><path class="cls-7" d="M324.38,896.37c1.36.07,1.07,1.6,1.9,2.14,1.57,1.17,1.46,3,1.78,4.63,1.19,6,4.73,9.59,10.8,10.77a33.63,33.63,0,0,0,7.61.73c9.86-.33,14.56-5.87,13.3-15.68-.28-2.16-1.13-4.35.24-6.45,4.37-.75,6.05.42,7.44,5.19,5.09,11.63,3.84,22.31-3.37,33-9.79,14.48-19.36,29.07-31.56,41.72-4.41,4.57-9.91,6.69-16,7.38-11.82,1.36-18.72-6.3-17.69-19.28,1.19-14.9,6.24-28.66,12.59-42A141.83,141.83,0,0,1,324.38,896.37Z"/><path class="cls-4" d="M307.79,797.56c1.39,9.55,2.84,19.1,4.16,28.66,1.71,12.42,3.32,24.85,4.95,37.27.17,1.35.14,2.72.2,4.08-10.81-6.25-21.6-12.56-32.46-18.74-8.1-4.61-14.17-10.47-12.75-20.77,1-7.55,6.12-12.73,12-16.65C291.49,806.29,299.78,802.13,307.79,797.56Z"/><path class="cls-4" d="M367.45,897.7c-2-2.14-3.5-4.94-6.92-5.18-.7-.11-.79-.73-1-1.22,4.25-6.38,4.65-13.66,3.8-20.78-1.34-11.3-.4-22.59-.89-33.87-.48-10.94-1.43-21.86-.9-32.82,3.61,1.23,6.25,4.38,10.11,5.12,2.44,18.75,4.85,37.5,7.36,56.24,1.53,11.48,3.27,22.93,4.84,34.4.27,2,.15,4.1.22,6.15-4.38-2.47-8.73-5-13.13-7.41C369.87,897.75,368.9,896.26,367.45,897.7Z"/><path class="cls-12" d="M391.37,930.25c10.08,7.68,28.82,3.91,35.9-6,0,1.41.08,2.82.13,4.23,0,3.25,0,6.51.12,9.76.29,8.08-3.23,12.52-11.22,13.72a31.09,31.09,0,0,1-15.15-1.67c-5-1.77-6.86-5.72-7.83-10.5-.55-2.71.13-5.74-1.94-8.08C391.37,931.23,391.37,930.74,391.37,930.25Z"/><path class="cls-6" d="M144.29,354.69c-21.31-5-40.77-13.9-57-28.76a58,58,0,0,1-15.1-21.76c-.55-1.42-.76-3-2.15-3.95l9.28-7.15c1.8,6.61,7.31,10.25,12.1,14.14,17.32,14.08,37.26,22.58,59.23,26.36.3.05.54.39.81.59-3.38.86-2.81,3.67-3.2,6.16C147.46,345.24,147.79,350.5,144.29,354.69Z"/><path class="cls-4" d="M59.66,452.58c11.92-29.39,36.46-42.87,64.87-51.47C108.72,425.59,89.3,445.53,59.66,452.58Z"/><path class="cls-13" d="M181.2,299.31c-4.26,4.39-10,5.55-15.53,7.11-1-3.4-1.83-6.88-3.11-10.17s.26-3.59,2.72-3.14C171,294.14,176.47,295.78,181.2,299.31Z"/><path class="cls-13" d="M146.37,306.41c-6.3-.08-11.7-2.54-16.66-6.19C142,291.7,142.68,293.24,146.37,306.41Z"/><path class="cls-6" d="M428.41,842.92c-1.27-15.51-.44-31.09-1.32-46.59-.7-12.3-.53-24.58-.74-36.86,3.71-2.27,7.07-1.17,10.3,1.08,31.52,18.18,63.1,36.26,94.51,54.62,8.27,4.83,13.94,12.43,18.77,20.61,1,1.7,1.37,4.05,4.06,4.08-1.06,3.31,1.27,5.78,2.24,8.54,4.56,12.93,7.87,25.88,4.07,39.73-1,3.72-4,6.49-4.25,10.44-8.24,7.47-17.23,7.41-26.37,2.16-27.8-16-55.44-32.27-83.32-48.11C440.47,849.27,435.11,844.82,428.41,842.92Z"/><path class="cls-5" d="M585,618.37c-18.35,9.46-38.26,11.48-58.44,12.26l-5.6.23c-1.15,1-2.27.43-3.3-.15-10.33-5.85-20.63-11.76-30.81-17.89a4.33,4.33,0,0,1-1.37-1.48c-1.29-5.09,2.73-7,5.81-9.2,13.2-9.54,26.31-19.21,39.53-28.72,18.93-13.62,37.71-27.44,56.69-41,1.6-1.15,3.39-3.46,5.28-2.39s.72,3.78.74,5.75a87,87,0,0,1-.14,11.3,429.7,429.7,0,0,0,.72,50.63C594.84,606.66,592.48,613.42,585,618.37Z"/><path class="cls-8" d="M593.42,547.09V529.68c-9.34,6.76-17.74,12.82-26.13,18.9q-38.44,27.87-76.9,55.76c-2.37,1.73-4.89,3.32-4.6,6.82-1,4.56-4.06,7.81-7.55,10.5A99.45,99.45,0,0,1,455,635.32c-5.06-.6-9.59-2.11-12.09-7.08-1.75-3.92-.63-7.28,2.17-10.2,2.58-2.69,5.12-5.41,7.93-7.81l.7-.59a13.83,13.83,0,0,0-1.48.36c-4.38-.44-4.31-2.86-2.17-5.56a23,23,0,0,1,11.45-7.4c5.17,2.2,9.5-.34,13.33-3.06,9.22-6.56,17-14.84,25.4-22.39,18.83-17,37.37-34.23,56.25-51.13,5.52-4.93,8.47-10.39,8-17.91-.38-6.31-.09-12.67-.06-19,0-1.43-.45-3.44,2.2-2.78,13.12,3.31,26.19,1.58,39.26-.34a9.91,9.91,0,0,1,1.54,0c-1.34,11.66-2.58,23.34-4.06,35-.46,3.58-1.73,7.15-4.75,9.41-4,3-4.95,6.87-4.7,11.64C594.13,540,594.76,543.62,593.42,547.09Z"/><path class="cls-6" d="M475.68,722.6c18.1-11,36-22.41,54.39-32.8,17.82-10,32.66-22.8,43-40.59a19.48,19.48,0,0,1,1.55-2c5.44,4.54,6.14,7.47,3.37,13.81-4.26,9.76-12.81,15.49-20.84,21.47-20.33,15.14-42.2,27.94-63.86,41-4.4.91-7.94,3.85-12.21,5.08-1.79.51-3.73,1.61-5.3.08C473.89,726.86,474.36,724.65,475.68,722.6Z"/><path class="cls-14" d="M475.68,722.6c.16,6.42.08,6.16,5.93,4.3,3.84-1.22,7.16-4.4,11.65-3.39q-26.06,16.86-52.09,33.75c-1.56,1-3,2.19-4.52,3.29l-10.3-1.08c-1-5.25,1.1-8.21,5.87-10.91C446.91,740.27,461.22,731.3,475.68,722.6Z"/><path class="cls-8" d="M392.33,536.08c-.69-16.89-2.38-33.69-3.86-50.52-1.88-21.25-3.78-42.53,2.23-63.51,1.21-4.21.66-8.81,2.84-12.8,8.23,7.13,16.32,14.47,26.46,18.95,3.76,1,7.57,1.93,10.39,4.92,1.47,2.43-.15,4.27-1.17,6.23a46.5,46.5,0,0,1-3.46,9.58c-4.15,8.15-4.41,17.18-4.88,26-.42,8-1.68,15.9-2.33,23.86-1.25,2.36-.67,5.08-1.45,7.53-.93,15.38-1.62,30.78-2.9,46.13-.59,7.06,0,13.58,3.81,19.65.81,1.35,2,2.61,1.1,4.38-.3.17-.67.44-.93.34-9.12-3.56-17.83-7.82-24.83-14.92-1-7.27-1.52-14.57-1.87-21.89A5.91,5.91,0,0,1,392.33,536.08Z"/><path class="cls-3" d="M418.94,576.38l-.93-4.31,43.52,25c-2.83,3.62-7.89,4.25-10.6,8.11-2.09,3-1.63,4.25,2.1,4,1.07-.32,1.35.13,1.09,1.11-2.33,2.48-4.52,5.12-7,7.4-3.2,2.91-4.55,6.22-3.38,10.44-4.18.52-6.7-2-9-4.92-1.3-7.3-.67-14.67-.52-22,.17-9-2.41-16.08-11-20.18C421.32,580.1,419,579.16,418.94,576.38Z"/><path class="cls-7" d="M560.16,389.13q0,42.45,0,84.89c0,3.3-1,3.44-3.51,1.71-4.66-3.17-6.69-7.52-6.81-13-.27-12,1.67-23.81,3.23-35.63,1.69-12.77,4.11-25.44,6.21-38.16Z"/><path class="cls-7" d="M430.39,433.12c-3.72-1.09-7.34-2.41-10.39-4.92q7.77-29.37,15.56-58.74a92.94,92.94,0,0,1,4.08-12.53c-.74,7.92-1.42,15.85-2.23,23.76-.9,8.78-2,17.55-2.86,26.33-.78,7.78-1.43,15.57-2.13,23.35A3.3,3.3,0,0,1,430.39,433.12Z"/><path class="cls-15" d="M418.07,499c1.22-15.84.06-31.94,5.05-47.36a45,45,0,0,1,6.1-12.25c.32,10.13-2.47,19.84-4.12,29.69-1.69,10-4.12,20-6.23,30C418.58,499.52,418.31,499.48,418.07,499Z"/><path class="cls-16" d="M384,387.76c-1.81-4.07-1.5-8.56-.58-12.45.8-3.41,4.36-2.4,7-.81Z"/><path class="cls-17" d="M418.07,499a3.55,3.55,0,0,1,.8,0c-.57,2.44-.42,5.05-1.77,7.29C417.05,503.8,416.65,501.25,418.07,499Z"/><path class="cls-1" d="M418.94,576.38c1.91,2.34,4.71,3.48,7.23,4.75,6.91,3.46,9.17,9.35,9.29,16.43.16,8.73.1,17.47.14,26.21,1.74,2.38,1.59,5.15,1.59,7.87q0,24.58,0,49.16a36.81,36.81,0,0,0,.68,8.64c-.63,4.39-.63,8.88-1.86,13.19a9,9,0,0,1-5.14,4.74,1.6,1.6,0,0,1-1.47-.32c-1.4-2.61.07-5.24.06-7.85-.14-32.21-.1-64.42-.09-96.63,0-8.42-3.42-14.33-11.06-18.64-22.61-12.74-44.9-26.06-67.35-39.09-18.47-10.71-37-21.32-55.5-32a22.22,22.22,0,0,1-2-1.51c1.37-1.83,4.16-1.8,5.24-4q34.56,20,69.12,40a21,21,0,0,0,2.82,1.13,79.9,79.9,0,0,1,23.75,14.13C402.58,567.16,410.29,572.62,418.94,576.38Z"/><path class="cls-14" d="M83.34,259.06c3.23-17.84,15.06-29.21,29.5-38.27,20.15-12.64,42.55-18.3,66-20.52,29-2.75,57.1.44,84.07,11.51,16.25,6.67,30.83,15.84,40.13,31.48,4,6.75,6.33,14,5.78,22.42-.53-.59-.95-.85-1-1.18-4.47-19.58-18.23-31.29-34.79-40.28-19.09-10.36-39.78-15.08-61.39-16.88-26-2.17-51.29.55-75.77,9.45-18.78,6.83-35.9,16.28-47,34A36,36,0,0,0,84.35,261C82.53,261.14,82.79,260.17,83.34,259.06Z"/><path class="cls-18" d="M83.34,259.06c.14.75.16,1.57,1,2l-1.08,4.23C82.49,263.1,81.7,261,83.34,259.06Z"/><path class="cls-19" d="M429.4,707.05c.32,0,.65-.08,1-.11,3.11,1.26,2.4,3.24,1,5.36L426.34,710Z"/><path class="cls-3" d="M434.71,702.74c1.06-2.42.79-5,.64-7.47a4.57,4.57,0,0,1,2.32-4.57c5.42-4.81,12.12-7.55,18.28-11.12,9.32-5.4,18.74-10.66,28.17-15.86a25.43,25.43,0,0,0,3.44-2.25c3.42-2.71,3.45-4.2-.35-6.47q-13-7.79-26.15-15.26c-2.32-1.32-5.09-2.2-6.19-5.06,3.45-1.95,6.89-3.93,10.35-5.87,8-4.49,15.53-9.64,20.58-17.65L521,630.86c4.74,2.85,9.4,5.86,14.25,8.52,2.9,1.59,4.4,3.52,3.42,6.87.24,2.64-1.92,3.5-3.6,4.47C504.8,668.1,474.72,685.82,444.3,703,441.08,703.87,437.84,705.4,434.71,702.74Z"/><path class="cls-14" d="M444.73,701.73q23.67-13.82,47.36-27.63c14-8.16,28.15-16.21,42.19-24.38a38.76,38.76,0,0,0,4.38-3.47c2.17,7.94.62,11.55-5.92,15.31q-41.26,23.73-82.45,47.62c-1.77,1-3.62,1.91-5.43,2.86C442.54,708.63,442.79,705.19,444.73,701.73Z"/><path class="cls-20" d="M444.73,701.73q.06,5.16.13,10.31c-4.45,2-8.9,3.79-13.45.26-.18-1.82.74-3.85-1-5.36,1.4-1.44,3.51-2.16,4.33-4.2C438.15,703.4,441.42,702.41,444.73,701.73Z"/><path class="cls-12" d="M359.51,891.3l1,1.22c.13,2.89.25,5.78.41,8.67.48,9-3.45,13.71-12.38,14.75a29.35,29.35,0,0,1-14.51-2.1c-6.88-2.82-7.52-9-7.77-15.32,6.17,1.18,12.21,2.74,18.7,1.22C350.84,898.37,355.87,896.18,359.51,891.3Z"/><path class="cls-12" d="M491.21,834.59c0,8.26-2.42,10-7.55,7.17-11.48-6.39-22.9-12.91-34.14-19.72a13.6,13.6,0,0,1-6.72-13.49c.37-4.21,3-5.91,6.68-3.83q18,10.23,35.81,20.87A12,12,0,0,1,491.21,834.59Z"/><path class="cls-7" d="M454.87,634.68c11.22,6.52,22.44,13,33.63,19.56,4.51,2.65,4.91,5.54.62,7.94C472,671.74,455.28,682,437.67,690.7c-2.48,0-2.52-1.62-2.51-3.45q.24-31.74.44-63.48l8.11,4.3C446.11,632.51,450.92,632.88,454.87,634.68Z"/><path class="cls-21" d="M454.12,610.23,453,609.12a4.21,4.21,0,0,1,3.39-1.63C456.4,609.12,455.15,609.58,454.12,610.23Z"/><path class="cls-3" d="M394.36,562.63c-8-4.65-16.17-8.85-23.75-14.13l21.72-12.42A218.29,218.29,0,0,1,394.36,562.63Z"/><path class="cls-22" d="M765.37,266.41c-22.86,6.07-43.5,1.18-61.9-13.17-16.06-12.52-24.37-29.5-26.73-49.54a4.92,4.92,0,0,0-.06-6.51c.75-34.82,24.24-63.1,58.39-69.37a65.53,65.53,0,0,1,29.3.85c.48,2.93-1.82,4.43-3.36,6.21-16.15,18.65-24.14,40.32-23.45,65,.57,20.77,8,39.16,20.7,55.51C761,258.79,765,261.45,765.37,266.41Z"/><path class="cls-23" d="M765.53,128.39a89.34,89.34,0,0,1,52.64-25.49c27.08-3.49,51.52,3.48,72.84,20.73C909,138.14,920.17,157,924.14,179.5c5.83,33.21-3.54,62.35-27.64,85.78-35,34-89.82,35.17-127.11,3.67-.93-.79-1.9-1.55-2.85-2.32,1.63-2.54,4.55-2.72,7-3.85a5,5,0,0,1,3.68-.12c11.94,8.63,24.7,15.36,39.5,17.65,44.71,6.9,83.79-20.13,95.44-59.72,14.41-49-17.68-97.86-65.22-106.83-26.4-5-49.95,1.62-70.75,18.45-1.2.78-2.44.46-3.68.12C770.09,131.15,766.76,131.6,765.53,128.39Z"/><path class="cls-24" d="M765.53,128.39l7.45,2.7c1.77,3.62-1.39,5.2-3.19,7.12-15.35,16.4-23.72,35.6-23.66,58.24.06,23,8.31,42.69,23.81,59.54,2,2.21,5.7,3.84,4,8l-7.43,2.62a6.53,6.53,0,0,1-1.17-.22C752.22,252,741.84,235.93,738,216.47c-5.75-28.89.18-55.15,18.59-78.37,2.54-3.2,5.21-6.29,7.82-9.43A9.33,9.33,0,0,1,765.53,128.39Z"/><path class="cls-25" d="M637.05,234.4c4.3,0,8.62-.11,12.92,0,4.63.17,7-2.09,7.09-6.52.19-7.79.16-15.59.18-23.38,0-3.14-1.33-5.63-4.26-6.89-3.13-1.34-5.5.32-7.62,2.47-10.81,11-21.68,21.83-32.42,32.84a22.09,22.09,0,0,1-12.08,6.84c-6.74,1.22-11.47-2.27-11.64-9.09-.23-8.82-.13-17.64,0-26.46.09-5,2.79-8.58,7.26-10.52,4.63-2,8.87-.75,12.41,2.69,4.55,4.44,9.11,8.88,13.44,13.54,2.24,2.42,3.68,2.22,5.85-.12,4.46-4.81,9.21-9.35,13.83-14,3.46-3.48,7.55-4.94,12.32-3.42a11.16,11.16,0,0,1,8.18,10.51,199.92,199.92,0,0,1-.16,25.79c-.63,7.74-4.38,10.84-12.12,11.09-8.81.28-17.63.09-26.45.07-1.83,0-3.75.17-3.84-2.66-.11-3.33,2.17-2.83,4.16-2.84C628.43,234.37,632.74,234.39,637.05,234.4Z"/><path class="cls-26" d="M606.65,175.16c-.06,3.9-.13,7.8-.17,11.7,0,1.76-.1,3.24-2.54,3.22s-2.68-1.35-2.64-3.18c.15-7-.42-14.06.6-20.91,1.66-11.23,13-19.63,24.55-19.13,11.7.51,22,9.56,23,21,.59,6.31.17,12.72.21,19.09,0,1.75-.11,3.23-2.54,3.23s-2.61-1.38-2.61-3.19c0-3.9,0-7.8,0-11.7-1.73-2.16-1.33-4.76-1.57-7.23s-1.82-4.24-3-6.26c-4.29-6.78-10.69-8.72-18.12-7.26-8.25,1.63-12.54,7.21-13.71,15.37A8.26,8.26,0,0,1,606.65,175.16Z"/><path class="cls-25" d="M640.87,161.49l3.83,5.11c-1.53,2.73.21,5.88-1.08,8.64-3.8,9.5-10.16,14.42-18.42,14.22s-14.58-5.23-17.62-14.3c-.77-2.07-.48-4.17-.18-6.28,1.33-2.62,3.85-3,6.27-2.84,5.69.3,10.71-1.28,15.7-3.95C632.87,160.22,636.88,158.6,640.87,161.49Z"/><path class="cls-27" d="M999.06,207.21c-1.74,1-3.45,1.27-5-.35a2.83,2.83,0,0,1,.12-4.36,3.28,3.28,0,0,1,4.93.26C1000.44,204.22,1000.17,205.72,999.06,207.21Z"/><path class="cls-28" d="M941.17,207.07a3.19,3.19,0,0,1-4.8,0,2.88,2.88,0,0,1,0-4.29,3.12,3.12,0,0,1,4.79,0A2.85,2.85,0,0,1,941.17,207.07Z"/><path class="cls-27" d="M1033.66,206.93c-1.44,1.14-3,1.43-4.45.18s-1.82-2.87-.57-4.33a3.19,3.19,0,0,1,4.89-.31C1035,203.81,1034.58,205.4,1033.66,206.93Z"/><path class="cls-29" d="M1021.69,202.1c1.87,1.87,1.86,3.43.51,4.73a3.14,3.14,0,0,1-4.82,0,2.77,2.77,0,0,1-.1-4.29A3.34,3.34,0,0,1,1021.69,202.1Z"/><path class="cls-30" d="M959.51,207.35c-1.59-2-1.31-3.64,0-4.8a3.23,3.23,0,0,1,4.9.34,2.86,2.86,0,0,1-.2,4.34A3.78,3.78,0,0,1,959.51,207.35Z"/><path class="cls-31" d="M952.42,207.27c-1.6,1.09-3.39,1.29-4.82-.34a2.86,2.86,0,0,1,.26-4.34,3.31,3.31,0,0,1,4.91.27C954.11,204.23,953.9,205.81,952.42,207.27Z"/><path class="cls-32" d="M982.76,207.19c-1.4-1.45-1.62-3-.37-4.39,1.42-1.59,3.2-1.57,4.81-.23,1.45,1.22,1.66,2.78.3,4.19A3.32,3.32,0,0,1,982.76,207.19Z"/><path class="cls-32" d="M975.54,207.28c-1.61,1.07-3.31,1.15-4.73-.45a2.75,2.75,0,0,1,.39-4.24A3.12,3.12,0,0,1,976,203C977.17,204.35,977.11,205.89,975.54,207.28Z"/><path class="cls-33" d="M1010.48,202.51c1.23,1.41,1.56,2.88.19,4.29a3.14,3.14,0,0,1-4.78.17,2.67,2.67,0,0,1-.19-4.2A3.25,3.25,0,0,1,1010.48,202.51Z"/><path class="cls-34" d="M676.68,197.19c2,.23,3.67.94,3.7,3.24s-1.69,3-3.64,3.27C672.69,201.56,672.82,199.39,676.68,197.19Z"/><path class="cls-35" d="M643.62,175.24c.14-2.91-1.15-6,1.08-8.65-.05,2.9-.11,5.79-.16,8.68l-.46-.07Z"/><path class="cls-36" d="M607.7,168.85l-.12,6.31-.46-.07-.47.07.11-6.44.51-.24Z"/><path class="cls-37" d="M721.12,203.64c-1.89,0-3.24-1-3.36-2.84-.14-2.2,1.26-3.37,3.43-3.34s3.54,1.18,3.35,3.41C724.37,202.76,723,203.61,721.12,203.64Z"/><path class="cls-38" d="M691.5,200.55c-.41,2.14-1.62,3.06-3.5,3-2.29-.09-3.39-1.43-3-3.63.3-1.92,1.73-2.71,3.62-2.48A3.09,3.09,0,0,1,691.5,200.55Z"/><path class="cls-38" d="M702.57,200.35c-.35,2.29-1.6,3.3-3.72,3.22a2.87,2.87,0,0,1-3-3.09,2.9,2.9,0,0,1,3-3.06A3.3,3.3,0,0,1,702.57,200.35Z"/><path class="cls-39" d="M710.54,203.59c-2.32,0-3.52-1.05-3.62-2.82-.11-2.08,1.09-3.36,3.31-3.33,1.85,0,3.13,1,3.26,2.83A2.89,2.89,0,0,1,710.54,203.59Z"/><path class="cls-22" d="M775.53,132.08c9.39,3.54,17,9.81,24.45,16.24a2,2,0,0,1,.36,1.8c-3.6,6.88-8.5,12.92-12.57,19.51-4.27,6.91-2.51,9.91,5.69,10.34s16.28-1.25,24.27,1.2a5.73,5.73,0,0,1,1.94,3c5.7,20.52-4.73,52.62-21.37,65.76a6.94,6.94,0,0,1-2.15,1.14,3.69,3.69,0,0,1-2.07-.31c-5.55-3.4-7-8.78-7.05-14.78-.08-13.52,0-27,0-40.57,0-2.19.15-4.41-.69-6.58-.76,4.38-.56,8.81-.58,13.21-.06,10.25.1,20.49-.13,30.73-.14,6.52.46,12.68,4.65,18a3.62,3.62,0,0,1,.88,3.43c-4.39,3.74-9.5,6.27-14.63,8.78L774,264c-1.84-6-7.47-9-11-13.69-27.12-36.08-24.56-82.27,6.73-114.26,1.41-1.43,3.29-2.59,3.28-5Z"/><path class="cls-13" d="M594.36,217.6q0-5.83,0-11.67c0-3.1,1.1-5.72,4-7.09,3-1.44,5.5,0,7.67,2.18q6.47,6.55,13,13c1.34,1.34,2.77,2.39.65,4.41-4.59,4.37-8.86,9.09-13.56,13.33-2.64,2.39-6.25,3.81-9.67,2.18-3.13-1.49-2-5-2.07-7.78S594.35,220.46,594.36,217.6Z"/><path class="cls-40" d="M607.7,168.85a2.49,2.49,0,0,0-.94-.13c3.61-14.94,18.23-21.25,29.85-12.82,1.92,1.39,4.19,2.7,4.26,5.59-5.6,0-10.91.85-15.49,4.52-2.59,2.07-5.8,1.43-8.83,1.52S610.4,166.74,607.7,168.85Z"/><path class="cls-13" d="M624.81,183.9a11,11,0,0,1-7.95-3.17c-2.09-1.93-4.68-4.36-3.65-7.18.78-2.16,4-.84,6.1-.78a16.82,16.82,0,0,0,11.3-3.81c2-1.51,4.94-2.58,6.85-1.16,2.31,1.72,1.28,4.86.43,7.36C636,180.68,631.12,184,624.81,183.9Z"/><path class="cls-25" d="M800,149.42a6.72,6.72,0,0,0,0-1.1c4.6-8.06,11.68-10.69,20.7-10.37,12.11.42,24.24.09,36.35.18,14,.1,20.93,6.94,20.93,20.73q0,39.13-.15,78.26c0,13.6-7.31,20.81-21,20.84-17.45,0-34.91,0-52.37-.1-4.32,0-8.61-.25-12-3.52-.64-2.29.68-3.24,2.6-3.79.4,0,.8,0,1.2,0,6.1-1.3,12.27-.43,18.4-.49,14.15-.13,28.31.1,42.46,0,9.63-.08,13.53-3.85,13.6-13.45q.27-38.46.14-76.92c0-9.94-4.37-14.16-14.36-14.31-11.07-.16-22.16.24-33.22-.21-7.33-.3-13.34,1.47-17.75,7.54a5,5,0,0,1-1.85,1C801.1,153.43,800.44,151.51,800,149.42Z"/><path class="cls-41" d="M795.06,250.55l-2.6,3.79-1.27-.08c-5.27-4.86-7.63-10.71-7.46-18,.36-15.59.11-31.19.25-46.78,0-1.92-1.34-5.14,2.3-5.26,4.2-.13,2.65,3.44,2.67,5.5.1,15,.21,30-.11,44.93C788.71,241,790.21,246.31,795.06,250.55Z"/><path class="cls-12" d="M803.76,153.23c3-7.37,8.42-10.3,16.43-10,12.7.44,25.43.09,38.14.21,9.26.09,14.41,5.28,14.42,14.6q0,40-.15,80c0,8.57-4.71,14.15-12.76,14.26-19.27.26-38.54.06-57.82,0-2,0-4.14-.12-5.76-1.7,10.59-10.71,18.69-22.92,21.39-38,1.85-10.32,2.19-20.77-.49-31.09a1.79,1.79,0,0,1,.15-1.84c3.56-3.32,4.79-7.48,4.44-12.24-.41-5.56.88-11.25-1.14-17.86-2.57,5.93-1.16,11.05-1.61,16-.31,3.38.91,7-1.81,10-.83.33-1.82.29-2.19-.44C811.27,167.78,806.22,161.17,803.76,153.23Z"/><path class="cls-42" d="M817.46,180.62a2.67,2.67,0,0,1-.3.86c-8.77,0-17.53.14-26.3,0-6.67-.09-9.56-4.58-6.13-10,4.77-7.55,9.36-15.26,15.23-22.06a5.17,5.17,0,0,1,2.93,4c.12,6.23-5.37,9.53-7.59,14.53-1,2.18-4.22,3.58-2.35,6.73,6.06.71,12.13-.09,18.14.43C814.33,175.35,818.38,175.3,817.46,180.62Z"/><path class="cls-43" d="M789.09,175.48c3.58-8,9.78-14.37,13.8-22.1a8.79,8.79,0,0,1,.87-.15c5.43,6.63,8.87,14.37,12.42,22.05C807.16,176.68,798.13,176.18,789.09,175.48Z"/><path class="cls-44" d="M789.09,175.48l27.09-.2c3-3.59,1.2-7.83,1.49-11.75.33-4.47.11-9,.14-13.47,0-2,.85-3,3-2.92,1.73,0,2.69.63,2.66,2.47-.1,8.16.07,16.33-.39,24.47a7,7,0,0,1-5.58,6.54c-.39-3.42-2.59-4.11-5.61-4-5.68.11-11.36.08-17,0C792.88,176.5,790.71,177.33,789.09,175.48Z"/><path class="cls-45" d="M852,194.21c3.06-1.41,5.08-1.88,4.83,2.95-.39,7.71-.27,15.45-.08,23.17.09,3.73-1,5.91-5,5.73-1.89-2.18-1.9-4.84-1.91-7.48,0-6.08-.08-12.16.07-18.23C849.9,198.1,850.12,195.87,852,194.21Z"/><path class="cls-46" d="M852,194.21l-.27,31.85c-4-.45-4.84-3.09-4.8-6.54.07-7.37.31-14.75,0-22.1C846.61,192.57,848.86,193.06,852,194.21Z"/><path class="cls-47" d="M858.1,183.51c-.47,3.79-2.6,6.72-7,6.59-4.17-.13-6.19-3.11-6-7.11.21-4.25,2.73-7.18,7-7.06C856.17,176,858.13,179,858.1,183.51Z"/><path class="cls-48" d="M19.53,737.52c-8.11-5.68-11.09-13.4-10.72-23.3.56-15.28.35-30.59.18-45.88-.13-11,4.1-19.55,14.29-23.9s19.32-1,27,6.71c8.44,8.5,17.21,16.71,25.36,25.48,4.4,4.73,7.4,5,11.9.09,8.69-9.41,18-18.2,27-27.39,7.57-7.8,16.45-11.48,26.86-7.3,10.69,4.3,15.54,13,15.47,24.52-.1,15.71.15,31.43-.4,47.12-.36,10-3.89,18.61-14.84,21.75-22.28,2.28-44.62.34-66.89.94-5.35-.55-5.46-4.29-4.62-8.17,1-4.42,4.75-5.52,8.56-5.85,11.56-1,23.17-.37,34.75-.38,29.57,0,29.59,0,29.61-29.24,0-7.86.35-15.73-.22-23.59-.37-5.09-1.55-10-6.75-12.42-5.47-2.5-9.7.62-13.3,4.13-13,12.72-26.63,24.9-38.23,39-8.19,9.95-17.8,18.47-26.67,27.73-5.82,6.07-13.73,7.12-20.92,10Z"/><path class="cls-12" d="M36.92,737.55c17.77-8.93,29.55-24.71,43.32-38.17,14.2-13.9,27.94-28.29,42-42.37,3.85-3.86,8.11-7.63,14.18-5.33,6.46,2.45,9.84,7.58,9.9,14.4.13,15.32.18,30.65-.19,46-.25,10.1-5.84,14.59-16.09,14.36-16.56-.38-33.14,0-49.7-.26-6.6-.11-10.76,1.15-8.57,9,.86.56,1.14,1.11.85,1.67s-.58.82-.87.82Z"/><path class="cls-49" d="M83,561.11a36.61,36.61,0,0,1,37.09,36.78c.16,21.19-16.6,38-37.56,37.68-20.28-.33-37-17.38-36.79-37.55A37.34,37.34,0,0,1,83,561.11Z"/><path class="cls-12" d="M19.55,691.33c0-7.84.15-15.68,0-23.51-.11-6.55,2.89-11.09,8.62-13.74,5.38-2.49,9.61.3,13.28,3.89,9.14,8.94,18.07,18.09,27.27,27,3.56,3.44,4.74,6.2.58,10.16-9,8.53-17.19,17.85-26.5,25.94-5.18,4.51-12,8.23-19.29,4.55-6.63-3.37-3.57-10.27-3.92-15.7C19.2,703.72,19.53,697.51,19.55,691.33Z"/><path class="cls-50" d="M109.4,598.21c0,14.86-12.27,27-26.92,26.62a26.46,26.46,0,0,1-25.7-26.55c0-14.78,12.4-27.09,26.86-26.7A26.86,26.86,0,0,1,109.4,598.21Z"/><path class="cls-48" d="M1059.87,231.09c-4-2.82-5.5-6.65-5.32-11.56.28-7.57.18-15.17.09-22.75-.07-5.48,2-9.69,7.09-11.85s9.58-.51,13.39,3.32c4.19,4.22,8.53,8.29,12.58,12.64,2.18,2.35,3.67,2.46,5.9,0,4.31-4.66,8.94-9,13.37-13.58,3.76-3.87,8.16-5.69,13.32-3.62,5.31,2.14,7.71,6.47,7.68,12.16,0,7.79.07,15.59-.2,23.37-.18,5-1.93,9.23-7.36,10.79-11.05,1.13-22.13.17-33.18.47-2.65-.28-2.7-2.13-2.29-4.06.48-2.19,2.36-2.74,4.25-2.9,5.73-.48,11.49-.18,17.23-.19,14.67,0,14.68,0,14.69-14.5,0-3.9.17-7.8-.11-11.7-.18-2.52-.77-5-3.35-6.16s-4.81.31-6.59,2.05c-6.46,6.31-13.21,12.35-19,19.34-4.06,4.93-8.82,9.16-13.22,13.75-2.89,3-6.81,3.53-10.38,5Z"/><path class="cls-12" d="M1068.49,231.11c8.82-4.43,14.66-12.26,21.48-18.94,7-6.89,13.86-14,20.82-21,1.91-1.91,4-3.78,7-2.64a7.22,7.22,0,0,1,4.91,7.14c.07,7.6.09,15.2-.09,22.8-.12,5-2.89,7.24-8,7.12-8.21-.19-16.43,0-24.65-.13-3.27,0-5.34.57-4.25,4.46.43.27.57.55.42.82s-.28.41-.43.41Z"/><path class="cls-49" d="M1091.33,143.6a18.47,18.47,0,1,1-.24,36.93,18.47,18.47,0,0,1,.24-36.93Z"/><path class="cls-12" d="M1059.88,208.18c0-3.89.07-7.77,0-11.66a6.85,6.85,0,0,1,4.28-6.81c2.67-1.24,4.76.15,6.58,1.93,4.54,4.43,9,9,13.53,13.37,1.77,1.7,2.35,3.07.29,5-4.44,4.23-8.53,8.85-13.14,12.86-2.57,2.24-6,4.08-9.57,2.26-3.29-1.67-1.77-5.09-1.95-7.79C1059.71,214.33,1059.87,211.25,1059.88,208.18Z"/><path class="cls-50" d="M1104.44,162a13.05,13.05,0,1,1-12.78-13.21A13.32,13.32,0,0,1,1104.44,162Z"/><path class="cls-27" d="M938.05,322.1c-2-.17-3.58-.9-3.94-3.12a2.82,2.82,0,0,1,2.56-3.52,3.29,3.29,0,0,1,3.93,3C940.88,320.41,939.8,321.49,938.05,322.1Z"/><path class="cls-28" d="M890.35,289.27a3.18,3.18,0,0,1-4-2.68,2.88,2.88,0,0,1,2.46-3.52,3.12,3.12,0,0,1,4,2.68A2.83,2.83,0,0,1,890.35,289.27Z"/><path class="cls-27" d="M966.75,341.42c-1.84.12-3.25-.5-3.77-2.37s.12-3.4,2-3.89a3.18,3.18,0,0,1,4.21,2.5C969.65,339.62,968.37,340.68,966.75,341.42Z"/><path class="cls-29" d="M959.6,330.67c.49,2.59-.4,3.88-2.25,4.19a3.14,3.14,0,0,1-4-2.72,2.77,2.77,0,0,1,2.34-3.59A3.34,3.34,0,0,1,959.6,330.67Z"/><path class="cls-30" d="M905.33,299.87c-.2-2.52,1-3.74,2.69-4a3.24,3.24,0,0,1,3.85,3.05,2.86,2.86,0,0,1-2.62,3.47A3.76,3.76,0,0,1,905.33,299.87Z"/><path class="cls-31" d="M899.52,295.8c-1.93,0-3.52-.85-3.78-3a2.86,2.86,0,0,1,2.67-3.44,3.32,3.32,0,0,1,3.9,3C902.63,294.25,901.57,295.43,899.52,295.8Z"/><path class="cls-32" d="M924.6,312.88c-.33-2,.36-3.39,2.18-3.84,2.07-.51,3.53.51,4.09,2.53.51,1.82-.19,3.23-2.11,3.63A3.33,3.33,0,0,1,924.6,312.88Z"/><path class="cls-32" d="M918.6,308.87c-1.94,0-3.38-.92-3.65-3a2.77,2.77,0,0,1,2.71-3.29,3.13,3.13,0,0,1,3.74,3C921.6,307.38,920.67,308.61,918.6,308.87Z"/><path class="cls-33" d="M950.11,324.68c.23,1.85-.33,3.25-2.25,3.64a3.15,3.15,0,0,1-4.05-2.55,2.67,2.67,0,0,1,2.22-3.58A3.24,3.24,0,0,1,950.11,324.68Z"/><path class="cls-27" d="M952.48,65.78c-1,1.73-2.33,2.85-4.49,2.23a2.82,2.82,0,0,1-2.09-3.82,3.27,3.27,0,0,1,4.38-2.27C952.17,62.5,952.69,63.94,952.48,65.78Z"/><path class="cls-28" d="M902.43,94.88a3.17,3.17,0,0,1-4.12,2.45,2.87,2.87,0,0,1-2.13-3.72,3.12,3.12,0,0,1,4.12-2.44A2.83,2.83,0,0,1,902.43,94.88Z"/><path class="cls-27" d="M982.22,48.08c-.68,1.71-1.84,2.73-3.76,2.4s-3-1.56-2.67-3.44a3.17,3.17,0,0,1,4.06-2.74C981.83,44.69,982.24,46.29,982.22,48.08Z"/><path class="cls-29" d="M969.44,50c2.56.67,3.33,2,2.83,3.82a3.15,3.15,0,0,1-4.16,2.45,2.78,2.78,0,0,1-2.25-3.65A3.35,3.35,0,0,1,969.44,50Z"/><path class="cls-30" d="M918.41,85.87c-2.36-.89-3-2.49-2.44-4.13a3.22,3.22,0,0,1,4.39-2.18,2.86,2.86,0,0,1,2,3.85A3.78,3.78,0,0,1,918.41,85.87Z"/><path class="cls-31" d="M912.25,89.38c-.83,1.75-2.27,2.82-4.33,2.14a2.86,2.86,0,0,1-2-3.88,3.33,3.33,0,0,1,4.38-2.25C912.18,85.91,912.79,87.37,912.25,89.38Z"/><path class="cls-32" d="M938.41,74c-1.95-.55-2.91-1.78-2.54-3.61.42-2.09,2-3,4-2.62,1.87.32,2.84,1.56,2.38,3.46A3.33,3.33,0,0,1,938.41,74Z"/><path class="cls-32" d="M932.22,77.72c-.85,1.73-2.28,2.66-4.31,2a2.75,2.75,0,0,1-1.81-3.85,3.12,3.12,0,0,1,4.31-2.09C932.15,74.37,932.86,75.73,932.22,77.72Z"/><path class="cls-33" d="M960,56c1.78.59,2.8,1.7,2.33,3.6a3.14,3.14,0,0,1-4,2.56A2.66,2.66,0,0,1,956,58.6,3.23,3.23,0,0,1,960,56Z"/><path class="cls-48" d="M1002.87,416.49c-4-2.82-5.5-6.65-5.32-11.56.28-7.57.18-15.17.09-22.75-.07-5.48,2-9.69,7.09-11.85s9.58-.51,13.39,3.32c4.19,4.22,8.53,8.29,12.58,12.64,2.18,2.35,3.67,2.46,5.9,0,4.31-4.66,8.94-9,13.37-13.58,3.76-3.87,8.16-5.69,13.32-3.62,5.31,2.14,7.71,6.47,7.68,12.16,0,7.79.07,15.59-.2,23.37-.18,5-1.93,9.23-7.36,10.79-11.05,1.13-22.13.17-33.18.47-2.65-.28-2.7-2.13-2.29-4.06.48-2.19,2.36-2.74,4.25-2.9,5.73-.48,11.49-.18,17.23-.19,14.67,0,14.68,0,14.69-14.5,0-3.9.17-7.8-.11-11.7-.18-2.52-.77-5-3.35-6.16s-4.81.31-6.59,2c-6.46,6.31-13.21,12.35-19,19.34-4.06,4.93-8.82,9.16-13.22,13.75-2.89,3-6.81,3.53-10.38,5Z"/><path class="cls-12" d="M1011.49,416.51c8.82-4.43,14.66-12.26,21.48-18.94,7-6.89,13.86-14,20.82-21,1.91-1.91,4-3.78,7-2.64a7.22,7.22,0,0,1,4.91,7.14c.07,7.6.09,15.2-.09,22.8-.12,5-2.89,7.24-8,7.12-8.21-.19-16.43,0-24.65-.13-3.27-.05-5.34.57-4.25,4.46.43.27.57.55.42.82s-.28.41-.43.41Z"/><path class="cls-49" d="M1034.33,329a18.47,18.47,0,1,1-.24,36.93,18.47,18.47,0,0,1,.24-36.93Z"/><path class="cls-12" d="M1002.88,393.58c0-3.89.07-7.77,0-11.66a6.85,6.85,0,0,1,4.28-6.81c2.67-1.24,4.76.15,6.58,1.93,4.54,4.43,9,9,13.53,13.37,1.77,1.7,2.35,3.07.29,5-4.44,4.23-8.53,8.85-13.14,12.86-2.57,2.24-6,4.08-9.57,2.26-3.29-1.67-1.77-5.09-2-7.79C1002.71,399.73,1002.87,396.65,1002.88,393.58Z"/><path class="cls-50" d="M1047.44,347.4a13.05,13.05,0,1,1-12.78-13.21A13.32,13.32,0,0,1,1047.44,347.4Z"/><path class="cls-48" d="M1015.87,87.49c-4-2.82-5.5-6.65-5.32-11.56.28-7.57.18-15.17.09-22.75-.07-5.48,2-9.69,7.09-11.85s9.58-.51,13.39,3.32c4.19,4.22,8.53,8.29,12.58,12.64,2.18,2.35,3.67,2.46,5.9,0,4.31-4.66,8.94-9,13.37-13.58,3.76-3.87,8.16-5.69,13.32-3.62,5.31,2.14,7.71,6.47,7.68,12.16,0,7.79.07,15.59-.2,23.37-.18,5-1.93,9.23-7.36,10.79-11.05,1.13-22.13.17-33.18.47-2.65-.28-2.7-2.13-2.29-4.06.48-2.19,2.36-2.74,4.25-2.9,5.73-.48,11.49-.18,17.23-.19,14.67,0,14.68,0,14.69-14.5,0-3.9.17-7.8-.11-11.7-.18-2.52-.77-5-3.35-6.16s-4.81.31-6.59,2.05c-6.46,6.31-13.21,12.35-19,19.34-4.06,4.93-8.82,9.16-13.22,13.75-2.89,3-6.81,3.53-10.38,5Z"/><path class="cls-12" d="M1024.49,87.51c8.82-4.43,14.66-12.26,21.48-18.94,7-6.89,13.86-14,20.82-21,1.91-1.91,4-3.78,7-2.64a7.22,7.22,0,0,1,4.91,7.14c.07,7.6.09,15.2-.09,22.8-.12,5-2.89,7.24-8,7.12-8.21-.19-16.43,0-24.65-.13-3.27,0-5.34.57-4.25,4.46.43.27.57.55.42.82s-.28.41-.43.41Z"/><path class="cls-49" d="M1047.33,0a18.16,18.16,0,0,1,18.39,18.24,18.33,18.33,0,0,1-18.63,18.69,18.67,18.67,0,0,1-18.25-18.62A18.53,18.53,0,0,1,1047.33,0Z"/><path class="cls-12" d="M1015.88,64.58c0-3.89.07-7.77,0-11.66a6.85,6.85,0,0,1,4.28-6.81c2.67-1.24,4.76.15,6.58,1.93,4.54,4.43,9,9,13.53,13.37,1.77,1.7,2.35,3.07.29,5-4.44,4.23-8.53,8.85-13.14,12.86-2.57,2.24-6,4.08-9.57,2.26-3.29-1.67-1.77-5.09-2-7.79C1015.71,70.73,1015.87,67.65,1015.88,64.58Z"/><path class="cls-50" d="M1060.44,18.4a13.05,13.05,0,1,1-12.78-13.21A13.32,13.32,0,0,1,1060.44,18.4Z"/></g></g></svg>