<svg xmlns="http://www.w3.org/2000/svg" viewBox="0 0 949.48 685.69"><defs><style>.cls-1{fill:#9ce1f8;}.cls-2{fill:#041c72;}.cls-3{fill:#3ec6f3;}.cls-4{fill:#e3e3e3;}.cls-5{fill:#5d5d5d;}.cls-6{fill:#fb5d5d;}.cls-7{fill:#fea377;}.cls-8{fill:#feced2;}.cls-9{fill:#fb605e;}.cls-10{fill:#fb6560;}.cls-11{fill:#fc6a62;}.cls-12{fill:#fc7064;}.cls-13{fill:#fc7666;}.cls-14{fill:#5f5f5f;}.cls-15{fill:#fc7b68;}.cls-16{fill:#fc806a;}.cls-17{fill:#f7f7f7;}.cls-18{fill:#bebebe;}.cls-19{fill:#a0a5a7;}.cls-20{fill:#909495;}.cls-21{fill:#a1e3f9;}.cls-22{fill:#a2e3f9;}.cls-23{fill:#656565;}.cls-24{fill:#a3e3f9;}.cls-25{fill:#53ccf4;}.cls-26{fill:#51ccf4;}.cls-27{fill:#9be1f8;}.cls-28{fill:#9ae1f8;}.cls-29{fill:#98e0f8;}.cls-30{fill:#9de2f9;}.cls-31{fill:#62d1f5;}.cls-32{fill:#a3e4f9;}.cls-33{fill:#4dcbf4;}.cls-34{fill:#b9e3f0;}.cls-35{fill:#69d3f5;}.cls-36{fill:#5acef5;}.cls-37{fill:#56cdf4;}.cls-38{fill:#5ed0f5;}.cls-39{fill:#69d3f6;}.cls-40{fill:#5bcff5;}.cls-41{fill:#abe6f9;}.cls-42{fill:#99e1f8;}.cls-43{fill:#aae6f9;}.cls-44{fill:#72d6f6;}.cls-45{fill:#6ed4f6;}.cls-46{fill:#71d5f6;}.cls-47{fill:#ade7f9;}.cls-48{fill:#63d1f5;}.cls-49{fill:#4acaf4;}.cls-50{fill:#ddf4fc;}.cls-51{fill:#73d6f6;}.cls-52{fill:#a5e4f9;}.cls-53{fill:#4ccbf4;}.cls-54{fill:#a0e3f9;}.cls-55{fill:#57cef5;}.cls-56{fill:#77d7f6;}.cls-57{fill:#c7eefb;}.cls-58{fill:#b4e9fa;}.cls-59{fill:#bcebfa;}.cls-60{fill:#a8e5f9;}.cls-61{fill:#54cdf4;}.cls-62{fill:#59cef5;}.cls-63{fill:#94dff8;}.cls-64{fill:#92dff8;}.cls-65{fill:#57cdf5;}.cls-66{fill:#ace6f9;}.cls-67{fill:#bfecfa;}.cls-68{fill:#66d2f5;}.cls-69{fill:#7bd8f6;}.cls-70{fill:#b8e9fa;}.cls-71{fill:#67d1f4;}.cls-72{fill:#daf3fc;}.cls-73{fill:#c8eefb;}.cls-74{fill:#abe5f8;}.cls-75{fill:#61d1f5;}.cls-76{fill:#a4e4f9;}.cls-77{fill:#67d2f5;}.cls-78{fill:#edf9fd;}.cls-79{fill:#d0f1fb;}.cls-80{fill:#aee7f9;}.cls-81{fill:#85dbf7;}.cls-82{fill:#a6e4f9;}.cls-83{fill:#6ad3f6;}.cls-84{fill:#41c7f3;}.cls-85{fill:#a6e5f9;}.cls-86{fill:#b8eafa;}.cls-87{fill:#5fd0f5;}.cls-88{fill:#43c8f3;}.cls-89{fill:#eaf8fd;}.cls-90{fill:#42c7f3;}.cls-91{fill:#afe7f9;}.cls-92{fill:#cceffb;}.cls-93{fill:#8dd9f3;}.cls-94{fill:#97e0f8;}.cls-95{fill:#8cddf8;}.cls-96{fill:#e2f6fc;}.cls-97{fill:#8adcf7;}.cls-98{fill:#95e0f8;}.cls-99{fill:#b3e8fa;}.cls-100{fill:#9ee2f9;}.cls-101{fill:#58cef4;}.cls-102{fill:#b1e8f9;}.cls-103{fill:#b9eafa;}.cls-104{fill:#e1f5fc;}.cls-105{fill:#93dff8;}.cls-106{fill:#e5f7fd;}.cls-107{fill:#4fcbf4;}.cls-108{fill:#98e1f8;}.cls-109{fill:#dcf4fc;}.cls-110{fill:#afe7fa;}.cls-111{fill:#9ce1f9;}.cls-112{fill:#aee7fa;}.cls-113{fill:#9bdef5;}.cls-114{fill:#caeffb;}.cls-115{fill:#cff0fb;}.cls-116{fill:#beebfa;}.cls-117{fill:#aee6fa;}.cls-118{fill:#cdf0fb;}.cls-119{fill:#58cef5;}.cls-120{fill:#c0ecfb;}.cls-121{fill:#96e0f8;}.cls-122{fill:#a9e6f9;}.cls-123{fill:#6cd4f6;}.cls-124{fill:#9fe3f9;}.cls-125{fill:#78d7f6;}.cls-126{fill:#7ad8f6;}.cls-127{fill:#959fa2;}.cls-128{fill:#d9f3fc;}.cls-129{fill:#b0e7f9;}.cls-130{fill:#e7f8fd;}.cls-131{fill:#87dcf7;}.cls-132{fill:#fefefe;}.cls-133{fill:#5c5d5e;}.cls-134{fill:#f6fbfd;}.cls-135{fill:#fd856c;}.cls-136{fill:#e5f6fc;}.cls-137{fill:#fc8b6e;}.cls-138{fill:#ecf8fc;}.cls-139{fill:#3cc1ef;}.cls-140{fill:#3abaea;}.cls-141{fill:#3bbdec;}.cls-142{fill:#37b1e3;}.cls-143{fill:#35abdf;}.cls-144{fill:#38b5e6;}.cls-145{fill:#3dc4f1;}.cls-146{fill:#33a6db;}.cls-147{fill:#309ed4;}.cls-148{fill:#2d95cd;}.cls-149{fill:#32a2d8;}.cls-150{fill:#2f9ad1;}.cls-151{fill:#3e6f92;}.cls-152{fill:#2c90ca;}.cls-153{fill:#2783c0;}.cls-154{fill:#3cc2f0;}.cls-155{fill:#2988c4;}.cls-156{fill:#2a8bc6;}.cls-157{fill:#2070b1;}.cls-158{fill:#3bbfed;}.cls-159{fill:#2274b4;}.cls-160{fill:#306393;}.cls-161{fill:#37b2e4;}.cls-162{fill:#fdfdfd;}.cls-163{fill:#e2e3e3;}.cls-164{fill:#33a5da;}.cls-165{fill:#2681be;}.cls-166{fill:#3abbea;}.cls-167{fill:#35acdf;}.cls-168{fill:#247ab9;}.cls-169{fill:#16519a;}.cls-170{fill:#1c64a8;}.cls-171{fill:#2170b1;}.cls-172{fill:#1c62a7;}.cls-173{fill:#1e68ac;}.cls-174{fill:#1a5ca3;}.cls-175{fill:#1f6caf;}.cls-176{fill:#18579e;}.cls-177{fill:#16529a;}.cls-178{fill:#247bb9;}.cls-179{fill:#267fbd;}.cls-180{fill:#144c96;}.cls-181{fill:#2884c1;}.cls-182{fill:#d2d2d2;}.cls-183{fill:#cececf;}.cls-184{fill:#124691;}.cls-185{fill:#12428e;}.cls-186{fill:#d5d5d5;}.cls-187{fill:#f2f2f2;}.cls-188{fill:#d9d9d9;}.cls-189{fill:#ebebeb;}.cls-190{fill:#f0f0f0;}.cls-191{fill:#23518c;}.cls-192{fill:#295a90;}.cls-193{fill:#c9cacb;}.cls-194{fill:#b1b1b1;}.cls-195{fill:#061d72;}.cls-196{fill:#cecece;}.cls-197{fill:#c3c3c3;}.cls-198{fill:#acacac;}.cls-199{fill:#b8b8b8;}.cls-200{fill:#c8c8c8;}.cls-201{fill:#5d5e5e;}.cls-202{fill:#daf4fc;}.cls-203{fill:#cbeffb;}.cls-204{fill:#bceafa;}.cls-205{fill:#aee6f9;}.cls-206{fill:#8dddf7;}.cls-207{fill:#9ee1f8;}.cls-208{fill:#79d7f6;}.cls-209{fill:#65c8ed;}.cls-210{fill:#44738f;}.cls-211{fill:#417291;}.cls-212{fill:#134893;}.cls-213{fill:#1a5ba2;}.cls-214{fill:#1e69ac;}.cls-215{fill:#2f98d0;}.cls-216{fill:#39b7e8;}.cls-217{fill:#2e97cf;}.cls-218{fill:#2680be;}.cls-219{fill:#ddd;}.cls-220{fill:#e5e6e6;}.cls-221{fill:#f4f4f4;}.cls-222{fill:#f8f8f8;}.cls-223{fill:#9fd6e9;}</style></defs><title>landing</title><g id="Capa_2" data-name="Capa 2"><g id="Capa_1-2" data-name="Capa 1"><path class="cls-1" d="M0,138a80,80,0,0,1,8.91.42c1.3.19,3.78,0,3.56,2.13-.18,1.6-2.29,1.19-3.66,1.29a20.93,20.93,0,0,1-8.81-1Z"/><path class="cls-2" d="M343.12,148.69c27.71-33.58,62.54-55.28,105.57-63.29,31.87-5.93,62,.12,91.16,13.18,15.95,7.15,31.85,14.46,48.53,19.84,2.09.67,4.24,1.18,6.37,1.76,1.88.52,2.63,2.13,3.46,3.64,7.13,12.89,18.37,19.84,32.54,22.56a19.42,19.42,0,0,1,5,1.51c7,5,14.66,7.88,23.41,7.18,16.54-1.31,27.35-14.7,30.45-28.24a50.29,50.29,0,0,0-1.66-29.3,26,26,0,0,1-1.55-5c-.08-1.65.12-3.17,1.93-3.89,24-10.12,46.45-7.29,67.33,8.23a1.37,1.37,0,0,1,.36.31c5.43,8.26,11.43,5.91,18.91,2.29C796.72,89,819.69,81.68,844.05,79.83c26.51-2,51,3.14,70.67,22.41,20.76,20.35,27.36,45.9,24.86,74.05-2.42,27.26-14.91,50.22-32.54,70.54C886,271.1,860.76,289.55,829.81,299.3c-24.18,7.61-48.14,7.18-71.6-3.14-1.14-.5-2.37-.81-3.56-1.22-1.53-1.21-1.27-2.85-1.09-4.47.75-2.79.44-5.69.94-8.51.62-3.52.9-7.1,1.46-10.63,1.26-8.75,3.57-17.27,5.62-25.84,5.42-22.67,10.68-45.38,16-68.06.76-3.23.9-5.9-2.33-7.74-1.08-1.57-.54-3.11.35-4.42,7.94-11.66,6.37-22.51-2.66-32.77-.71-3.49,1.09-6.45,2.2-9.49s.75-4.64-2.4-5.81c-7.95-3-16-5.62-23.84-8.93-2.82-1.19-4,.24-4.89,2.64-2.37,6.16-4.48,12.42-7,18.54-1.16,2.86-2.75,4.87-5.84,5.5-10.08,2.75-16.42,10.36-22.93,17.74-1,1.15-1.64,2.67-3.22,3.27-10.53,3.51-21.14,6.78-31.69,10.2-2,.62-4.09,1.29-6.12,2-3.07.34-5.81,2.38-9.07,1.73-.52-.35,0,.29-.42-.19-8.09-10.22-20.68-11-31.59-15.46-9.25-3.79-15.05-1.43-21.5,5.72-28.39,31.46-57.45,62.33-80.59,98.09a158.42,158.42,0,0,0-11.25,20.75c-3.4,7.49-4,15.14-2.77,23.09-1.07,4-3.59,2.09-5.47,1.09-6.39-3.39-12.56-7.2-18.83-10.82-25.5-14.7-51.05-29.33-76.45-44.2-7.87-4.6-16.42-7.11-25.28-8.8-1.75-.74-2.49-2.3-3.19-3.9-6-13.83-12.73-27.36-18.34-41.35-4.67-11.64-7.75-23.89-13.9-35C346.76,155.53,343.43,152.9,343.12,148.69Z"/><path class="cls-3" d="M343.12,148.69c8.74,11.43,13.82,24.5,18,38.14,3.85,12.49,10.24,24,15.54,35.95,2.35,5.3,4.18,10.88,7.48,15.73,3.82,4.39,4.8,10.2,7.56,15.12a21.86,21.86,0,0,1,1.45,3.5c1.62,4.53,4.4,7.08,9.29,8.84,10.54,3.79,19.8,10.36,29.5,15.93,26.13,15,52.08,30.23,78.29,45.07a18.44,18.44,0,0,1,4.25,3c2.46,3.85,1.74,8.94,4.91,12.52a123.13,123.13,0,0,0,5.74,30,13.37,13.37,0,0,0,7.32,8.62q29.06,14.28,57.91,29a16.77,16.77,0,0,0,12.7,1.36c11.58-3.07,23.38-5.14,35-7.84a9.47,9.47,0,0,1,3.27-.33c7.92,3.22,14.91,8.15,22.29,12.37,37.09,21.18,73.92,42.82,111.06,63.94a54,54,0,0,1,5.93,3.89c7.94,6,8.1,15.36.42,21.72-2.82,2.34-6.13,3.86-9.25,5.69-42.81,25.17-85.86,49.92-128.76,74.93-20.83,12.14-41.65,24.32-62.6,36.26-13.84,7.9-28.15,8.14-42.65,1.83-1.85-.81-3.75-1.77-4.38-4,.09-8.51,4.74-15.59,7.47-23.25,7.31-20.48,16.06-40.41,23.12-61,1.37-4,3.64-7.69,4.8-11.82.84-3,.9-5.89-.66-8.69-6.62-11.83-12.62-24-19.79-35.5-6.53-9.75-12.14-20.07-19-29.59-6.59-8.31-11.83-17.6-18.75-25.67-5.46-7.41-11.28-14.53-17-21.7-5.75-6.56-11.2-13.38-17-19.88-5.77-5.3-10.32-11.74-16.08-17.05-5.32-5.36-10.57-10.81-16.1-16-5.38-3.61-8.95-9.25-14.32-12.87-3.82-2.41-5.83-6.91-10.11-8.79-4-3.58-7.57-7.74-12.36-10.43a3.22,3.22,0,0,1-1.74-2c.22-1.34,1.35-1.63,2.37-2,9.22-3.18,15.17-10.32,21.27-17.33,2-2.34,1.44-3.68-1.07-5.07-6.23-3.46-12.22-.4-18.29.48-.83.12-.89,1.19-1.32,1.81-3.9,5.6-8.27,10.57-15.92,10.56-3.38-.31-5.34-3.06-8-4.62-4.28-3.27-8.46-6.69-13-9.55a50.28,50.28,0,0,0-6.72-4.79c-3.15-2.21-6.38-4.33-9.43-6.69a3,3,0,0,1-1-1.68c1.59-3,4.71-4,7.41-5.46s3.83-2.89,1.44-5.73c-4.13-4.95-8-10.14-12.49-14.76a3.71,3.71,0,0,1-.47-1.29,22.24,22.24,0,0,1,.22-7.05c.67-5-1.06-9.87-.95-14.84-.12-2.72-.05-5.43-.06-8.14a49.55,49.55,0,0,0-.45-10.32c-.57-2.79-2-4.56-5.05-4.59-7.84-.09-15.69-.21-23.53.07a17.84,17.84,0,0,0-5,1.19c-7.33,2.48-8.51,4.1-8.63,11.87.15,3.42.11,6.84,0,10.26-1.36,10.62-1.06,21.29-.89,32q-.15,11.16-.09,22.32c0,2.32,0,4.63,0,6.95,0,2.85-.07,5.7.07,8.55-.09,2.82-.09,5.65-.07,8.48q0,3.38,0,6.77c0,3.11-.07,6.22.06,9.32q-.1,3.8,0,7.58c-1.67,14.56-3.63,29.07-6,43.53-1.32,10.71-2.78,21.39-4.52,32-.47,2.86-.29,6-3,8.14-6.39,1-12.66-.78-19-1.07-3.54-.16-7.11-.44-10.67-.67-3.08-1.14-3.94-3.56-4-6.61-.1-4,.54-8.06-.65-12-.92-5.89.52-11.89-.92-17.74-.9-6.81.14-13.74-1.18-20.52.11-15.86-.15-15.63-10.75-27.38-12.43-13.79-24.58-27.84-36.68-41.92-.51-.6-1-1.24-1.53-1.8-6.5-6.56-7.23-5.67-.82-14.74a134.55,134.55,0,0,0,7.9-11.5c10.39-13.6,20.52-27.41,30.62-41.23,3.18-4.36,5.19-9.19,4.41-14.8a5.77,5.77,0,0,0,.61-4.57c-1.25-6.63,1.25-11.61,5.72-16.49,7.77-8.48,15-17.48,22.27-26.38a10.93,10.93,0,0,1,5.7-3.87c8.18-2.35,16.22-5.4,24.54-7,10.22-2,20.37-.37,30.08,3.57C339.9,147.63,341.24,148.93,343.12,148.69Z"/><path class="cls-4" d="M533.74,619.93c14.57,9.37,30.1,10.19,44.75,1.79,66-37.83,131.68-76.26,197.46-114.47,1.23-.72,2.45-1.45,3.59-2.28,8.08-5.92,8.31-15.25,0-20.75-8.68-5.7-17.85-10.66-26.84-15.86q-55.41-32.08-110.83-64.12c.81-1.64,2.47-2,3.95-2.2,4.76-.57,7.41-3.48,9.58-7.45,1-1.83,1.44-4.64,4.49-4.69,2,4.06,6.34,4.93,9.72,6.91,22,12.83,44.12,25.32,66.14,38q37.51,21.66,74.92,43.51c2.44,1.42,4.85,2.93,7.38,4.17,6.55,3.23,12.38,7.33,16.84,13.21.91.4,1,1.23,1.11,2.07a38.53,38.53,0,0,1,.84,11.38c-1.55,6.7-6.23,10.79-11.84,14-52.29,29.89-104.25,60.37-156.36,90.6-19.77,11.47-39.39,23.24-59.35,34.36-24.23,13.5-48.45,12.48-72.34-1.41-43.48-25.28-87.11-50.32-130.66-75.48-31-17.91-61.94-35.9-93-53.71-39.66-22.76-79.2-45.73-118.84-68.52-22.41-12.9-44.77-25.9-67.24-38.7-5.32-2.9-10.49-6-12.4-10.92.16,2.86.13,7.2.07,11.53,0,1.84.31,3.81-1.21,5.34l-1,0v0c.17-9.1-.78-18.2.65-27.3,1.18-7.48,5.44-12.47,11.62-16.23,2.54-1.55,5-3.18,7.56-4.76a2.61,2.61,0,0,1,1.4-1.48,3.53,3.53,0,0,1,2.08.2c4.43,2.24,9.33,2.91,14.07,4.1,3.62.75,7.29,1.26,10.91,2a133.67,133.67,0,0,0,14.9,2.43c1.78.45,4.53-.35,4,3.09-1.06,2.34-3.42,3.24-5.28,4.7a49.67,49.67,0,0,1-6.09,3.52c-6.69,3.31-8.75,8.9-6,16,2.3,4.56,6.91,6.12,11,8.39a90.55,90.55,0,0,0,9.45,5.59,94.74,94.74,0,0,0,8.51,4.8c3,2.14,6.42,3.61,9.52,5.6a80.34,80.34,0,0,0,8.47,4.82c3,2.14,6.42,3.61,9.52,5.59,3.6,2.41,7.52,4.27,11.19,6.55,1.29.78,2.67,1.38,4,2.12a46.36,46.36,0,0,0,6.68,3.8c3.66,2.37,7.5,4.39,11.27,6.56,3.56,2.55,7.69,4.09,11.33,6.5,3.12,2,6.3,3.84,9.49,5.69,2.85,1.58,5.78,3,8.53,4.74a79.81,79.81,0,0,0,8.48,4.83c2.45,1.85,5.32,3,7.88,4.64,4.22,2.78,8.79,5,13.16,7.5,4.24,2.75,8.74,5.05,13.08,7.62,3.86,2.13,7.58,4.48,11.41,6.65,4.37,2.62,8.91,4.95,13.33,7.49,3.53,2.65,7.58,4.43,11.32,6.73,5,2.85,10,5.78,15.08,8.6,5.88,3.68,12,6.95,18,10.41,6.62,3.78,13.12,7.77,19.86,11.35,6.57,3.86,13,8,19.86,11.35,6.73,4.46,13.86,8.25,20.88,12.22,8.11,4.86,16.34,9.52,24.56,14.2,9.18,5.4,18.43,10.69,27.66,16,7.64,4.54,15.43,8.82,23.09,13.32C530.77,617.23,532.76,618,533.74,619.93Z"/><path class="cls-2" d="M249.41,201.75c1.8,3.32,1.36,6.41-.25,9.81-3.75,7.92-9.48,14.39-14.75,21.19-6.62,8.53-12.27,17.78-19.49,25.86-2.67-.52-2.89-3.08-4-4.88s-2.19-3.83-3.36-5.69c-1.61-2.58-1.9-7.42-5-7.28-3.73.17-6.43,4.13-9.36,6.71-1.6,1.41-.26,2.91.68,4.14,3.52,4.65,7.32,9.05,11.06,13.52,1.11,1.32,2.43,2.51,2.36,4.45-4.4,7.73-4.43,7.76,1.75,14.82,15,17.17,30,34.41,45.2,51.44,4.92,5.52,2.66,11.89,3.23,18-2.06,4.13-6.1,6.18-9.45,8.94a208.25,208.25,0,0,1-17.3,12.95c-2.89,2.11-6,2.24-9.28,1.06-3.66-1.3-7.54-1.84-11.23-3.07-4.8-2-10.52-1.46-14.67-5.27-3.47-2.46-5.18-6.63-8.78-9-3.69-3.95-6.27-8.81-10.23-12.54a48.73,48.73,0,0,1-3.23-4.06c-6.11-6.62-11.48-13.89-17.83-20.3a7.68,7.68,0,0,1-1-.93c-8.76-11.14-18.24-21.69-27.38-32.52-3.08-3.64-3.19-3.46-5.12.72-7.44,16.17-14.46,32.53-21.79,48.75-.41.81-.82,1.61-1.22,2.43a48.32,48.32,0,0,0-1.89,4.66c-1.78,3.73-4.55,3.87-7.83,2.15a52.25,52.25,0,0,1-5.64-3.42c-1.83-1.29-2.91-3.18-2.45-5.27,1.36-6.23.13-12.54.84-18.77.33-20.79,1.52-41.54,2.88-62.29,1.49-22.65,9-43,20.83-62,.57-.92.95-2.39,2.12-2.3,6.46.46,13.19-2.06,19.33,1.93,9.77,6.34,19.86,12.25,29,19.56,2.42,2,3.22,1.1,4.44-1.07,10-17.86,21.38-34.92,32.25-52.27,1.64-2.63,3.52-3.12,6.4-3.59,11.77-1.92,19.56,2.48,26.07,12.47C232.47,181.69,241.32,191.47,249.41,201.75Z"/><path class="cls-5" d="M127.88,409.6c16.29,9.29,32.61,18.49,48.85,27.86q171.47,98.91,342.9,197.89c5.6,3.23,11.24,6.4,16.78,9.72,25.3,15.18,50.38,15,75.92.08q102.69-60,205.74-119.47c7.49-4.32,14.58-8.59,18.72-16.49a110.32,110.32,0,0,0,.05,11.36c1.1,11.07-4.28,18.14-13.4,23.4Q779,569.6,734.65,595.49q-61.15,35.52-122.32,71c-1.76,1-3.62,1.89-5.43,2.83-2.22-3.81-.33-8-1-11.24,0,2.5,0,5.68,0,8.87a4.66,4.66,0,0,1-1.86,4.09c-14.18,7.55-29.23,7.85-44.59,5.23a53.87,53.87,0,0,1-18-6.82Q411,594.15,280.57,518.93c-1.6-.93-3.31-1.66-5-2.49a4.55,4.55,0,0,1-3.91-2.49q-53.16-30.75-106.33-61.49c-10.36-6-20.77-11.9-31.15-17.85a3.11,3.11,0,0,1-3.23-1.88l-4.25-2.85c-2.56-6-1.33-12.16-.93-18.28C125.87,410.56,126.43,409.48,127.88,409.6Z"/><path class="cls-6" d="M659.84,389.9a6.9,6.9,0,0,0-1.13,1.43c-3.18,7.52-8.31,12.46-16.89,12.9-14,3.06-28,6.06-41.91,9.22a10,10,0,0,1-7.19-.8q-31.62-15.88-63.34-31.6c-1.4-.7-2.92-1.26-3.5-2.94-3.94-11.47-7.91-22.93-6.84-35.37,2.44-1,4.27.63,6.15,1.6,26.46,13.71,53.07,27.15,79.42,41.07,6.75,3.57,6.9,3.5,9.16-3.91q16.86-55.44,33.93-110.84c1.36-4.46,2-9.26,5-13.13,8.46-3.94,16.89-8,26-10.28a6.89,6.89,0,0,1,3.59,1c13.9,7.72,28.41,14.23,42.64,21.29,1.67.82,3.56,1.41,4.44,3.31.34,1.78-.63,3.12-1.46,4.51-1.52,2.11-2.41,4.61-3.89,6.75a54,54,0,0,0-3,5.59c-1.82,2.41-2.92,5.25-4.57,7.77-1.9,3.43-4,6.74-5.73,10.25-2.18,3.58-3.95,7.45-7.23,10.23q-15,24.64-29.92,49.28Q666.67,378.56,659.84,389.9Z"/><path class="cls-7" d="M257.64,71.59c.16-11.72,3.52-22.14,14.52-27.81,12.3-6.34,24.93-5.62,37.16.94a8.75,8.75,0,0,1,1.56,1.06c5.82,5,11.1,9,20.22,6.3,7.6-2.23,14.79,4.19,17,11.75A17.76,17.76,0,0,1,341,83.73c-1.79,1.17-3.39,1.94-3,4.63,2.1,13.14-3.3,24-10.82,34.09a53.45,53.45,0,0,1-11.26,10.74c-4.76,3.52-9.81,5.61-15.82,4.72-12.52-1.84-23.09-6.88-29.82-18.2-1.82-3-1.51-5.56,1.63-7.68s5.6-5.1,6-9.16c.37-3.8-1.25-5.88-5-5.63-4.09.26-6.55-1.76-8.59-4.73C260,86.22,256.51,79.63,257.64,71.59Z"/><path class="cls-3" d="M688.28,88.68,687,92.44c-1.07,5.3-5.14,8.17-9.22,10.78-3.59,2.3-7.3,4.34-10.26,7.48-1.87,2-3.93,2.39-6.35.93a11.72,11.72,0,0,0-6.77-1.74c-4.29.23-6.22,2.94-4.89,7.07,1.81,5.61,5.84,8.75,11.45,10.16,4.74,1.19,5.56,2.89,3.8,7.42-4.61,11.84-17.44,17.82-29.81,13.9-12.52-1.8-23.61-6.38-32.29-16-3.32-3.68-5.08-8.28-7.88-12.25-.59-6.19-2.57-12.18-1.35-18.63,8.35-44.3,52-54.94,79.36-41.07,8.15,4.13,14.35,10.14,16,19.78C689.3,83.19,688.44,85.88,688.28,88.68Z"/><path class="cls-8" d="M257.64,71.59c.89,7,2.77,13.73,7.11,19.54,2.27,3,4,6.08,9,4.65,2.78-.79,5.3,1.44,5.54,5a12.28,12.28,0,0,1-6.2,11.85c-3.35,2.07-3.45,4-1.61,7.15,5.36,9.32,14.51,13,23.83,16.41l4.77,1.77c-9.73,6.91-24.85,6.33-34.71-.93-4-2.94-6.71-6.88-9.89-10.48-.82-.85-1.82-1.6-1.74-3-2.62-8.31-4.58-16.72-4-25.53-.68-1.13-1-2.25.07-3.35C251.3,86.56,255.33,79.37,257.64,71.59Z"/><path class="cls-6" d="M744.17,383.38c-.73,7.81-1.48,15.61-2.15,23.43-.18,2.06-1,3-3.23,3a67.08,67.08,0,0,0-10.32.64c-3.73.59-5.28-.63-5.93-4.39-2.14-12.36-4.59-24.66-6.92-37-1-1.49.32-3.44-1-4.88v0c.31-2.55,2.18-2,3.41-1.32a199.12,199.12,0,0,1,25.75,16.34c.34.26.45.82.63,1.25A4.88,4.88,0,0,1,744.17,383.38Z"/><path class="cls-3" d="M754.27,410.65l28.37-7.91c7.43-2.07,14.86-4.14,22.3-6.16,3-.82,7.28,1.67,8.13,4.53.43,1.45-.55,2-1.42,2.64Q797,414.13,782.32,424.47c-.88.61-1.82,1.37-3,.68Z"/><path class="cls-9" d="M744,380.32c-8.41-5.32-16.8-10.67-25.25-15.93-1.22-.76-2.69-1.94-4.12-.13a133.49,133.49,0,0,1-3.83-19.61c-.17-2.25-1.6-5,.51-6.57,2.45-1.86,4.65.52,6.75,1.68,8.76,4.84,16.78,10.9,25.56,15.72a5.6,5.6,0,0,1,2.79,2.41c.26,5.57-1.16,11-1.09,16.59C743.73,376.16,745.27,378.55,744,380.32Z"/><path class="cls-10" d="M746,357.59c-4.78-1.6-8.85-4.54-13.09-7.13-5.6-3.41-11.06-7-16.62-10.51-4.4-2.75-5.15-2.33-5.32,2.82,0,.62-.07,1.25-.1,1.88-1-1.19-.88-2.62-.87-4-1.14-6.68-2.39-13.33-3.88-19.94l0,.07c-.78-2.84,1-2.89,2.86-2.44a17.1,17.1,0,0,1,5,2.62c10.06,6.48,20.14,12.94,30.54,18.85,3.34,1.89,4.36,4.27,3.77,7.65a49.52,49.52,0,0,0-1,9.33C747.29,357.54,746.69,357.76,746,357.59Z"/><path class="cls-11" d="M746,357.59c1.45-4.14,1.28-8.51,1.86-12.77.16-1.21-.55-1.81-1.64-2.47Q728,331.27,709.87,320c-1.62-1-3-2.13-3.74.79-1.51-.35.51-4.08-2.7-2.79,2-3.64,3.8-7.4,6.57-10.56,2.15-1.37,3.54.42,5,1.32,10.77,6.47,21.19,13.51,32.09,19.76,1.78,1,3.73,2,2.71,4.7-.4,11.32-2.35,22.48-3.38,33.73-.11,1.24-.2,2.49-.3,3.73a1.58,1.58,0,0,1-.1,1.93l-1,3.14c-.31-.19-.44-.41-.39-.65s.12-.4.21-.4Z"/><path class="cls-3" d="M82.08,320.34c.08,4.67.81,9.44.09,14-1,6.46,1.82,9.52,7.2,12.17,3.75,1.85,5.88,2,7.35-2.16,3.92,1,3.59,4.11,3.61,7.07-2,4.52-5.66,1.63-8.62,1.84a50.88,50.88,0,0,1-16.31-4.13c-6.92-2.11-14.12-2.73-21.16-4.22-4-.84-6.82-8.5-4.35-11.78.91-1.22,2-.51,3-.37,8.23,1.16,16.47,2.2,24.66,3.59,3.13.53,4.23-.1,4.19-3.41C81.67,328.74,81.14,324.51,82.08,320.34Z"/><path class="cls-12" d="M749.84,333.19a3.53,3.53,0,0,0-1.91-3c-12.56-6.89-24.42-14.89-36.56-22.45a4.23,4.23,0,0,0-1.37-.3c1.06-3.92,3.58-7.05,5.68-10.41,9.22,4.71,17.86,10.41,26.62,15.9,1.72,1.08,3.27,2.51,5.14,3.31,3.57,1.52,4.5,4.05,3.36,7.58C750.88,327,751,330.14,749.84,333.19Z"/><path class="cls-13" d="M750.8,323.79c.31-3.12-1.11-4.72-3.79-6.59-10.21-7.1-21.76-12.12-31.33-20.2,1.63-2.5,2-5.78,4.72-7.59,7.92,4.4,15.53,9.32,23,14.37a31.26,31.26,0,0,0,9.17,4.57A66.36,66.36,0,0,1,750.8,323.79Z"/><path class="cls-14" d="M127.88,409.6c-2.14,3.64-.64,7.59-1,11.39-.27,2.94-.13,5.92-.17,8.89a25.46,25.46,0,0,1-13.1-13.61V394.92C117,402.43,122.1,406.37,127.88,409.6Z"/><path class="cls-15" d="M752.61,308.35c-1.73,1.28-3.29.44-4.75-.49q-12.87-8.12-25.68-16.32a9.59,9.59,0,0,1-1.78-2.13,10.65,10.65,0,0,1,2.86-5.66A173.22,173.22,0,0,1,743,295.57c3.27,2.19,6.52,4.4,10.47,5.23A17.91,17.91,0,0,1,752.61,308.35Z"/><path class="cls-16" d="M753.5,300.8c-1.13.51-2.26,1.36-3.53.46-8.71-6.14-18.51-10.61-26.71-17.51,1.29-2.19,1.89-4.78,3.78-6.63,6.12,4.57,13.12,7.81,19.12,12.55,2.75,2.17,5.44,3,8.47.71,0,1.52,0,3,0,4.56C754.27,296.89,753.88,298.85,753.5,300.8Z"/><path class="cls-17" d="M133.49,367.07l-1,.91c-2.65-2.45-6.26-2.54-9.37-3.87-1.55-.67-4-1.14-3.64-3.08.71-4.42-2.2-3.23-4.45-3.46-4.26-.43-8.66,1.07-12.81-.92,3-2.33,6.55-1,9.85-1.3a43.27,43.27,0,0,1,5.09-.15c3.82.21,7.63.13,11.45,0C135.54,355.74,137,359.4,133.49,367.07Z"/><path class="cls-18" d="M117.38,356.6l-15.14,0c-1-.14-2.16,0-3-.85a3.78,3.78,0,0,1,2.85-1.34,37.39,37.39,0,0,1,4-.08c1.54-.05,3.07,0,4.6-.08,3-.42,2.28-2.83,2.51-4.7.39-3.15-.81-6.54,1.38-9.44a3.55,3.55,0,0,1,4,.17c2.07,4.75,1.29,9.62.67,14.49A3.57,3.57,0,0,1,117.38,356.6Z"/><path class="cls-19" d="M102.17,355.6l-2.91.2c-2.23-.23-4.59.41-6.68-.93a2.27,2.27,0,0,1,.93-.86c1.64-.26,3.28-.5,4.92-.7,1.43-.17,1.71-1,1.15-2.27-.71-2.34-.46-5.09-2.86-6.7a6.55,6.55,0,0,1,1.67-3.81,2.46,2.46,0,0,1,3.19,0C103.45,345.45,102.9,350.52,102.17,355.6Z"/><path class="cls-20" d="M93.63,354.65l-1,.22-1.72-.15c-1.46-1.09-3.34.13-4.82-.87-4-.61-8.07-1-10.65-4.73,5.7-.32,10.81,2.75,16.44,2.86C92.65,352.72,94.36,352.87,93.63,354.65Z"/><path class="cls-21" d="M368.21,44.07c0,3.51.05,7,0,10.55,0,1.07-.26,2.37-1.66,2.41-1.25,0-1.16-1.28-1.43-2.09C363.72,50.89,364.67,47.28,368.21,44.07Z"/><path class="cls-22" d="M861.15,611.67c-.44-3.33-1.48-4.83-4.1-2.7,0-.8,0-1.15.08-1.37,1.45-2.44,3-7.27,5.25-5.92C865.1,603.3,863.52,607.71,861.15,611.67Z"/><path class="cls-23" d="M604,671.08c1.76-4.41.51-9,.91-13.52.18-1.95-.59-4,2-5.9v17.7A4.11,4.11,0,0,1,604,671.08Z"/><path class="cls-24" d="M51.57,296.38a2.63,2.63,0,0,1-3,2.33c-2.24-.27-3-2-3.14-4.08,0-1.21.27-2.4,1.79-2.11C49.35,292.92,51.07,294,51.57,296.38Z"/><path class="cls-25" d="M63.68,566.19c0,1.57-.25,3.07-2.12,3A3.32,3.32,0,0,1,58,566.15c-.11-2.21,2-2.61,3.63-2.81C63.84,563.07,63.38,565,63.68,566.19Z"/><path class="cls-1" d="M117.15,164.38A3.46,3.46,0,0,1,114,167.3c-1.95.23-2.4-1-2.37-2.64,0-1.43-.1-3,2-2.93A3.61,3.61,0,0,1,117.15,164.38Z"/><path class="cls-26" d="M838.6,572.37c.1,1.48-.31,2.6-1.65,2.54-2-.1-3.7-1-4-3.2-.23-1.61,1.06-2.06,2.4-2.23C837.7,569.19,838.12,570.94,838.6,572.37Z"/><path class="cls-27" d="M893.71,412.75a19.19,19.19,0,0,1,3-.24c2,.21,4.13.13,5.31,2.16.32.56-.21,1.27-.84,1.44a5.54,5.54,0,0,1-5.68-1.25C895.05,414.43,894.69,413.93,893.71,412.75Z"/><path class="cls-28" d="M912.18,563.74c.82.76.55,1.75.48,2.62-.12,1.46.52,3.27-1.4,4.08a1.57,1.57,0,0,1-2.09-.51,4.1,4.1,0,0,1,.8-4.76C910.56,564.51,911,563.55,912.18,563.74Z"/><path class="cls-29" d="M221.51,93c-.33,1.53-1.15,3-3.1,3.22-1.52.18-1.61-1.07-1.66-2.19-.08-2,.78-3.23,2.91-3.3C221,90.64,221.6,91.39,221.51,93Z"/><path class="cls-30" d="M559.35,72c.15,1.66-.4,2.53-2,2.55-1.36,0-2.54-.22-2.48-1.92s.89-3.16,2.63-3.21C559,69.33,559.07,71,559.35,72Z"/><path class="cls-31" d="M399.55,655.38a21.64,21.64,0,0,1,10.56,0C406.56,658.71,403.74,657.54,399.55,655.38Z"/><path class="cls-32" d="M847.85,417a10.26,10.26,0,0,1-.58,1.61c-1.42,2-2.42,4.51-5.19,5.09-.71.15-1.32-.63-1-1.18A11,11,0,0,1,847.85,417Z"/><path class="cls-11" d="M706.09,320.69A66.93,66.93,0,0,1,710,340.63,111.74,111.74,0,0,1,706.09,320.69Z"/><path class="cls-33" d="M814.06,418.12a4.81,4.81,0,0,1-4,2.85c-1.21.18-1.72-.66-1.25-1.79.68-1.59,1.29-3.37,3.61-3C813.47,416.36,814.26,416.79,814.06,418.12Z"/><path class="cls-34" d="M271.69,514a7.39,7.39,0,0,1,3.9,2.49c-2.6,2.09-4.95,1.25-7.35-.33C268.86,514.09,271,515.29,271.69,514Z"/><path class="cls-35" d="M188.77,500.8c1.46.53,3,1.06,3.31,2.91.15,1-.65,1.36-1.49,1.42a2.65,2.65,0,0,1-3.11-2.24C187.29,501.9,187.42,501,188.77,500.8Z"/><path class="cls-36" d="M109.79,103.33a3.21,3.21,0,0,1-2.4,3.1c-1.41.32-1.46-1-1.37-1.83.12-1.26-.62-3.13,1.58-3.3C108.84,101.19,109.62,102,109.79,103.33Z"/><path class="cls-37" d="M826.83,675.5c1.12,0,2.22-.1,2.23,1.23a2.55,2.55,0,0,1-2.52,2.79,1.72,1.72,0,0,1-2.1-1.88C824.47,676,825.74,675.73,826.83,675.5Z"/><path class="cls-38" d="M945.76,618.64c-.09,1.45-.27,2.75-1.79,3-1.31.21-2-.66-2-1.92a2.39,2.39,0,0,1,2.16-2.55C945.38,616.93,945.65,617.83,945.76,618.64Z"/><path class="cls-39" d="M916.59,17.16c2.21,2.36,3.34,4.2,2.17,7.08C916.05,22.39,916.19,20.1,916.59,17.16Z"/><path class="cls-40" d="M133.33,511.09c-1.14,1.36-2.7.89-4.14.69-.86-.12-1.41-.75-.89-1.63.84-1.43,2.28-1.44,3.66-1.18A1.62,1.62,0,0,1,133.33,511.09Z"/><path class="cls-41" d="M581,98a2.25,2.25,0,0,1-2.47,2c-1,.06-2.48.44-2.46-1.23,0-1,1.09-1.45,2.1-1.49S580.3,97.13,581,98Z"/><path class="cls-42" d="M78.56,548.71a1.81,1.81,0,0,1-2,2c-1,0-2.08-.32-2.1-1.35,0-1.4,1.08-2.16,2.41-2.36S78.53,547.62,78.56,548.71Z"/><path class="cls-43" d="M310.42,611.41c-.12.83-.23,1.67-1,1.47a4.53,4.53,0,0,1-3.32-3.4c-.21-.8.68-1,1.25-.91A4,4,0,0,1,310.42,611.41Z"/><path class="cls-44" d="M118.55,558.64a6.52,6.52,0,0,1,5.11-4.18C122.58,557.82,122.58,557.82,118.55,558.64Z"/><path class="cls-45" d="M577.18,5.35c-2.78-1-4-2.33-3.75-4.6,0-.29.78-.83,1-.74C576.45,1,576.66,2.82,577.18,5.35Z"/><path class="cls-43" d="M203.51,72.19c0-1.36.42-2.47,1.91-2.61,1.17-.1.93,1,1,1.64.06,1.27-.15,2.67-1.58,2.91C203.56,74.34,203.57,73.1,203.51,72.19Z"/><path class="cls-46" d="M84.24,400.4c.31-2.9,1.44-4.22,3.57-4.69.24,0,.9.55.86.76C88.25,398.67,86.59,399.42,84.24,400.4Z"/><path class="cls-47" d="M61.37,431.12c1.31,1.8,1.53,3.61.27,6C59.94,434.83,60.75,433,61.37,431.12Z"/><path class="cls-48" d="M273.07,622.4c-.45,1.46-1,2.63-2.46,2.77-.9.08-.92-.78-.88-1.34.11-1.27.34-2.64,1.94-2.78A1.37,1.37,0,0,1,273.07,622.4Z"/><path class="cls-49" d="M857.56,377.44c1.33,0,2,.51,2,1.61,0,1.31-1,1.82-2.08,2a1.19,1.19,0,0,1-1.46-1.3A2.27,2.27,0,0,1,857.56,377.44Z"/><path class="cls-50" d="M655.81,656.43c1.51,1.76,1.38,3.57.55,5.86C654.22,660.24,655.46,658.27,655.81,656.43Z"/><path class="cls-51" d="M71.87,136c-2.19-2.12-3.29-3.66-2.5-6.25C71.49,131.23,72,133,71.87,136Z"/><path class="cls-52" d="M902,80c-.19.89-.6,1.83-1.72,1.66s-1-1.37-1-2.22-.06-2.07,1.39-1.69C901.71,78,902.05,78.93,902,80Z"/><path class="cls-53" d="M131,432.73l3.23,1.88c-1.58,2.46-3.43,1-4.59-.13C128.63,433.51,130.46,433.32,131,432.73Z"/><path class="cls-54" d="M847.12,381.2c-1.24.1-1.71-.58-1.73-1.69,0-.85.22-1.69,1.19-1.63s2,.36,2.19,1.43S848.11,381,847.12,381.2Z"/><path class="cls-55" d="M84.37,453.84c2.18-2.64,4-2.64,5.87-2.85C89.19,452.83,87.67,453.72,84.37,453.84Z"/><path class="cls-56" d="M89.56,417.08c-.36,2.35-1,4-2.88,4.73-.22.08-1-.49-1-.69C85.91,419.07,87.21,418,89.56,417.08Z"/><path class="cls-57" d="M112.86,492v-6.43C114.77,488.16,115,490.09,112.86,492Z"/><path class="cls-58" d="M92.79,111.61c-1.06,2.82-3.48,3.44-6.15,3.64Z"/><path class="cls-59" d="M68.51,247.4a10.25,10.25,0,0,1-4.22,6.25C65.18,250.31,66.5,248.6,68.51,247.4Z"/><path class="cls-60" d="M98.38,194.11a6.55,6.55,0,0,1-.3-6.06C99.93,190.08,99.62,191.65,98.38,194.11Z"/><path class="cls-61" d="M119.82,128.67c2.68,1.2,4.29,2.09,4.13,5C121.57,133,120.61,131.57,119.82,128.67Z"/><path class="cls-62" d="M842.44,54.67c-.27,1.22-1.33,1.1-2.23,1.08s-1.62-.47-1.51-1.41a1.73,1.73,0,0,1,2-1.53A1.62,1.62,0,0,1,842.44,54.67Z"/><path class="cls-50" d="M931.44,546.18l-5,3.59C927,548.41,929.11,547.17,931.44,546.18Z"/><path class="cls-46" d="M849.73,599.33a2,2,0,0,1-2.2,1.38c-.88-.08-1.59-.59-1.51-1.46.12-1.18,1.13-1.34,2.13-1.27S849.65,598.35,849.73,599.33Z"/><path class="cls-63" d="M240.93,585.57c.67,2.7.73,4.39-.6,7C239.35,589.83,239.2,588.17,240.93,585.57Z"/><path class="cls-24" d="M201.43,3.35c0,1.52-.62,2-1.67,2.06-.82,0-1.53-.23-1.68-1.16a1.32,1.32,0,0,1,1.22-1.6A1.85,1.85,0,0,1,201.43,3.35Z"/><path class="cls-64" d="M174.47,539.63c-1.52-2-2.27-3.48-.74-5.57C175.57,535.67,175.21,537.26,174.47,539.63Z"/><path class="cls-65" d="M631,33.29c1,1.41,1.71,2.59.66,3.94-.12.16-1,.05-1.17-.2C629.56,35.84,629.26,34.6,631,33.29Z"/><path class="cls-66" d="M901.52,35.12a1.91,1.91,0,0,1,1.46,2,1.19,1.19,0,0,1-1.55,1.18c-.9-.2-1.11-.92-1.14-1.72S900.54,35.14,901.52,35.12Z"/><path class="cls-67" d="M793.54,623.36c-1,3-1.79,4.45-3.69,5.59C789.36,626.18,791.13,625.3,793.54,623.36Z"/><path class="cls-68" d="M104,134.29c-2.57-.28-4-.9-4.38-2.87,0-.21.28-.72.43-.72C102,130.73,102.84,132.23,104,134.29Z"/><path class="cls-69" d="M60.35,317.75c-.81-.33-1.46-.79-1.16-1.69a2.23,2.23,0,0,1,2.38-1.68c.76.05.9.75.77,1.35C62.11,316.81,61.59,317.69,60.35,317.75Z"/><path class="cls-70" d="M341.84,638.38c-2.68.46-4.39.62-6.34-.58C337.84,636.12,339.38,637.22,341.84,638.38Z"/><path class="cls-71" d="M249.87,94.64,249.81,98c-1.58-.38-3-1-2.41-3C247.89,93.36,249,94.12,249.87,94.64Z"/><path class="cls-48" d="M288.49,527.21a1.47,1.47,0,0,1-1.56,1.43,1.76,1.76,0,0,1-1.72-1.87,1.09,1.09,0,0,1,1.23-1.12C287.36,525.76,288.33,526,288.49,527.21Z"/><path class="cls-46" d="M232.87,504.32c1.1.37,2.46-.39,3.85,1.43-2.44.55-4.37,1.71-5.58-1.47A1.13,1.13,0,0,1,232.87,504.32Z"/><path class="cls-72" d="M846.65,438.8a7.39,7.39,0,0,1-7.22-2.85Z"/><path class="cls-73" d="M929.13,540.25c-.48,1.72-.69,3.63-3.07,4.76C926.39,542.44,927.16,540.92,929.13,540.25Z"/><path class="cls-54" d="M724.63,33.31c.81-.11,1.26.19,1.38.92s.13,1.63-.73,2-1.47-.38-1.66-1.12A1.48,1.48,0,0,1,724.63,33.31Z"/><path class="cls-74" d="M836,497.81a2.52,2.52,0,0,1-1.11-2.07c.23-.83.22-2.63,1-2.19C837.65,494.58,837,496.33,836,497.81Z"/><path class="cls-75" d="M9.56,465.45c-1.38,0-1.93-.51-1.95-1.36a1.25,1.25,0,0,1,1.51-1.32c.93.09,2,.3,1.77,1.54A1.44,1.44,0,0,1,9.56,465.45Z"/><path class="cls-76" d="M405.79,619.42c1.63,2.07,1.62,3.35.41,5.05C404.74,622.94,405.13,621.59,405.79,619.42Z"/><path class="cls-77" d="M853.76,490.79c1.68,1.89,1.19,3.38.84,5.76C853,494.52,852.66,493.12,853.76,490.79Z"/><path class="cls-78" d="M193.6,654.68c.51,2.49,0,3.61-1.65,4.67C191.46,657.43,192,656.23,193.6,654.68Z"/><path class="cls-79" d="M936.51,91.59c2.78.57,4.2.53,5.19,2.16C939.63,94.78,938.56,93.72,936.51,91.59Z"/><path class="cls-25" d="M924.12,377.66c2-1.09,3.21-.55,4.08.92a1.26,1.26,0,0,1-.44,1.1C926,380.08,925.14,379,924.12,377.66Z"/><path class="cls-25" d="M3.69,70.25c1.33-2,2.83-1.8,4.7-1C7.14,71.37,5.65,71.15,3.69,70.25Z"/><path class="cls-10" d="M744.92,374.67c.06.35.12.7.17,1.05-.07,2.58.33,5.22-.92,7.66,0-1-.09-2-.13-3.06C744.4,378.44,743.36,376.36,744.92,374.67Z"/><path class="cls-80" d="M53,422.53c-1-.33-.87-1.17-.82-1.94a1,1,0,0,1,1.2-1.08,1.09,1.09,0,0,1,1,1.37C54.19,421.63,54,422.43,53,422.53Z"/><path class="cls-81" d="M87.08,178.53c-3.11-.87-.2-2.54-1.06-4.18,2.46.7,2.1,2.1,2,3.37A1.36,1.36,0,0,1,87.08,178.53Z"/><path class="cls-54" d="M850.86,453.07a1.26,1.26,0,0,1-1.52-1.32,1.13,1.13,0,0,1,1.08-1.26,1.24,1.24,0,0,1,1.51,1.31A1.15,1.15,0,0,1,850.86,453.07Z"/><path class="cls-82" d="M87.08,178.53l1-.81c1.29.72,2.71,1.34,2.5,3.27C88.18,181.6,88.42,179,87.08,178.53Z"/><path class="cls-83" d="M219.38,493.75c.85,0,1.56.23,1.45,1.21a1.4,1.4,0,0,1-1.46,1.42,1.47,1.47,0,0,1-1.52-1.39C217.78,494,218.59,493.83,219.38,493.75Z"/><path class="cls-84" d="M135.91,124.86c.16-.77.4-1.6,1.36-1.46s.82,1.12.82,1.84-.29,1.33-1,1.27C136.25,126.44,135.92,125.7,135.91,124.86Z"/><path class="cls-85" d="M17.18,514c.83-.12,1.33.16,1.52.82.23.84,0,1.52-.95,1.7a1.11,1.11,0,0,1-1.39-.82A1.24,1.24,0,0,1,17.18,514Z"/><path class="cls-86" d="M865.58,539.92a3.47,3.47,0,0,1,4.44.55C868.35,541.36,867.22,541.57,865.58,539.92Z"/><path class="cls-87" d="M942.8,563.45a1.27,1.27,0,0,1-1.45,1.37c-.62,0-1.23-.24-1.33-1a1.3,1.3,0,0,1,1.19-1.62A1.35,1.35,0,0,1,942.8,563.45Z"/><path class="cls-60" d="M797.25,45.9a1.2,1.2,0,0,1,1.26-1.49,1.13,1.13,0,0,1,1.25,1,1.2,1.2,0,0,1-1.26,1.48A1.12,1.12,0,0,1,797.25,45.9Z"/><path class="cls-66" d="M293.91,591.59c-.24,1.11-.76,1.59-1.61,1.64-.65,0-1.29-.13-1.31-.89a1.49,1.49,0,0,1,1.7-1.65C293.15,590.72,293.57,591.32,293.91,591.59Z"/><path class="cls-76" d="M190.52,70.14c.13-1.83,1.32-2.25,2.6-2.54a.64.64,0,0,1,.83.75C193.61,70.17,192.09,69.88,190.52,70.14Z"/><path class="cls-88" d="M434.21,53.51c-1.9-1.45-2-2.81-1.13-4.43C435.23,50,434.6,51.52,434.21,53.51Z"/><path class="cls-63" d="M562.57,47.42c1.17,1,.82,2.32.48,3.63-1.46.22-1.48-.86-1.57-1.7S561.32,47.77,562.57,47.42Z"/><path class="cls-89" d="M199.32,13.46c-2-1.15-1.28-2.74-1.17-4.17C198.9,10.5,200,11.62,199.32,13.46Z"/><path class="cls-3" d="M29.67,262.31c1,.29,1.44.87,1.41,1.69,0,.65-.4,1.22-1.07,1.17a1.2,1.2,0,0,1-1.2-1.51A4.37,4.37,0,0,1,29.67,262.31Z"/><path class="cls-41" d="M47.29,579.46c-.15.22-.41,1-.78,1-1.09.15-1.07-.81-1-1.54s.12-1.31,1-1.24S47.22,578.49,47.29,579.46Z"/><path class="cls-87" d="M80.38,383.24c-.63,0-1.45,0-1.58-1-.11-.83.59-1,1.16-1.08.76-.13,1.7-.07,1.92.74S81.33,383.15,80.38,383.24Z"/><path class="cls-90" d="M878.5,23.66c-.9-.16-1.87-.07-1.68-1.23.11-.7.8-.87,1.44-.85s1.72.1,1.77,1.07C880.1,23.85,878.92,23.32,878.5,23.66Z"/><path class="cls-91" d="M840.56,617.46c1.51-.64,3-.65,5.09.35C843.27,618.79,842,617.67,840.56,617.46Z"/><path class="cls-92" d="M407.88,69.4c.91-.06.93.66,1,1.25s0,1.35-.73,1.5c-.89.19-.93-.63-1-1.22A1.31,1.31,0,0,1,407.88,69.4Z"/><path class="cls-93" d="M253.76,123.52a2.84,2.84,0,0,1,1.74,3C252.83,126.73,251.83,126,253.76,123.52Z"/><path class="cls-94" d="M173.78,40.76c.7,0,1.16.28,1.14,1a1.27,1.27,0,0,1-.95,1.35c-.64.16-1.25.06-1.38-.69C172.43,41.55,173.09,41.12,173.78,40.76Z"/><path class="cls-95" d="M501.61,47.91c.17-1.18-.08-2.54,1.59-3.29.94,1.92-.83,3.49-.61,5.21C500.77,50,501.33,48.85,501.61,47.91Z"/><path class="cls-80" d="M101.73,98.42c-.47.77-1.19.76-2,.64s-1.14-.64-.73-1.2a2.24,2.24,0,0,1,1.59-.52C101.23,97.34,101.81,97.62,101.73,98.42Z"/><path class="cls-32" d="M874.23,683.3c.7.07,1.19.53,1,1.15a2.11,2.11,0,0,1-1.17,1.19c-.62.21-1.12-.21-1.14-.95A1.2,1.2,0,0,1,874.23,683.3Z"/><path class="cls-96" d="M150.34,73.7c2.43,1.49,2.68,3,3.17,5.25C151.55,77.4,151.25,75.87,150.34,73.7Z"/><path class="cls-97" d="M235.83,553.75a3.46,3.46,0,0,1-4,1.52C232.57,553.22,234.29,553.8,235.83,553.75Z"/><path class="cls-98" d="M490.86,14.76c-.25-.35-.86-.85-.82-1.27a1.75,1.75,0,0,1,1.13-1.19c.7-.16,1.05.5,1,1.17S491.88,14.63,490.86,14.76Z"/><path class="cls-66" d="M513.76,13.89c2.21-1,2.91.11,4.32.86C516.22,15.44,515.29,14.91,513.76,13.89Z"/><path class="cls-99" d="M208.87,601.89c.25.22.82.47.84.76.06,1.13-.92,1-1.62,1-.35,0-1-.38-1-.56C207.15,602.14,208,602.06,208.87,601.89Z"/><path class="cls-100" d="M157.06,608.78a5.52,5.52,0,0,1-1.22-1.57.83.83,0,0,1,1-1,1.7,1.7,0,0,1,1.22,1.76C158.13,608.42,158,608.83,157.06,608.78Z"/><path class="cls-101" d="M29.24,461.13a1.13,1.13,0,0,1,1,1.27c0,.76-.59,1-1.26.89a1.14,1.14,0,0,1-1.09-1.2C28,461.4,28.59,461.17,29.24,461.13Z"/><path class="cls-86" d="M102,580.59a6.72,6.72,0,0,1,5.26-.1A6.67,6.67,0,0,1,102,580.59Z"/><path class="cls-102" d="M230.48,511.42c.12,2.39,0,3.53-1.07,4.49C228.89,514.47,228.83,513.25,230.48,511.42Z"/><path class="cls-103" d="M512.45,661a6.87,6.87,0,0,1-5.32.1A7,7,0,0,1,512.45,661Z"/><path class="cls-104" d="M32.8,365.25c-1,1.85-2.17,2.28-4,2.47C29.8,366.07,31,365.65,32.8,365.25Z"/><path class="cls-105" d="M102.54,145.49a1.4,1.4,0,0,1-.94.36c-.7,0-1-.68-.95-1.34s.38-1.25,1.06-1.25S102.71,143.83,102.54,145.49Z"/><path class="cls-106" d="M452.35,664.68a6.12,6.12,0,0,1-4.7.18C449.34,663.75,450.9,664.61,452.35,664.68Z"/><path class="cls-28" d="M13.07,437.65c-.16.22-.37.78-.69.86-.9.21-1-.59-1-1.18s-.16-1.42.8-1.31C12.86,436.11,13.07,436.79,13.07,437.65Z"/><path class="cls-107" d="M232.87,504.32l-1.73,0c-.42-.9-1.62-2.2,0-2.57S232.8,503.08,232.87,504.32Z"/><path class="cls-108" d="M28.06,95.62c-1.18,1.94-2.31,1.85-3.62,1.31C25.16,95.56,26.28,95.52,28.06,95.62Z"/><path class="cls-109" d="M233.07,567.77c.59.15,1.38.16,1.19,1a1.2,1.2,0,0,1-1,.64c-.53-.12-1.32-.49-1.41-.89C231.62,567.61,232.53,567.87,233.07,567.77Z"/><path class="cls-110" d="M564,92.67c-.35-.27-1-.52-1.18-1-.27-.83.54-1.06,1.11-1a2,2,0,0,1,1.4.89C565.71,92.64,564.72,92.37,564,92.67Z"/><path class="cls-99" d="M189.87,554.06c-1.62,1.92-2.55.71-3.91,0A3.9,3.9,0,0,1,189.87,554.06Z"/><path class="cls-111" d="M78.69,578a1.79,1.79,0,0,1-.32-1c-.06-.89.73-.75,1.28-.73s1.29.15,1.31.91S80.3,578,78.69,578Z"/><path class="cls-112" d="M216.18,19.6a3.56,3.56,0,0,1-1.21.54c-.86,0-.94-.65-.84-1.29.08-.46.37-1,.93-.71C215.39,18.3,215.58,18.79,216.18,19.6Z"/><path class="cls-65" d="M813,32.1a1.2,1.2,0,0,1-1.08,1.24,1,1,0,0,1-1.23-1c0-.31.54-.7.92-.88C812.26,31.19,812.83,31.29,813,32.1Z"/><path class="cls-113" d="M746.06,372.58c0-.64.07-1.28.1-1.92.89.22,2.5-.4,2.21,1.32C748.18,373.08,746.94,372.72,746.06,372.58Z"/><path class="cls-114" d="M949.48,523c-.39.27-.76.73-1,.67a1.24,1.24,0,0,1-.71-.91c0-.65.34-1.21,1.07-1C949.1,521.9,949.22,522.52,949.48,523Z"/><path class="cls-115" d="M106.48,417.88c.71,1.09.88,2.31-.3,2.59s-.75-.86-.5-1.49A5.82,5.82,0,0,1,106.48,417.88Z"/><path class="cls-116" d="M824.06,580.22c-.56-2-.86-3.09-1.27-4.58C824.71,576.65,824.75,577.78,824.06,580.22Z"/><path class="cls-117" d="M413.71,608.21c-.4.29-.77.77-1.06.73-.78-.11-.91-.8-.63-1.39.14-.31.68-.43,1-.64Z"/><path class="cls-63" d="M767.33,310.1c-.19.91-.75,1.12-1.34.93a1.2,1.2,0,0,1-.73-.86c0-.74.65-.93,1.26-.75C766.86,309.52,767.11,309.9,767.33,310.1Z"/><path class="cls-118" d="M861.79,346.19c.45.31,1,.48,1.09.79.21.81-.46,1-1.07.95a1.2,1.2,0,0,1-.81-.8C861,346.87,861.46,346.55,861.79,346.19Z"/><path class="cls-63" d="M866.89,354.61c-.19,1-.8,1.15-1.42,1-.33-.1-.79-.58-.77-.87,0-.78.69-1,1.34-.8C866.39,354,866.66,354.41,866.89,354.61Z"/><path class="cls-119" d="M911,549.48c-.24-.21-.77-.43-.83-.75-.19-.94.66-.85,1.18-.84.35,0,.95.35,1,.61C912.47,549.35,911.72,549.34,911,549.48Z"/><path class="cls-46" d="M233.82,653.47c-.28.86-.79,1.22-1.45.94-.34-.14-.53-.65-.78-1a7.25,7.25,0,0,1,1.56-.76C233.32,652.62,233.63,653.23,233.82,653.47Z"/><path class="cls-108" d="M100.77,419.56a2.24,2.24,0,0,1-1,.45c-.7,0-1.16-.45-.83-1.15.12-.27.77-.43,1.16-.4S101,418.75,100.77,419.56Z"/><path class="cls-89" d="M112.67,416.25c-.15.95-.36,1.9-1.63,1.7-.29,0-.79-.68-.72-.85.44-1.11,1.51-.7,2.36-.83Z"/><path class="cls-97" d="M598,40c-.74.24-1.17.54-1.43.43a2.36,2.36,0,0,1-1.32-1c-.17-.48.46-.6.87-.44S597.09,39.52,598,40Z"/><path class="cls-80" d="M743.54,43.84c-.42-1.61-.77-2.58.16-3.51C744.34,41.39,744.29,42.38,743.54,43.84Z"/><path class="cls-120" d="M849.22,331.16c.64.36,1.79.68,1.81,1.07.07,1.33-.91.6-1.44.41-.35-.13-.58-.59-.86-.9Z"/><path class="cls-121" d="M932.23,529.28c.79-.14,1.06.28,1.06.74a3.34,3.34,0,0,1-.45,1.13c-.32-.28-.79-.5-.91-.84S932.13,529.58,932.23,529.28Z"/><path class="cls-94" d="M252.17,506.39l.87,1.09c-.34.19-.7.56-1,.52s-.56-.5-.84-.78Z"/><path class="cls-122" d="M702.88,400.4a3,3,0,0,1,0-3.35A2.76,2.76,0,0,1,702.88,400.4Z"/><path class="cls-123" d="M203.84,580.14c.14.81-.39.91-.8.82a1.55,1.55,0,0,1-1-.71c-.19-.5.19-.92.76-.75A4.1,4.1,0,0,1,203.84,580.14Z"/><path class="cls-124" d="M5.38,447.88c-1-.63-1.54-1.63-.75-2.29,1.2-1,1,.39,1.11,1A3.9,3.9,0,0,1,5.38,447.88Z"/><path class="cls-125" d="M89.64,552.84c-1.29.95-2.42,1.51-2.92.82-.8-1.08.53-1,1.14-1.14A6.33,6.33,0,0,1,89.64,552.84Z"/><path class="cls-126" d="M945.5,313.31c-.29.15-.79.57-1,.47a6.61,6.61,0,0,1-1.2-1.22,2.44,2.44,0,0,1,.81-.37C944.78,312.17,945.39,312.3,945.5,313.31Z"/><path class="cls-127" d="M86.05,353.85c1.64.12,3.44-.68,4.82.87C89.2,354.76,87.51,355,86.05,353.85Z"/><path class="cls-128" d="M798.57,632.67c.12.7-.19,1-.67,1a1.52,1.52,0,0,1-1-.64c-.32-.59.23-.79.65-.75A3.22,3.22,0,0,1,798.57,632.67Z"/><path class="cls-129" d="M501.61,47.91c.33.64.66,1.28,1,1.92-.23.72-.79,1.84-1.36,1.29C500.27,50.21,500.78,48.91,501.61,47.91Z"/><path class="cls-9" d="M714.66,364.23c1.71,1.35.8,3.22,1,4.88C714.62,367.62,714.67,365.92,714.66,364.23Z"/><path class="cls-24" d="M64.46,275.44c-.25.44-.43,1.06-.65,1.07a1,1,0,0,1-1.05-1.15c0-.28.53-.79.75-.75S64.11,275.1,64.46,275.44Z"/><path class="cls-130" d="M371.63,670.3a3.47,3.47,0,0,1-1,.5c-.46.09-.94-.16-.71-.71a1.53,1.53,0,0,1,1-.73C371.43,669.24,371.7,669.6,371.63,670.3Z"/><path class="cls-96" d="M296.1,600.54c.6-.91,1.23-1.53,2.43-1A1.57,1.57,0,0,1,296.1,600.54Z"/><path class="cls-131" d="M198.22,620.27c-.28.15-.65.53-.95.47a1.63,1.63,0,0,1-1-.75c-.28-.52.12-.88.62-.91C197.57,619,198,619.39,198.22,620.27Z"/><path class="cls-132" d="M729,273.29,678.82,248.2c-5.67-.48-10.25-3.71-15.05-6.23-3.36-1.77-4.45-.9-5.6,2.42-1.63,4.67-1.76,9.93-5.17,13.94Q640.36,299.16,627.72,340c-4.59,14.9-9.1,29.84-13.65,44.76-1.81,6-1.82,6-7.58,3q-40.95-21.19-81.89-42.39c-1.82-.94-3.71-1.74-5.56-2.61-3.27-1.44-3.19-4.67-3.92-7.44-.43-1.65-.79-3.31-1.19-5-3.08-9-6.6-18-4.23-27.87.06-.23-.26-.5-.5-.72-2.1-7.8-.86-15.25,2.28-22.55,7.47-17.38,18.35-32.64,29.76-47.54,21.5-28.06,45.26-54.13,69.88-79.46,1.88-1.94,3.52-2.49,6.17-1.66,9.62,3,19.33,5.69,29,8.55,5.3,1.56,8.19,6.09,11.79,9.74,1.43,1.44,3.78,1.56,4.91,3.43,1,1,1.94,2,2.94,3s1.93,2,2.92,2.93,1.95,2,2.95,2.94l2.55,2.56c.69.71,1.38,1.42,2.08,2.11,1,1,1.93,1.94,2.92,2.89s2,2,3,2.92c1.66,1.58,3.45,3,5.2,4.47,9.85,9.07,19,18.84,28.56,28.21,3.37,3.31,6.66,6.69,10,10,3.67,3.61,3.86,3.58,5.77-1.32,8.15-21,15.57-42.23,23.73-63.21.73-1.59,1.29-3.3,3-4.13,5.89-.71,11.53-.24,16.42,3.61,4.54.09,5.49,1.79,4.36,6.47-7.71,32-15,64.1-22.5,96.17-.41,2.6-2.61,2.85-4.53,3.25-5.15,1.08-10.29,2.21-15.5,3C733.67,277.48,731.24,275.51,729,273.29Z"/><path class="cls-4" d="M509.2,301.74a219.83,219.83,0,0,0,3.86,23.07c.41,1.81.59,3.68.87,5.52q-32.34-18.54-64.69-37.1c-13.51-7.76-27-15.58-40.52-23.32-2-1.16-4.2-2.69-6.41-2.88-6.06-.5-8.38-4.48-10.17-9.39-2.37-6.49-6.12-12.41-7.95-19.13a56.63,56.63,0,0,1,24.5,7.75q48.21,27.86,96.49,55.56C506.14,302.37,508,305.65,509.2,301.74Z"/><path class="cls-8" d="M634.91,148.44c4.56-.19,9.12.15,13.65-.95,8-1.91,12.87-6.88,15.52-14.43,1-2.76.86-4.2-2.77-4.59-5.49-.59-9.55-3.79-12.15-8.74-1.62-3.1-2.54-6.26-.07-9.29a6.64,6.64,0,0,1,8.66-1.54c5.63,3.73,8.55.68,12.9-2.48,5.86-4.26,12.27-7.66,16.31-14,9.23,18,6.37,40.79-6.76,54A32.88,32.88,0,0,1,634.91,148.44Z"/><path class="cls-8" d="M775.09,169.23c-5.51-1.41-11-3.16-16.76-2.93a37.43,37.43,0,0,0-.39-5.59c-.41-4.72-2.26-8-7.52-8.73-2.33-.32-4.68-1.68-4.58-4.56s2.37-4,4.77-4.49a31.51,31.51,0,0,1,14,.19c3,1.22,3.28-1.17,4.19-3,1.41-2.77,1-6.59,4.67-8.06,10,9.55,11.42,21,4,32.66C776.61,166.19,775.09,167.31,775.09,169.23Z"/><path class="cls-8" d="M705.31,155.1c3.15-5.43,7.59-9.75,12.16-13.93A30.7,30.7,0,0,1,731,134c3.89-1.07,3.48,1.33,2.85,3.67s-1.81,4.53.69,6.44c3.88,4.76,3.49,6-2.4,7.6a4,4,0,0,0-4.51,3c-.89,2.47.77,3.26,2.41,4.21a2,2,0,0,1,.91,3.09c-5.89,5-12.93,6.86-20.41,7.54a1.77,1.77,0,0,1-1.13-.81,24,24,0,0,1-1.24-2.55C707.27,162.5,703.83,159.42,705.31,155.1Z"/><path class="cls-133" d="M733.79,144.45c-4.49-1.61-1.57-4.39-1-6.71.47-1.88,1.87-4-1.84-3.7a7.47,7.47,0,0,0,5.16-5.29c2.13-6.59,4.88-13,7.17-19.5.94-2.69,1.85-3.88,5-2.6q13.13,5.34,26.5,10c3.15,1.1,3.38,2.34,2.12,5.15a105,105,0,0,0-3.44,10.28c-2.22,3.42-3.17,7.38-4.54,11.14-1,2.78-2.37,2.29-4.12,1-.82-5,2.27-9,3.68-13.34,2.58-7.94,4.24-7.29-5-10.94-3.8-1.5-7.65-2.89-11.47-4.34-5-1.91-5.7-1.66-7.48,3.62-2.32,6.86-4.91,13.61-7.51,20.35C736.36,141.43,736,143.6,733.79,144.45Z"/><path class="cls-134" d="M705.31,155.1q1.89,5.61,3.79,11.24c-1.46,1.57-3.4,1.41-5.27,1.42-8.49,0-17,.08-25.45,0-2,0-4.62.76-5.34-2.39A301.44,301.44,0,0,1,705.31,155.1Z"/><path class="cls-135" d="M729,273.29c3,.23,5,2.61,7.53,3.77,4-.28,6.92,2.29,10,4.26s5.86,4.21,9.16.55c-.2,2.85.18,5.77-1,8.51-1.3,4.12-3.35,4-6.64,1.72-5.5-3.82-11.39-7.08-17-10.78-1.57-1-4-1.56-4-4.2Z"/><path class="cls-136" d="M709.93,168.25l.15.82c.34,1.89-1,2.6-2.35,3.27a12.55,12.55,0,0,1-5,1.09c-12.42,0-24.83,0-37.25,0-1,0-1.85-.38-2.79-.45-1.61-1.3-3.53-2.26-4.58-4.18,3.38.93,6.06-1.85,9.29-1.73.84,1.57,2.23.73,3.38.72,12.14,0,24.28,0,36.42,0A5.49,5.49,0,0,1,709.93,168.25Z"/><path class="cls-137" d="M755.62,281.87a2,2,0,0,0-1.11,1.89c-.08,3.34-1.44,3.09-3.77,1.59-4.62-3-9.15-6.14-14.25-8.29,5.15-1,10.32-2,15.46-3.13,1.75-.39,3.73-.43,5-2.06C756.51,275.2,756.06,278.53,755.62,281.87Z"/><path class="cls-138" d="M709.93,168.25a14.8,14.8,0,0,1-3.58.9c-13.57.07-27.14,0-41.36,0l2.37-2.11a11.83,11.83,0,0,1,5.68-1.76c1.19,1.53,2.89,1,4.4,1,10.55,0,21.11,0,31.66,0A1.82,1.82,0,0,1,709.93,168.25Z"/><path class="cls-139" d="M505.59,603.7c-9.41-4.94-18.65-10.18-27.57-16-1.24-1.76-.13-3.34.45-4.91,5.63-15.23,11.8-30.26,17.44-45.48,4.37-11.83,9-23.55,13.43-35.36,6.13-16.39,12.65-32.62,18.5-49.11.48-1.34.93-2.71,2.29-3.47,7.2,9.22,12.53,19.63,18.94,29.35,4.32,5.8,2.15,11.41-.21,17.24-9.5,23.48-18.26,47.24-27.31,70.9-4.49,11.75-9.46,23.32-13.41,35.28C507.76,603.32,507.41,604.84,505.59,603.7Z"/><path class="cls-140" d="M453.31,573.49a169.84,169.84,0,0,1-21-12.17c.65-4.72,2.44-9.13,4.17-13.47,14.54-36.38,28-73.2,42.3-109.67,4.08-10.38,8.32-20.73,11.95-31.3.64-1.87,1.14-4,3.41-4.8a169,169,0,0,1,17,21.77c1.54,2.19.38,4.29-.35,6.3-6.24,17.19-13,34.18-19.47,51.27S478.13,515.83,471.5,533c-4.82,12.5-9.4,25.09-14.4,37.52C456.45,572.19,456.09,574.5,453.31,573.49Z"/><path class="cls-141" d="M453.31,573.49c2.43-.17,2.26-2.37,2.82-3.84q13.71-35.62,27.31-71.3,13.31-34.74,26.58-69.48a36.3,36.3,0,0,0,1.18-5c5,4.38,7.94,10.39,12,15.55,2.49,3.21,4.66,6.67,7,10-3.65,11.71-8.49,23-12.7,34.46-4.48,12.24-9.34,24.32-13.86,36.53-8.34,22.51-17,44.9-25.54,67.34A247.43,247.43,0,0,1,453.31,573.49Z"/><path class="cls-142" d="M412.47,549.91a176.09,176.09,0,0,1-19.82-11.38c3.21-8.55,6.38-17.12,9.68-25.64q15.62-40.36,31.18-80.75c7.86-20.45,15.62-40.95,23.58-61.37.84-2.15,1.39-4.61,3.93-5.61,6.22,4.88,10.6,11.49,16.1,17,1.54,2.19.41,4.29-.37,6.29-9.83,25.42-19.45,50.93-29.45,76.29q-9.18,23.31-17.93,46.78c-4.23,11.37-9,22.54-12.86,34.05C415.87,547.53,415.64,550.22,412.47,549.91Z"/><path class="cls-143" d="M461,365.16c-6.28,13.19-10.83,27.08-16.16,40.65-8.25,21-16.31,42.08-24.38,63.16-7.62,19.9-15.11,39.86-22.74,59.76-1.32,3.43-2,7.26-5.09,9.8a150.5,150.5,0,0,1-18-10.41c9.81-25.75,19.82-51.42,29.62-77.17,7.83-20.61,15.93-41.13,23.65-61.78,4.58-12.25,9.33-24.43,14.12-36.59.57-1.46,1.14-3,2.89-3.5A154.6,154.6,0,0,1,461,365.16Z"/><path class="cls-144" d="M412.47,549.91c3.5-2.54,3.59-6.82,5-10.34,8.44-21.46,16.58-43.05,24.86-64.58,4.33-11.25,8.82-22.46,12.93-33.81,4.75-13.12,10.49-25.88,15.05-39.06,2.29-6.62,5.85-12.84,6.83-19.91,6.27,6.11,11.59,13.05,17,19.87Q485.6,424.25,477,446.44c-12.05,31.37-23.84,62.85-36.28,94.07-2.76,6.94-4.16,14.48-8.43,20.81C425.29,558.25,418.9,554.05,412.47,549.91Z"/><path class="cls-145" d="M505.59,603.7c2.92-4,3.63-8.94,5.43-13.4,7.33-18.15,14.54-36.35,21.36-54.7,5.88-15.85,11.69-31.71,18.13-47.34,1.51-3.67-1.74-6.23-1.44-9.5,6.08,9.15,10.33,19.43,16.42,28.48,6.38,9.48,5.06,17.51.58,27.12-5.49,11.75-9.17,24.34-13.84,36.49s-9.76,24.46-14.52,36.74c-1.55,4-2.66,8.22-4,12.34Q519.31,612.43,505.59,603.7Z"/><path class="cls-146" d="M444.93,349.08c-5,12.71-10.13,25.39-15.08,38.13q-9.89,25.49-19.57,51c-6.61,17.46-12.76,35.1-19.77,52.4-4.6,11.37-8.82,22.87-13.21,34.31a4.79,4.79,0,0,1-2.65,3.16,104,104,0,0,1-15-8.63c6-16.58,12.57-32.94,18.83-49.42,10.87-28.57,22.05-57,32.78-85.62,5.2-13.86,10.79-27.56,15.85-41.47.91-2.5,1.61-5.14,3.59-7.12Z"/><path class="cls-147" d="M348.22,512.93c-4.47-2.38-9.07-4.56-13.14-7.64a21.48,21.48,0,0,1,2-8.21c10.94-27.38,21.19-55,31.83-82.51q14.43-37.26,28.69-74.59c2.26-5.88,4.42-11.8,6.87-17.61.85-2,1.58-4.16,3.52-5.5,5,2.43,8.59,6.5,12.31,10.42.58,1.34-.18,2.45-.63,3.6-10.66,27.26-21,54.64-31.54,82q-18.75,48.7-37.42,97.43C350.29,511.43,350.39,513.32,348.22,512.93Z"/><path class="cls-148" d="M323.68,498.69a80.69,80.69,0,0,1-13.23-7.6c12.08-30.56,23.67-61.3,35.41-92,4.78-12.48,9.43-25,14.58-37.34a14.09,14.09,0,0,0,1.25-6.89,6.31,6.31,0,0,1,.78-2.79c.63-6.18,5.8-10.15,7.52-15.94,3.11-10.55,8-20.49,11.5-30.94.78-2.34,1.57-4.82,3.81-6.35l7.67,4.83c2.12,1.66,2.31,4.21,3,6.53.54,2.26-.15,4.34-.92,6.43-8.78,23.6-18.18,47-27,70.53-7.58,20.18-15.39,40.28-23.08,60.42q-9.18,24-18.44,48C326,496.92,326,499,323.68,498.69Z"/><path class="cls-149" d="M348.22,512.93c5.7-14.59,11.47-29.15,17.09-43.77,8.34-21.71,16.51-43.47,24.85-65.18,9.29-24.2,18.72-48.35,28-72.56a36.75,36.75,0,0,1,2.18-4.13c3.7,1,5.4,4.37,8,6.7.78.7,1.17,1.82,2.44,1.87-2.39,9-6.13,17.43-9.34,26.08-4.31,11.63-8.85,23.17-13.33,34.73-5.34,13.75-10.76,27.47-16.06,41.24-5.07,13.19-10,26.42-15,39.63q-7.18,18.91-14.42,37.82c-.61,1.62-1.07,3.33-2.86,4.13A62.9,62.9,0,0,1,348.22,512.93Z"/><path class="cls-150" d="M323.68,498.69c3.94-10.05,7.92-20.09,11.82-30.15q12.27-31.6,24.47-63.23c7.21-18.75,14.3-37.55,21.44-56.33,4.29-11.3,8.5-22.63,12.92-33.87a9,9,0,0,0,.48-5c4.08,1.27,7.14,4.57,11.29,5.68l1.91,1.07c-7.86,20.15-15.8,40.26-23.57,60.44-7.43,19.31-14.65,38.71-22,58-4.42,11.57-9.3,23-13.37,34.68-3.86,11.1-9.33,21.58-12.39,33a8.78,8.78,0,0,1-1.56,2.29A60.51,60.51,0,0,1,323.68,498.69Z"/><path class="cls-8" d="M263.33,411.37c4.49-2,8.94.05,13.4.24,5.28.22,10.54,1.06,15.82,1.63,1.49-.31,2.33.75,3.29,1.56a18.33,18.33,0,0,1,2.1,2.39c3.3,4.51,7.64,8,11.5,12,3.62,4.35,3.54,5-1.1,8.2a50,50,0,0,0-6,4.35,7.41,7.41,0,0,1-5.94,2.11c-3.95-.77-6.87-3.91-10.82-4.69-4.07-2.22-7.7-5.18-11.9-7.19-4-3.33-4-3.33-5.9,1.72-.87,2.34-2.05,4.47-5,4.09-2.77-.36-3.31-2.83-3.48-5-.51-6.49.84-12.82,2.09-19.14A3.68,3.68,0,0,1,263.33,411.37Z"/><path class="cls-151" d="M299.07,373.66l6-43.52a6.3,6.3,0,0,1,1.1-.89c4-1.25,7.91-3,12-4.08,2-.18,3.81-1,5.81-.94,2.4.46,5.16.1,6.64,2.78a14.11,14.11,0,0,0-4.08,9.27,5.61,5.61,0,0,1-.39,1.85c-3.93,9.66-5.13,20.08-8.35,29.93a7.9,7.9,0,0,0-.42,5c-1.14,2.2-3.49,1.81-5.33,2.52A70.23,70.23,0,0,1,302,377.15C299.38,377.31,298,376.52,299.07,373.66Z"/><path class="cls-152" d="M385.3,298.86c-5.28,14-10.53,28.07-15.87,42.09-1.58,4.15-5.69,7.06-5.94,11.89-.22-.22-.56-.47-.56-.73.09-6.37-3.38-10.85-7.81-14.83-1.09-2.15.12-4,.89-5.81,5.79-13.88,11-28,16.05-42.14C377.13,291.59,381.21,295.24,385.3,298.86Z"/><path class="cls-8" d="M406.1,315.8c-4.84.26-8.27-2.3-11.29-5.68-.61-2.14-1.23-4.28-1.84-6.43,5.27-.32,8.58-4.07,12.31-7.06,1.41-1.12,3.33-1.85,2.53-4.42-.47-1.51,1.05-1.7,2.1-1.85,4.49-.64,9-1.29,13.5-1.81,3.64-.42,6.06,2.22,8.87,3.82,1.41.81.59,1.82-.14,2.72C424.93,303.84,417.67,312.53,406.1,315.8Z"/><path class="cls-153" d="M330.44,327.27a15.87,15.87,0,0,0-6.66-1.93c.4-2.76,4.23-3.44,4-6.59.64-1.83,1.2-3.67,1.83-5.5.37-1,.7-2,1-3.07s.65-2.09,1-3.13c1-2.25,1.05-4.8,2.14-7a1.49,1.49,0,0,1,1.1-.47l.36.21c.07.49.45.58.48.2.36-3.63,2.13-6.85,2.91-10.35a11.93,11.93,0,0,1,3.58-6.46c2.87-2.06,6-3.73,9-5.52,1.16-.68,2.34-1.63,3.8-.61l1,1c2.43,1.84,1.06,4.06.35,6-4.38,11.89-9.05,23.68-13.65,35.49-1.3,3.34-2.4,6.76-3.9,10C335.65,330,332.72,329.86,330.44,327.27Z"/><path class="cls-154" d="M305.77,217.48c0-8.73,5.63-13.95,15.63-14.17,7.69-.16,15.39.08,23.09-.08,3.61-.07,5.27,1.29,6.1,4.92.86,3.78.35,7.49.62,11.22-13.83-.71-27.68-.22-41.51-.49A5.85,5.85,0,0,1,305.77,217.48Z"/><path class="cls-155" d="M338.91,329.17c-1.61-3.61,1.18-6.2,2.26-9.1,4.73-12.71,9.72-25.33,14.57-38,.48-1.27,1.06-2.65.22-4.05a37.56,37.56,0,0,1,9.49,6.6c1.33,2-.12,3.57-.76,5.25-5.47,14.31-11.35,28.47-16.05,43.06-3.41,1.65-5.67-1.43-8.52-2.07A2.38,2.38,0,0,1,338.91,329.17Z"/><path class="cls-156" d="M348.36,333c-1.41-2.28,0-4.23.77-6.22q8.13-21.1,16.32-42.18a13.1,13.1,0,0,1,6.61,4.72c1.55,3.33-.49,6.14-1.67,8.83-5.31,12.14-8.72,25-14.79,36.87-.22.43.2,1.18.33,1.78C352.38,337.59,350,336.05,348.36,333Z"/><path class="cls-157" d="M240.1,450.49a18.16,18.16,0,0,1-6.54-3.8c8-19.5,14.95-39.41,22.91-58.93,1-2.56.61-5.29.69-8,0-1.59,0-3.22,1.41-4.36,1.62,5.94.53,12,.86,18,.57,7.32.94,14.39-2.25,21.57-4.59,10.32-8.52,20.95-12.43,31.57C244,448.6,243.63,451.56,240.1,450.49Z"/><path class="cls-158" d="M305.77,217.48c12.45,0,24.89.06,37.34,0a14.33,14.33,0,0,1,8.1,1.94v8.52c-1.66,1.51-3.73,1.51-5.77,1.52q-16.95.06-33.89,0c-2,0-4.11,0-5.78-1.52Z"/><path class="cls-159" d="M240.1,450.49c2.16-.18,2.6-1.87,3.23-3.51,5-13,9.61-26,15.44-38.65,2.06-4.46.32-9.9.66-14.88,1.68,3.59.8,7.43.82,11.13,0,2.9.61,5.18,3.08,6.79-.3.7-.6,1.41-.91,2.11-1.89,7.38-3.49,14.79-2,22.47a6.2,6.2,0,0,1-.23,3.25c-1.73,5.22-3.61,10.4-5.77,15.46-.52,1.2-.91,2.85-2.89,2.47A64.4,64.4,0,0,1,240.1,450.49Z"/><path class="cls-160" d="M258.57,375.44l-.18,4.81c-1.35,1.28-3,1.42-4.77,1.42-2.79-.09-5.59.13-8.38,0-3.63-.29-7.28.28-10.91-.21a6.79,6.79,0,0,1-1.65-.48c-2.77-1.57-3.49-3.7-1.74-6.48l26.58-20.73C258.74,361,258.44,368.21,258.57,375.44Z"/><path class="cls-161" d="M352.15,244c-1.85,1.64.5,4-.92,5.68a6.87,6.87,0,0,1-4.85,1.48q-17.92.14-35.85,0A7.56,7.56,0,0,1,306,250.1c-1.37-2.62-.56-5.36-.47-8.06,1-2,3-2.25,4.84-2.28q18.11-.27,36.21,0a6.52,6.52,0,0,1,4,1.17C351.62,241.68,351.49,243,352.15,244Z"/><path class="cls-162" d="M207.34,269.58c-5.16-6.16-10.21-12.4-15.53-18.41-2-2.21-1.36-3.3.66-4.78a74.92,74.92,0,0,0,8.1-6.51c2.63-2.53,3.62-1.44,5,1.26,3,5.91,6.23,11.65,9.38,17.47A46.79,46.79,0,0,1,207.34,269.58Z"/><path class="cls-163" d="M355,277l-12.36,7c-1.53,0-1.56-1.11-1.65-2.19a6.45,6.45,0,0,1,.25-1.22c.33-1,.6-1.95.9-2.93.62-1.73,1.14-3.5,1.72-5.25a34.5,34.5,0,0,0,1.73-6,9.58,9.58,0,0,1,.37-1.23c.7-1.82,1.21-3.71,1.78-5.58,1.4-2.85,1.27-6.33,3.63-8.77,1.82-.43,2.42,1.07,3.27,2.11,3.55,4.35,6.88,8.91,10.66,13.05,2.52,2.75,1.75,4-1.09,5.52C361.05,273.18,358.06,275.17,355,277Z"/><path class="cls-164" d="M348.44,260.25a11,11,0,0,1-1.77,5.62c-11.29.86-22.6.21-33.9.35-3.5,0-5.92.83-5.62,4.94.15,2.26,0,4.5,0,6.76-.25,1.86.54,4.2-2.25,4.89l0-22.72c.85-1.18.15-2.95,1.49-4a7,7,0,0,1,4.47-1.27c11-.14,22.08-.21,33.12,0C348.48,255,348.94,255.75,348.44,260.25Z"/><path class="cls-165" d="M299.07,373.66c.05,1.81.35,2.77,2.76,2.23a95,95,0,0,1,10.57-1.28c.48,3.93-1.27,7.45-2.61,10.85-3.44,8.81-6.83,17.63-10.27,26.45-.72,1.86-1.14,4.66-4.43,3.53l-2.54-2.2c2.59-9.05,3-18.47,4.73-27.65C298,381.63,297.62,377.51,299.07,373.66Z"/><path class="cls-166" d="M305.78,257.24c0,1,.14,2.15-.94,2.85,0-10.74-.42-21.5.93-32.2h45.44c0,5.38,1.57,10.68.94,16.1a2,2,0,0,1-.94-1.9c-1.12-5.68-4.94-6.46-10-6.23-8.44.37-16.92.37-25.35,0-5.1-.23-8.92.55-10,6.23v7.58C307.72,252.19,307.3,254.72,305.78,257.24Z"/><path class="cls-167" d="M305.78,257.24v-7.57h45.45c0,.39.09.77.14,1.16a28.23,28.23,0,0,1-2.93,9.42c0-2.14,0-4-3.14-4-12.13.12-24.26,0-36.39.09A12.2,12.2,0,0,0,305.78,257.24Z"/><path class="cls-152" d="M304.87,282.81c1.5-1.35.68-3.15.91-4.74,1.16-2.09,3.18-2.37,5.25-2.4,8.74-.13,17.49-.21,26.23,0,4.56.12,5,.83,4.56,5.27l0,0c-1,1.16-.28,3.5-2.56,3.81-7,.89-14.12.38-21.18.38-5,0-9.89-.52-13.21,4.28Q304.88,286.11,304.87,282.81Z"/><path class="cls-155" d="M304.89,289.41c.33-5.7,4-5.92,8.57-5.76,8.79.32,17.59.1,26.39.1,1.22,2.68-.48,4.62-1.7,6.68-2.06,1.44-4.45,1.31-6.79,1.33-6.41.06-12.82-.08-19.23.08-1.87.05-4.29-.54-4.95,2.31-.37,1.49,0,3.45-2.27,3.78Q304.9,293.67,304.89,289.41Z"/><path class="cls-168" d="M304.91,297.93c1.27-1,.74-2.48.86-3.77a3.24,3.24,0,0,1,1.6-1,144.34,144.34,0,0,1,27.26,0,2.88,2.88,0,0,1,1.59.95c1.23,2.21.2,4-1.1,5.71h-.94c-1.27,2.37-3.57,2.23-5.73,2.26-5.77.09-11.54.06-17.31,0-2,0-3.79.17-4.21,2.64a5.28,5.28,0,0,1-.64,1.41,1,1,0,0,1-1.36.32Q304.92,302.21,304.91,297.93Z"/><path class="cls-169" d="M328.55,318.77c.9,4-2.62,4.79-4.77,6.57l-5.7,1c-.59-.19.72-1.27-.43-1.08a14.62,14.62,0,0,1-4.68.46c-3.73-.62-5.93,1.06-7.17,4.4l-.74.05c0-2.53-.07-5.07-.1-7.6.88-1.4-.45-3.58,1.6-4.57C313.93,317.27,321.31,316,328.55,318.77Z"/><path class="cls-170" d="M305.78,318.77c-.13,1.29.39,2.72-.82,3.77q0-4.73,0-9.43a1.31,1.31,0,0,1,1.32.59A4.36,4.36,0,0,1,305.78,318.77Z"/><path class="cls-171" d="M305.77,313.09l-.82,0q0-3.32,0-6.63l.84,0a3.49,3.49,0,0,1,1.11,2.59,6.54,6.54,0,0,1-.59,3.54Z"/><path class="cls-152" d="M362.54,354.67c1.42,2.73,0,5.17-.91,7.58-6.46,16.83-13,33.63-19.49,50.45q-14.4,37.28-28.85,74.55c-.55,1.41-.41,3.68-2.84,3.84a92.53,92.53,0,0,1-13.27-7.57c4.89-9.19,8.14-19.07,11.89-28.74,9.33-24.07,18.51-48.2,27.79-72.28,2.16-5.58,3.9-11.32,6.71-16.63,4-3.5,9.49-4.58,13.6-8C358.75,356.54,359.91,354.3,362.54,354.67Z"/><path class="cls-156" d="M344.58,366.08c-9.52,24.89-19.27,49.7-28.62,74.67C311,454,305.72,467,300.71,480.24c-.62,1.64-1.36,3.25-3.53,3.28a35,35,0,0,1-7.79-4.57,95.46,95.46,0,0,1,6.1-17.24c2.25-5.19,4.09-10.52,6-15.82a7.72,7.72,0,0,0,.3-5.06,44.6,44.6,0,0,1,5.66-4.12c3.85-2,4.46-4.2,1.09-7.16.7-3.92,2.49-7.46,3.92-11.13,6.2-15.85,12.51-31.67,18.06-47.77,2.25-3.08,6.11-2.87,9.08-4.48C341.27,365.62,342.91,364.69,344.58,366.08Z"/><path class="cls-172" d="M233.82,380.32h11.36c-7.48,9.95-9.69,22.22-14.38,33.38-2.92,6.95-5.77,14-8.41,21.07-.62,1.69-1.26,3.72-3.82,3.35a45.3,45.3,0,0,1-9.63-5.57,11.15,11.15,0,0,1,1.25-4.53c5.8-14.14,10.87-28.56,16.58-42.74C228.2,381.71,230,379.81,233.82,380.32Z"/><path class="cls-173" d="M218.57,438.11c4.4-4,5.1-9.92,7.25-14.95,5.09-11.88,9.22-24.18,13.54-36.37,1.1-3.11,2.53-5.53,5.82-6.48h8.53c-3,9.54-6.72,18.81-10.38,28.1-4,10.07-7.29,20.39-11.86,30.21-.95,2,0,4.43-1.5,6.28Z"/><path class="cls-174" d="M233.82,380.32c-3,.88-4.8,2.54-6,5.86-5.32,14.54-11.16,28.89-16.81,43.31-.46,1.17-.85,2.38-2.06,3.05a34.74,34.74,0,0,1-8.37-4.83c-.54-2.76.27-5.32,1.32-7.8,5.19-12.33,9.52-25,14.48-37.41.47-1.17.77-2.41,2.08-3,4.88-1,9.71-1.19,14.42.79Z"/><path class="cls-175" d="M230,444.9c-1.67-3.8.53-6.94,1.79-10.23q7.67-20,15.4-39.95c1.91-4.92,3.27-10.1,6.55-14.41l4.69-.06c1.05,7.35-3.14,13.27-5.48,19.66q-7.6,20.73-15.65,41.31c-.76,1.94-.61,4.94-3.71,5.47A5.68,5.68,0,0,1,230,444.9Z"/><path class="cls-176" d="M217.73,380.3c.22,2.78-.94,5.19-1.92,7.68-4.48,11.36-8.85,22.76-13.45,34.07-.76,1.87.06,4.19-1.79,5.66a43.05,43.05,0,0,1-9.64-5.57c3-11.55,8.25-22.26,12.3-33.41,1.28-3.55,1.61-7.82,5.39-10.12C211.91,377.83,215.08,377.7,217.73,380.3Z"/><path class="cls-5" d="M690.41,587.62c-4.64-.16-9.46-.84-13.37-4.23s-3.73-7.1.09-10.41c6.28-5.43,20.24-5.5,26.56-.12,4,3.38,3.8,8-.49,11.13C699.5,586.71,695.2,587.5,690.41,587.62Z"/><path class="cls-177" d="M208.27,379.37Q201.15,397.68,194,416c-.84,2.13-.86,4.69-3.07,6.15a33,33,0,0,1-8.34-4.86c-.57-4.75,1.62-8.86,3.37-12.94,3-7,5.35-14.31,8.21-21.39.69-1.72,1.31-3.55,3.25-4.39a22.09,22.09,0,0,1,9.54-.13A2.92,2.92,0,0,1,208.27,379.37Z"/><path class="cls-178" d="M251.55,457.13c3.79-8.46,8.29-16.58,8-26.44-.18-5.77-.19-11.83,2.87-17.21-.88,6.21-2,12.41-1.82,18.71.07,1.82-.4,4.63,2.57,4.75,2.77.1,3.48-2.22,3.87-4.51.08-.46,0-.95.16-1.4.43-1.63.47-3.8,2.43-4.2,1.75-.36,2.27,1.87,3.49,2.76a8.45,8.45,0,0,1,1.41,1.8c1.93,1.13,1.68,2.76,1,4.49-3.23,8.63-6.61,17.2-10,25.75-.42,1-.68,2.59-2.5,2.07A61.8,61.8,0,0,1,251.55,457.13Z"/><path class="cls-179" d="M263,463.7c4.77-9.58,7.78-19.88,12.07-29.67.44-1-.27-1.78-.56-2.64,4.18,1.59,7.68,4.34,11.36,6.78,1.2,1.56.2,3-.31,4.43-2.91,8.15-6.09,16.19-9.44,24.17-.6,1.42-.91,3.65-3.49,2.52A41.38,41.38,0,0,1,263,463.7Z"/><path class="cls-180" d="M196.91,379.35l-14.32,37.93a39.08,39.08,0,0,1-9.64-5.56c.71-5.23,3.15-9.85,5.1-14.65a162.55,162.55,0,0,0,6-15.89c.59-2.05,1.43-3.86,3.77-4.4C190.91,377.46,194.73,375.52,196.91,379.35Z"/><path class="cls-181" d="M272.65,469.29c3.55-2.18,3.58-6.35,5.05-9.59,3.17-7,5.51-14.33,8.19-21.53,3.92.55,6.83,3.36,10.4,4.69-.82,5.32-3.43,10-5.26,15q-2.44,6.63-5.29,13.1c-.86,2-1.74,4.29-4.77,3.17A36.13,36.13,0,0,1,272.65,469.29Z"/><path class="cls-182" d="M174.15,342.56a8.79,8.79,0,0,1,2.93,3.57c-2.19,2.33-2.75,5.09-2.57,8.24a111.37,111.37,0,0,1,0,11.7,27.38,27.38,0,0,0,1.56,10.44c-5.05-.94-10.34-.62-15.15-2.82-3.86-7-2.69-14.15-.55-21.31C163.72,347.37,169.54,345.81,174.15,342.56Z"/><path class="cls-183" d="M176.08,376.51a4.9,4.9,0,0,1-2.92-5.12c.24-7.17.28-14.36,0-21.52-.14-3.28.62-4.58,3.93-3.74,4.24,3.48,6.9,8.29,10.35,12.43-.19,4.89-1,9.81.6,14.62-.94,2.38-3.3,3.26-5,4.82-1.26.64-2.5,1.46-4,.6C179.87,375.33,177.25,376.94,176.08,376.51Z"/><path class="cls-155" d="M281,474.1c2.36-.06,3.1-1.86,3.78-3.63,2.95-7.57,5.81-15.17,8.81-22.72a41.3,41.3,0,0,1,2.73-4.89c2.31.62,3.8-1,5.53-2,1.95.19,2.43,1.52,1.85,3-4.46,11.53-9,23-13.55,34.52-.1.25-.48.39-.73.58A32.26,32.26,0,0,1,281,474.1Z"/><path class="cls-184" d="M179,378.6l3.31-1.3c1.73-.49,3.46-1.48,5.11.18-3.56,5.74-4.5,12.57-7.62,18.48-2.69,5.09-3.51,11-6.87,15.76-4.52-1.88-8.83-4-11.24-8.67,1.8-.93,2.66,1.09,4.07,1.56,2.91-6.71,5.42-13.31,8.13-19.82a2.91,2.91,0,0,0,0-2.69Z"/><path class="cls-185" d="M173.91,382.1c2.67.27,1.39,2.09,1,3.12-2.72,7-5.6,14-8.53,21.24l-4.65-3.41c-3.93-6.58-1.54-13.48,6.13-17.69C169.86,384.26,171.89,383.19,173.91,382.1Z"/><path class="cls-186" d="M161.87,351.87c-3,7.16-1.94,14.49-.94,21.82a40.6,40.6,0,0,1-11.36-1.91c-2.44-4-1.23-8.29-1.12-12.5a5,5,0,0,1,2.93-3.64,42.71,42.71,0,0,0,5.82-2.91C158.61,351.9,160,350.61,161.87,351.87Z"/><path class="cls-187" d="M152.4,356.62a2.91,2.91,0,0,0-2.82,1.92,33.33,33.33,0,0,1-14.22,8.5l-1.87,0c0-1.88-.36-3.84.06-5.62,1-4.47-1.05-5.41-4.84-4.83.21-2.29,2.1-1.84,3.52-2.17a26.65,26.65,0,0,0,5.89-.71,48.31,48.31,0,0,0,6.55-.95A44.62,44.62,0,0,1,150,352C152.47,352.65,153.87,353.87,152.4,356.62Z"/><path class="cls-188" d="M135.36,367a110.37,110.37,0,0,1,14.22-8.5q0,6.63,0,13.24C144.76,370.43,139.36,370.85,135.36,367Z"/><path class="cls-132" d="M99.15,338.51c8.06-18.21,16.11-36.42,24.46-55.28l8,9.31q10.76,12.52,21.47,25.08c1,1.16,2.44,2.08,2.41,3.89-2.89,3.64-7.48,2.63-11.16,4.09-3.72.28-7,2.24-10.63,2.86a49.7,49.7,0,0,0-12.24,4.33c-1.24.66-2.81,1.24-3.14,2.62-.92,3.79-3.94,4.39-7,5.14a24.08,24.08,0,0,1-4,.41C104.46,340.72,101.26,341.4,99.15,338.51Z"/><path class="cls-189" d="M152.4,356.62c.11-2.05-.39-3.63-2.83-3.77-.11-2.89.71-5.64,1.27-8.43,2.58-2.36,1.89-6,3.4-8.78.41-.66,1.16-.92,1.89-1.51.4-.13-.12-.29-.18-.21-.86,1-1.83.8-2.77,0,.52-4.16-1.61-9,3-12.13,6.5,6.47,12.19,13.64,18,20.74-1.72,3.72-5.89,4.22-8.67,6.54-1.16,1-2.92,1.17-3.61,2.77C158.25,352.54,155.81,355.53,152.4,356.62Z"/><path class="cls-190" d="M156.19,321.82c-1.65,2.9-2.56,6-1.68,9.28.39,1.46-.57,1.92-1.16,2.73.19,1.07,1.36,1.17,1.89,1.9-2.1,2.5,1,7.27-3.77,8.6-1.73.83-3.18-.6-4.82-.55-2.54-.63-5.79.17-6.83-3.45,1-3.16.85-6.44.86-9.7,0-2.63.51-5,3.21-6.17l11.59-2.95A.58.58,0,0,1,156.19,321.82Z"/><path class="cls-191" d="M187.44,377.48l-5.1-.17q2.53-1.92,5.09-3.82c2.24-2.79,5.94-3.65,8.31-6.27,4,3.93,9.93,2.87,14.44,5.5-.77,2.29-.28,5.12-2.86,6.64H196.91C194,377.42,190.4,379.11,187.44,377.48Z"/><path class="cls-192" d="M207.32,379.36c2.09-1.72-.78-5.59,2.86-6.64,3.45.79,7,1.24,10.3,2.46,3.73,1.38,7.1,1.72,10.46-.65,0,2.12-.27,4.37,1.93,5.76H217.73c-3.13-.48-6.24-1.32-9.46-.93Z"/><path class="cls-193" d="M195.74,367.22c-.9,4.57-5.33,4.46-8.31,6.27-2.37-5-2.68-10,0-14.93C191,360.71,192.65,364.64,195.74,367.22Z"/><path class="cls-194" d="M99.15,338.51c2.67,2.26,5.88.52,8.76,1.19,1.11.75,2.94-.1,3.63,1.6.75,4.85,1.68,9.71-.79,14.38l-4.74,0c-2-2.43-1.35-5.33-1.3-8.05.06-3-.64-5.5-3.44-7l-2.88,0C98.35,339.74,98.32,339,99.15,338.51Z"/><path class="cls-195" d="M653,258.33c1.93-6.61,3.87-13.22,5.9-20.13l19.92,10C670,251,661.58,254.88,653,258.33Z"/><path class="cls-127" d="M93.63,354.65,91.84,352c2.52-.76,5.61,3.06,7.74-1,1,1.21,1,2.25-.68,2.67S95.39,354.34,93.63,354.65Z"/><path class="cls-196" d="M132.52,355.67c-1.31.17-2.78-.35-3.81.95l-11.33,0,1-.91a5.8,5.8,0,0,1,4.12-1.28c.46,0,1.1.11,1.35-.17,1.89-2.11,1.09-10.53-1.15-12.55a3.24,3.24,0,0,1-1.72-1.28,1.34,1.34,0,0,1,.62-1.34,8.36,8.36,0,0,1,5.64-.34c4.42.43,6.18,3,5.79,7.26C132.69,349.21,133.67,352.49,132.52,355.67Z"/><path class="cls-197" d="M121.18,340.54h1.88a18.34,18.34,0,0,1,0,15.14h-4.73V340.55A2,2,0,0,1,121.18,340.54Z"/><path class="cls-198" d="M101.27,340.57c3.44-.5,5.19.53,4.82,4.45-.32,3.52-.07,7.09-.08,10.64l-3.84-.06C100.33,350.68,101.75,345.57,101.27,340.57Z"/><path class="cls-199" d="M110.75,355.68q0-7.57,0-15.14c1.26-.74,2.53-1.14,3.79,0,0,3.86-.16,7.73,0,11.58C114.75,355.1,113.43,356,110.75,355.68Z"/><path class="cls-200" d="M114.55,340.54h-3.79c-1,0-2.11.14-2.85-.84l3.83-.22c3.14.15,6.33-2.25,9.42.2,0,.29,0,.57,0,.86h-6.63Z"/><path class="cls-2" d="M708.13,171.1l2-2c7.2-1.65,14.51-3,20.54-7.76a3.62,3.62,0,0,1,3.9-.74c6.7,2.44,13.56,4.47,20.05,7.49a3.13,3.13,0,0,1,1.79,2q-11.05,30.07-22.11,60.13c-1.13,3.08-2.29,6.14-3.68,9.88l-44.31-43.79c-.93-3.11,2.34-4.09,3.18-6.3a19.14,19.14,0,0,1,2-2.3c1-1,2-1.93,2.94-2.93s2-1.95,2.92-2.95c1.12-1.13,2.28-2.21,3.33-3.41a20.79,20.79,0,0,0,1.37-2,11.52,11.52,0,0,1,1.16-1.45C704.56,173.38,706.45,172.37,708.13,171.1Z"/><path class="cls-201" d="M756.36,170.09c-7.53-2.85-15-5.74-22.59-8.53a11.61,11.61,0,0,0-3.15-.25c0-1.47-1.27-1.66-2.26-1.89-3-.7-3.27-2.44-1.93-4.79,1.13-2,.9-6,5.13-3.54.56.34.68,1.17,1.15,1.43,8.19,4.5,16.5,8.68,26.16,8.86.69,1.74,1.08,3.44-.54,4.92Z"/><path class="cls-202" d="M708.13,171.1a16.13,16.13,0,0,1-4.56,4.82,369.42,369.42,0,0,1-38.09-.07,6.25,6.25,0,0,1-2.83-2.85c1.39-1.56,3.25-.93,4.9-.93q16.34-.09,32.66,0A26.44,26.44,0,0,0,708.13,171.1Z"/><path class="cls-203" d="M665.48,175.85a145.85,145.85,0,0,1,38.09.07l-.84,1a6.73,6.73,0,0,1-4.54,2.15c-10,0-19.92.6-29.86-.34A6.35,6.35,0,0,1,665.48,175.85Z"/><path class="cls-204" d="M668.33,178.68c1.38-1.55,3.22-.92,4.87-.93q12-.09,24,0a15.26,15.26,0,0,0,5.53-.87l-1.48,1.73c-2.37,2.7-5.38,3.54-8.89,3.38-7.05-.32-14.13.48-21.18-.47A6.3,6.3,0,0,1,668.33,178.68Z"/><path class="cls-205" d="M671.18,181.51c5.57-2.11,11.34-.51,17-.92,4.41-.32,9,.83,13.06-2a11.28,11.28,0,0,1-3.63,3.83,9.29,9.29,0,0,1-6.41,2.29c-5.73-.2-11.47.37-17.19-.36A6.27,6.27,0,0,1,671.18,181.51Z"/><path class="cls-206" d="M694.92,185.32a6.69,6.69,0,0,1-2.69,2.91c-4.39,1.89-8.92,1.48-13.47.85a6.18,6.18,0,0,1-2.83-2.86c0-.69.24-1.43.88-1.47C682.86,184.4,688.94,183.45,694.92,185.32Z"/><path class="cls-207" d="M694.92,185.32c-6.32.52-12.74-1.2-19,.9L674,184.36c2.54-2,5.45-.71,8.19-.93,5.13-.41,10.36.74,15.41-1A6.11,6.11,0,0,1,694.92,185.32Z"/><path class="cls-208" d="M678.76,189.08c4.38-2,9-.54,13.47-.85l-1.75,1.93c-2.58,2.5-5.69,2.36-8.88,1.77A6.37,6.37,0,0,1,678.76,189.08Z"/><path class="cls-209" d="M681.6,191.93c2.68-2,6.12-.16,8.88-1.77-.83,2.44-3.89,3.36-4.22,6.15C684.62,194.94,682.69,193.88,681.6,191.93Z"/><path class="cls-3" d="M758.87,161.38c-1,2.08-2.36,2.48-4.58,1.59-6.87-2.72-13.79-5.33-20.77-7.77-2.36-.82-3.06-1.9-2-4.11,5.74-1.59,5.84-1.88,2.22-6.64,3.63-9.53,7.37-19,10.82-28.62,1-2.88,2.15-3.63,5.08-2.43,6.54,2.68,13.16,5.15,19.83,7.48,2.68.94,3.35,2.06,2.23,4.81-2.49,6.1-4.64,12.34-6.93,18.52a35.67,35.67,0,0,0-14.48.1c-1.93.44-3.89,1.22-3.74,3.52s2.32,2.76,4.19,3.13C757.8,152.34,758.87,153.68,758.87,161.38Z"/><path class="cls-210" d="M344.58,366.08l-4.71,1c-4.69,1.34-4.6-2.2-4.5-4.89.28-6.91,1.16-13.79,1.54-20.71a74.65,74.65,0,0,0,.27-8.46c-.08-1.62-.16-3.77,2.7-2.88,3.22-.19,5.46,2.49,8.48,2.89,2.56,1.2,4.69,3.24,7.57,3.8,5.36,4,9.15,8.75,7.56,16a2,2,0,0,0-.95,1.83C357.5,360,351,363,344.58,366.08Z"/><path class="cls-155" d="M331.31,370.75c-1.43,8.43-5.39,16-8.23,23.94-3.74,10.46-8,20.71-12.1,31.05-.56,1.42-.61,3.17-2.41,3.81-4.12-3.86-8.25-7.7-11.64-12.25,1-.72,1.78-.17,2.59.32,4.16,2.54,4.29,2.6,6-2.24,5.24-14.48,11.69-28.51,16.19-43.27C324.74,370.28,327.81,369,331.31,370.75Z"/><path class="cls-181" d="M321.87,372.73c.13,6.89-3.58,12.62-5.82,18.76-3.39,9.29-7.35,18.38-10.66,27.7-1.36,3.84-2.52,3.61-4.8,1-1-1.17-2-2.52-3.66-2.85l-1.84-1.86c4.1-1.33,3.77-5.46,5-8.42,4.34-10.72,8.27-21.59,12.35-32.41,1.16-1.73,3.62-.12,4.77-1.86A3.23,3.23,0,0,1,321.87,372.73Z"/><path class="cls-211" d="M321.87,372.73l-4.7,0c-1.54-.16-3.47.24-1.87-2.54,3.09-5.37,4.28-11.34,4.64-17.46a11.49,11.49,0,0,1,1.35-4.44,45.39,45.39,0,0,0,4.47-15.15c.3-2.65.71-5.86,4.68-5.89l8.47,1.9,1,.95c-1,.14-1.93.52-1.76,1.74,1.41,10.21-.91,20.23-1.53,30.33-.15,2.48-.23,4.87,3.28,4.87l-8.56,3.69A34.62,34.62,0,0,0,321.87,372.73Z"/><path class="cls-212" d="M305.8,330.09c-.84-4.5,1-6.28,5.52-5.69,2.14.28,4.36-.07,6.53.08,2.66.17.28,1.19.23,1.83C313.93,327.38,310.22,329.9,305.8,330.09Z"/><path class="cls-171" d="M305.77,305.52c-.62-3.82.35-5.33,4.8-4.89,6.16.61,12.43.13,18.65.17a9.14,9.14,0,0,0,5-1c.06,2.7-.09,5.35-1.9,7.58-6.73-.73-13.49-.35-20.24-.46C309.86,306.92,307.6,307.13,305.77,305.52Z"/><path class="cls-213" d="M305.78,318.77v-5.68h0a5.85,5.85,0,0,1,3.88-1.42q8.44-.26,16.88,0a5,5,0,0,1,3.85,1.41,9.4,9.4,0,0,1-1.83,5.68Z"/><path class="cls-214" d="M305.77,305.52c7.48,0,15,0,22.44,0,1.56,0,3.63-.72,4.07,1.88,0,1,.15,2.15-.94,2.83-7.52,1.07-15,.44-22.58.34a4.69,4.69,0,0,1-3-1.28c0-.95,0-1.9,0-2.85Z"/><path class="cls-170" d="M305.78,309.31c7.05,0,14.1,0,21.15,0,1.51,0,3.18-.52,4.41.92-.06,1,.15,2.16-1,2.84H305.77C305.78,311.83,305.78,310.57,305.78,309.31Z"/><path class="cls-215" d="M335.12,299.84l1-4.73a9.61,9.61,0,0,1,1.89-5.68,9,9,0,0,0,1.88-5.68l2-2.81c.22,1-.62,2.33.8,3.05-3.77,4.87-3.83,11.18-6.42,16.5-.11.23.41,2.16-1,.73C335,301,335.14,300.31,335.12,299.84Z"/><path class="cls-216" d="M305.78,242.09c0-.47,0-.94,0-1.41,0-6.16,0-6.16,6-6.16,10.66,0,21.32,0,32,0,8.44,0,7.34-1.06,7.44,7.56A219.68,219.68,0,0,0,305.78,242.09Z"/><path class="cls-217" d="M341.82,281c-.13-1.84.21-3.89-2.75-3.87-10.22.08-20.43,0-30.64.1a8.76,8.76,0,0,0-2.65.87v-6.63c1.43-2.5,3.91-2.38,6.26-2.41,7.73-.09,15.46,0,23.18,0,9.06,0,9.42.5,7.55,9.27C342.77,279.28,342.81,280.31,341.82,281Z"/><path class="cls-147" d="M342.77,278.27c.22-7.78.22-7.78-8-7.78-7.84,0-15.68,0-23.51,0-1.89,0-3.78-.1-5.47,1,0-6.63,0-6.63,6.47-6.63,9.86,0,19.72,0,29.58,0,1.66,0,3.49-.52,4.84,1l-.05-.08c-1.09,2.13-1.28,4.51-2,6.75A11.21,11.21,0,0,1,342.77,278.27Z"/><path class="cls-164" d="M344.64,272.54c-.16-2.49.11-4.85,2-6.75A12.81,12.81,0,0,1,344.64,272.54Z"/><path class="cls-218" d="M338,289.43a9.18,9.18,0,0,1-1.89,5.68c-1.39-1.54-3.23-.91-4.88-.92-8.48-.06-16.95,0-25.43,0-.35-2.79.73-3.91,3.68-3.84,7.68.16,15.36,0,23.05.06C334.38,290.38,336.27,290.47,338,289.43Z"/><path class="cls-219" d="M140.09,340.55c2.24,1.82,4.89,2,7.59,1.89,1.85,4.49-.08,8-2.84,11.36-2.06,1.31-4.38.9-6.62.95a3.41,3.41,0,0,1-2.11-3.36c-.05-3.72-.69-7.39-.69-11.1A3.51,3.51,0,0,1,140.09,340.55Z"/><path class="cls-186" d="M135.37,340.55c2,1.34,1.9,3.34,1.94,5.43.06,2.94-.7,6,.91,8.77-1.77,1.13-3.74,1-5.7.92-1.57-2.74-1-5.76-.86-8.62.24-3.85-.22-6.87-4.82-7.39a3.54,3.54,0,0,1,2.81-1.2C131.77,338.55,133.85,338.8,135.37,340.55Z"/><path class="cls-220" d="M144.84,353.8c.6-3.87,2.95-7.31,2.84-11.36l3.79,1.89c0,3,.48,6.07-1.9,8.52A7.73,7.73,0,0,1,144.84,353.8Z"/><path class="cls-221" d="M135.37,340.55l-5.67-1c-.79-3.31.84-6.39.91-9.62,0-1.75,1.7-2,2.87-2.65,3.57-.59,6.72-2.71,10.41-2.83-3.08,3.45-1.48,7.68-1.91,11.58-.18,1.66,1,3.94-1.89,4.51Z"/><path class="cls-222" d="M133.48,327.29c-2.1,1.43-1.93,3.59-1.91,5.73,0,2.36-1,4.44-1.87,6.54l-2.86.1-5.68,0-9.42-.2c2.09-1.1,5.21-.74,5.06-4.73-.07-1.93,2.74-2.29,4.35-3.16A44.18,44.18,0,0,1,133.48,327.29Z"/><path class="cls-223" d="M155.24,335.73c-2.74-.08-2.75-.08-1.89-1.9,1,.33,2.2-.55,2.94.56C156.39,334.53,155.61,335.27,155.24,335.73Z"/><path class="cls-200" d="M123.06,355.69V340.55c1.28.05,2.7,0,2.77,1.78.17,4.08.41,8.18.28,12.25C126.05,356.49,124.12,355.36,123.06,355.69Z"/></g></g></svg>