<svg xmlns="http://www.w3.org/2000/svg" viewBox="0 0 918.37 886.46"><defs><style>.cls-1{fill:#f27a2f;}.cls-2{fill:#5c93ac;}.cls-3{fill:#1e809f;}.cls-4{fill:#0b273f;}.cls-5{fill:#0b263f;}.cls-6{fill:#282d4a;}.cls-7{fill:#1e819f;}.cls-8{fill:#0a263f;}.cls-9{fill:#c74527;}.cls-10{fill:#2a4f60;}.cls-11{fill:#f7b79b;}.cls-12{fill:#a8bfcf;}.cls-13{fill:#fbc59f;}.cls-14{fill:#da602a;}.cls-15{fill:#ecac87;}.cls-16{fill:#061f39;}.cls-17{fill:#48453e;}.cls-18{fill:#47443e;}.cls-19{fill:#47453e;}.cls-20{fill:#49463f;}.cls-21{fill:#fbc6a0;}.cls-22{fill:#fac6a1;}.cls-23{fill:#f6b79c;}.cls-24{fill:#ecac86;}.cls-25{fill:#4b4841;}.cls-26{fill:#e4a987;}.cls-27{fill:#4b4943;}.cls-28{fill:#f6b79a;}.cls-29{fill:#0a213a;}.cls-30{fill:#abc0cf;}.cls-31{fill:#abc1d0;}.cls-32{fill:#0a2139;}.cls-33{fill:#dfac97;}.cls-34{fill:#eeb396;}.cls-35{fill:#e4af97;}.cls-36{fill:#eeb59b;}.cls-37{fill:#c4d1d4;}.cls-38{fill:#d3a28e;}.cls-39{fill:#d2a28e;}.cls-40{fill:#e1e3e2;}.cls-41{fill:#dddfdf;}.cls-42{fill:#d9dbdb;}.cls-43{fill:#d9dcdb;}.cls-44{fill:#dadcdc;}.cls-45{fill:#dadddc;}.cls-46{fill:#d7d9da;}.cls-47{fill:#d8dad9;}.cls-48{fill:#d8dada;}.cls-49{fill:#d8dadb;}.cls-50{fill:#d7d9d8;}.cls-51{fill:#d7dada;}.cls-52{fill:#e1e3e3;}.cls-53{fill:#d9dbda;}.cls-54{fill:#d4d7d7;}.cls-55{fill:#d4d6d6;}.cls-56{fill:#d1d4d4;}.cls-57{fill:#d6d8d7;}.cls-58{fill:#d1d3d2;}.cls-59{fill:#d2d4d4;}.cls-60{fill:#d7d9d9;}.cls-61{fill:#d5d7d8;}.cls-62{fill:#d1d3d3;}.cls-63{fill:#d5d8d7;}.cls-64{fill:#d3d6d6;}.cls-65{fill:#cfd1d0;}.cls-66{fill:#e4e6e6;}.cls-67{fill:#cfd2d2;}.cls-68{fill:#d0d2d1;}.cls-69{fill:#cfd1d1;}.cls-70{fill:#cdcfcf;}.cls-71{fill:#cccfce;}.cls-72{fill:#ced1d0;}.cls-73{fill:#d3d5d5;}.cls-74{fill:#d2d4d5;}.cls-75{fill:#abbbc9;}.cls-76{fill:#2a4f61;}.cls-77{fill:#2a4e61;}.cls-78{fill:#c84728;}.cls-79{fill:#d5572d;}.cls-80{fill:#d46541;}.cls-81{fill:#cc5131;}.cls-82{fill:#e46838;}.cls-83{fill:#d56040;}.cls-84{fill:#2a5061;}.cls-85{fill:#2c5062;}.cls-86{fill:#d8a686;}.cls-87{fill:#f6b79b;}.cls-88{fill:#345869;}.cls-89{fill:#385c6b;}.cls-90{fill:#f6b69b;}.cls-91{fill:#ee7e3c;}.cls-92{fill:#091f38;}.cls-93{fill:#0c2138;}.cls-94{fill:#eeaa83;}.cls-95{fill:#2c6e8c;}.cls-96{fill:#e7ab88;}.cls-97{fill:#eab39c;}</style></defs><title>Team</title><g id="Capa_2" data-name="Capa 2"><g id="Capa_1-2" data-name="Capa 1"><path class="cls-1" d="M439.87,409.79c3.68,14.89,2.71,30.79,9.78,44.94-2.08,2.27-4.94,2.47-7.7,3-38.75,7.13-77.59,13.76-116.4,20.49-3.88.67-7.76,1.51-11.72.69-3.23-.68-5.21-3.22-7.57-5.18-5.42-4.51-11.7-5.55-18.33-4-5.93,1.38-10.61,4.17-9.83,11.51.22,2,.07,4-1.86,5.3a369.15,369.15,0,0,1-46.44,8c-5.45-.15-7.82-3.73-9-8.37-2.37-9.42-4.77-18.84-6.49-28.41.59-4.3,4-6,7.4-7.19,5.85-2,6.68-6,5.41-11.32-1.91-8-6.11-13.73-14.48-15.72-2.17-.51-4.43-.78-6.31-2.19-4.13-4.68-4.32-10.88-5.62-16.43-2.42-10.33-5.25-20.56-7.47-30.94-.31-4.72-2.35-9.1-2.78-13.8.39-6.91,5.5-7.52,10.71-8.07,22-2.34,44.14-3.2,66-6.49a13.23,13.23,0,0,0,3.34-.21c4.12-1.36,10-.77,11.28-5.82,1.1-4.47-4.49-5.83-7.07-8.59-2.87-3.08-6.13-5.8-8.73-9.17a19.64,19.64,0,0,1-2.25-4.37,10.62,10.62,0,0,1-.54-2.5,11.72,11.72,0,0,1,.77-5.14c6-10.19,16.17-11.51,26.58-12.26,9.48.34,18.83,1,24.73,10.12a9.25,9.25,0,0,1,1.95,6c-.78,4.87-2.45,9.56-3.28,14.43-.67,3.88-.55,7.37,4.87,7.22,22.22.86,43-6,63.9-12,12.24-3.47,12.77-3.62,20.46,6.83,6.36,8.64,13.16,17,17.56,26.94,1.86,4.21,3.4,8.43,1.5,13.06-3.69,6-9.61,7.22-16,7.3-12.33.16-24.67-.11-37,.14-6.66.14-12.21,2.27-14.27,9.39-1.82,6.24.81,11.1,8.18,15.53,8.94,4.82,16.3-1,24.13-3.6,9.19-2.65,17.75-7.19,27.17-9.07,3.36-.67,4.7-3.92,7.6-5,4.35,5.11,9.76,9,14.85,13.34C438.72,401.85,440.21,405.59,439.87,409.79Z"/><path class="cls-2" d="M643.64,282c3.39-.22,7.25.55,10.07-.82,10.48-5.13,15.2.24,20.23,8.63,12,20.12,25,39.71,37.54,59.52-.37,8.25,4.11,13.1,11,16.75,3.78,2,6,5.89,7.74,9.78,2.93,6.45,7.14,12.06,11.25,17.77.87,2.14,1.82,4.28-.06,6.39a6.54,6.54,0,0,1-2.84,1.78c-22.93,4.6-45.73,10-69.08,12.18-5.91-2.52-5-7.81-4.22-12.3,1.23-7.17-.22-12.06-7.85-14.16s-15.42.46-18.92,7c-2.75,5.13-3,10.71-2.71,16.39.17,3,1.34,6.14-.79,9-2.83,2.14-6.23,2.58-9.56,3.19-26.13,4.79-52.28,9.48-78.39,14.39-12.89,2.43-15.84.65-19.56-12.13-3-10.32-5-20.92-8.09-31.19-4.2-13.74-10.75-17-24.36-12.42-8.31,2.8-16.16,6.78-24.4,9.77-6.48,2.36-13.07,3.61-20,2.78-5.62-.68-10.15-3.07-12.68-7.93.28,2.51,1.2,5.68-2.13,7.77-8.7-10.51-3.13-31.66,9.57-35.83,4.8-1.58,9.89-2.77,14.93-2.15,9.81,1.22,19.64.8,29.43,1.23,10.25-2.09,12-5.66,6.74-14.32-5-8.2-12.19-14.7-18.25-23.5-1.06,4.18-.24,7.48-.81,10.59-.43,2.38.84,6.13-3.81,5.9-4.45-8-2.63-16.42-1.52-24.7.48-3.58,3.93-4.65,7-5.19,15.06-2.65,29.47-7.78,44.26-11.41,6.33-1.38,12.51-3.67,19.11-3.45,8.65.29,16.12,2.82,20.05,11.45.72,3-1,5.42-1.81,8.06-2.8,8.63-1,12.57,7.7,15.41,7.5,2.44,15.21,4.18,23.14,1.68,1-.47,2.1-.8,3.08-1.35,9.64-5.38,9.93-9.15,1.52-16-5.58-4.54-12.57-7.67-15.54-15-1.43-7.39,2.95-10.71,9-12.79,3.94-1.35,7.94-2.56,12.21-2.21C615.72,284.23,629.7,282.54,643.64,282Z"/><path class="cls-3" d="M56.08,632.51C62.07,593.74,69,555.17,82,518a100.36,100.36,0,0,1,8.26-17.59c6.76-11.44,12-12.61,23.67-6.13,1.73,1,3.41,2,5.12,3,3.07,1.9,6.6,2.92,9.52,5.15,10.8,8.23,22.9,9.26,35.68,6.26,5.17-.29,9.7-2.63,14.4-4.44,8.23-2.22,14.95.6,20.92,6.14,3.11,2.9,6.25,5.9,8.4,9.51,8.42,14.13,20.76,16.9,39.42,12.07,11.09-2.87,20.27-9.85,30.34-14.93,3.88-.56,6.94.57,8.75,4.26-15.49,30.48-40.77,49.31-72.93,58.45-13.26,3.78-21.87,11.14-27.6,22.65-10.09,20.27-16.84,41.56-17.88,64.38-1.23,3.7-4.45,4.11-7.54,4.22-28.39,1-56.38-1.06-83.17-11.59a45.84,45.84,0,0,1-19.07-13.64C55.06,641.8,53.54,637.49,56.08,632.51Z"/><path class="cls-2" d="M236.08,184.78c28.78-4,57.61-7.69,86.29-12.25,6.7-1.07,8.95,1.24,9.81,6.67,1,6.4,1.75,12.86,2.3,19.32.85,10.11,6.57,15,16.51,12.82,10.18-2.23,20.21-5.16,30.25-8,9.75-2.75,18.4-.86,26.16,5.54,3.35,2,3.79,5,3.17,8.45-7.46,14.55-21.33,13.3-34.39,13.68-3.86.12-7.74-1.3-11.7-1.1-4.5.23-9.34.18-12,4.67-2.81,4.81.43,8.5,3.16,12.1,4,5.66,9.23,10.3,12.86,16.2,1.82,3,4.54,5.95,1.24,9.64-19.39,3.18-38,9.42-56.92,14.49-7.47,2-14.93,1.55-22.43.37-4.29-2.19-9.07-3.15-13.44-5.16-.8-4.66,3.14-3.91,5.46-4.41,7.23-1.58,6.68-7.46,7.28-12.63s-1.38-9.22-6.54-10.38c-10.39-2.35-20.74-2.59-30.06,3.85-5.94,4.1-6.31,7.61-1.78,13.33,2.84,3.58,7.05,5.61,10,9,2.46,3.56,5,7.11,2,11.59-5.48,3.75-11.66,5.6-18.11,6.7a288.2,288.2,0,0,1-40.4,3.58c-9.32.24-18.58.69-27.85,1.58-6.69-.14-7.29-5.48-8.69-10.15-4.31-18.62-8.89-37.18-12.91-55.87-.15-3.18,1.5-5.9,2.3-8.84,2.56-9.39.94-14.27-6.88-20.32a26.23,26.23,0,0,1-4.06-9.72,4.36,4.36,0,0,1,1.64-3.68c14.49-4.52,29.64-4.9,44.52-7,3.23-.18,6.34.59,9.48,1.19C214.43,193.37,225.33,189.52,236.08,184.78Z"/><path class="cls-1" d="M621.08,212.18c9.19,12.61,13.22,26.33,8.91,41.82-3.94-3.95-2.25-9-2.55-13.62-.25-3.87-.93-6.62-5.82-5.93-18.37,2.61-37,2.42-55.39,4.44a26.52,26.52,0,0,0-4.14.79c-2.41.65-5.59.71-6.45,3.32-1.1,3.36,2.34,4.73,4.34,6.47,4.86,4.22,11,6.78,15,12.13a11.52,11.52,0,0,1,0,9.74c-12.16,11.63-25.16,14-39.52,7.35-8.9-4.16-11.75-8.9-11.28-18.73.5-10.3-2.82-13.56-13.3-12.8-5.68.42-11,2.41-16.44,4-11.67,3.39-23.26,7-35.52,7.88-6.55.45-11.48-1.41-15.31-6.89-4.21-6-9.06-11.57-13.8-17.19a31.85,31.85,0,0,1-5.67-9.4c-3-8.19-.78-11.89,7.88-12.31,9-.43,18.09-.07,27.14-.16a36.93,36.93,0,0,0,14.91-2.77c2.95-1.31,5.55-3.25,5.62-6.79.07-3.38-2.84-4.64-5.36-5.9-7.13-3.55-14.63-4-22.33-2.37-6.66,1.4-13,3.92-19.5,5.8-17.16,5-25.22-.37-27.31-18.13-.65-5.6-.9-11.25-1.8-16.81a2.19,2.19,0,0,1,1.21-2,8,8,0,0,1,3.23-.29c-1-.18-2,0-3-.17-1.15-.43-1.56-1.61-2.39-2.36,9.06-5,19.31-4.18,29.05-5.75,18.54-3,37.14-5.51,55.72-8.22,10-2.41,20.85-1.17,30.33-6.29,7.79-2.57,16-3,24-4.32,7.78-.85,15.4-2.92,23.22-3.32,5.84-.31,11.35.37,13.47,7.19a2.37,2.37,0,0,1,.1.82c-3.76,14.35-2.92,17.52,10.46,24.47,8.09,4.21,13,10.5,17.08,18.06C610.36,193.66,618.77,201.27,621.08,212.18Z"/><path class="cls-1" d="M765.93,565.94c-1.87-25.07-8.17-48.67-23.54-69.11a20.68,20.68,0,0,0-11.69-7.95c-30.6-7.37-54-24.71-70.88-51.13-1.25-1.12-2.25-2.32-1.29-4.13,2.21-2.74,5-4.15,8.56-3.52,3,1.21,5.53,3.35,8.38,4.9,7.58,4.4,15.45,8.07,24.12,9.84,12.21,2.5,22.29-.35,29.36-11.25,2.29-3.54,4.64-7.07,8.25-9.49,5-3.69,9.88-7.49,16.68-6.33,6.7,2.23,13.41,4.37,20.45,5.28,9.85,1.28,19.21.42,27.23-6.22,2.46-2,5.4-3,8.3-4.12,2.17-1.25,4.26-2.66,6.51-3.73,10.55-5,15.3-3.54,21.17,7.08,6.56,11.89,10.51,24.84,14,37.87,7.11,26.61,12.1,53.68,16.38,80.88,2.16,4.73.53,8.71-2.42,12.47A38.43,38.43,0,0,1,849.29,559c-23.59,9.59-48.39,11.89-73.53,11.77C772,570.78,767.71,570.56,765.93,565.94Z"/><path class="cls-4" d="M56.08,632.51c.49,13.64,10.45,19.48,21,23.93,23.22,9.84,47.88,12.28,72.83,12.22,6.09,0,12.46,1.55,18.24-1.87,3.19.34,6,1.78,9.66.13,12.56-5.58,21.56-1.95,27.53,10.81,7.36,15.73,6.78,32.38,4.66,49.08-1.9,15-8.41,28.5-14.55,42.09.78,4.26-2.59,6-5,8.37-3.31,1.88-6.61,2.9-9.81-.19.69-5.78,1.9-11.55,2-17.34.18-15.73-6.08-23.61-21.44-26.69-10.49-2.11-21.2-3.15-31.74-5-14.11-2.55-26.24-8.71-34.46-20.93-2.72-4-4.12-3.27-6.39.29-7.75,12.19-9.28,25.91-9.87,39.78-.46,10.73-.74,21.47-2.48,32.07-4.5,27.33-18.27,49.41-38.82,67.56-5.55,10.91-15.13,17-25.91,21.7-2.77-.05-5.59-.07-4.69-4.21,20.19-34,27.7-71.1,26.79-110.24-.54-23.12-2.71-46.27.65-69.33C37,665.45,43.19,647.56,56.08,632.51Z"/><path class="cls-5" d="M765.93,565.94c12.39,4.77,25,1.78,37.5.84,17.42-1.32,34.59-4.27,50.28-12.59,7.74-4.1,13.79-9.76,14.2-19.38,15.9,19.58,20.67,42.73,21.37,67.14.57,20-1.91,40-1,60.09,1.37,30.14,9.78,58.16,24.51,84.38-.45,2.76-2.38,3.19-4.71,3-8.69-4.61-17.35-9.27-22.55-18.2a16.61,16.61,0,0,0-2-2.66c-25.37-22.73-36.16-51.65-36.28-85.15,0-9.61-.64-19.17-3.52-28.43A41,41,0,0,0,835,598.84c-11.23,19.75-30.42,23-50,25.36-.28,0-.57.06-.85.09-27.92,3.24-33.41,10.16-30.07,38,1.41,6.85-2.24,6.88-7.11,5.28-2.85-2.61-5.87-5.12-6.83-9.16.88-3.47-1.64-5.81-2.87-8.57-9.68-21.7-14.12-44-7.33-67.45,4.79-16.53,12.32-20.54,28.61-15.83C761.18,567.29,763.51,566.71,765.93,565.94Z"/><path class="cls-6" d="M124.4,494c-21.35-20.72-23.19-46.61-18.54-73.66A29,29,0,0,1,125.67,397c1.86-3.62,5.67-3.76,8.86-5a65.74,65.74,0,0,0,21.11-10.24c13.26-9.27,26.63-6.65,35.66,6.73,4.79,7.09,7.25,15.15,9.43,23.32.36,3.09,1.63,5.95,2.39,8.94a26.35,26.35,0,0,1,1.09,13.52C201.49,445,193.72,450.6,183.89,454s-10.89,5-9.26,15.3a99.58,99.58,0,0,0,4.18,15.54c1.25,3.78,2.33,7.59,1.36,11.63a20.38,20.38,0,0,1-4,8.35c-3.41,3-7.73,3.88-11.93,5.05C148.22,511.54,134.77,506.68,124.4,494Z"/><path class="cls-1" d="M202.13,191.58c-2.67.18-5.36.43-7.67-1.41-6.85-1.55-12.08-6.65-19-8.37-7.8-1.94-14.17-1.88-18.61,6.14a19.63,19.63,0,0,1-7.74,7.48c-3.25,1.85-4.11,5.91-7.24,7.87a192.68,192.68,0,0,1-23.25,16.39c-6.15,3.61-6.06,5.63-1,10.86,4.38,4.5,10.2,6.75,15.29,10.15.95,3.6,1.5,7.21.21,10.87a12.69,12.69,0,0,1-4.08,3.19c-7.87,5-16.1,4.31-24.47,1.57-7.72-2.95-13.82-8.18-19.5-14C76.85,233,69.3,223.15,64,211.76c-4.72-10.1-7.62-20.6-7.52-31.83,7.77-14.87,18.91-25.88,35.39-30.72,7.25-1.66,10.39,5.16,15.67,7.56,4.81,5.18,9.55,4.9,14.23-.19,9.8-5.18,18.4-11.72,24.51-21.18.76-1.18,1.91-2.06,3.53-1.49,25.08,7,44.46,20.84,54.34,45.88C205.48,184.06,205.28,188.07,202.13,191.58Z"/><path class="cls-7" d="M577.64,142.85c-2.1-6.37-6.19-8.5-12.92-7.14-7.7,1.54-15.58,2.21-23.38,3.25-3.32-1.43-3.32-4.89-4.63-7.56-4.29-8.73-8.92-9.56-16-3-2.87,2.64-5,6-8.08,8.4-4.57.29-9.92,3.35-12.52-3.47,2-9.35,4.29-18.58,8.45-27.27,7.76-16.24,20.25-25.86,38.34-27.8,5.16-.59,7,3.53,9.46,6.7,1.29,7.46,7,9.26,13.29,10.65,7.11,1.56,8.69-4.58,12.13-8.19,4.59-2.92,9.5-5.37,13.19-9.57,1.45-1.65,3.22-3.07,5.71-1.81,25.29,8.81,36.51,23.78,38.19,50.56.65,10.48-1,20.71-2.56,31-4.22,11.89-13.43,18.23-24.77,22.12-2,.7-4.24,1.89-6.25-.21-1.7-6.23.07-12.73-1.44-19a185.29,185.29,0,0,1,5.31-26.15c-5,4.53-4.62,13-11.69,16.12C590.87,147.87,583.07,148.43,577.64,142.85Z"/><path class="cls-8" d="M86.87,241c4.6,5.8,10.95,9.32,17.11,13.08,1.07,1.73,3.22,2.11,4,4.62,1.42,4.35,3.27,9.67,9.92,4.54,2.07-1.58,4.9-.44,5.1,3.12-.47,2-1.49,4-3.2,4.8-7.94,3.86-5.7,8.58-2.21,14.47,9.22,15.56,11.48,32,5.1,49.36-2.62,7.13-3.85,14.65-4.79,22.2-.53,4.16-1,8.47-5.41,10.8-5.27,1.19-8.63-.13-8.27-6.31-.54-6-3-11.4-6-16.45-11.18-19.16-25.06-36.3-40-52.62-4-1.89-5.58-5.73-7.5-9.29-.24-6.53-5.28-10.87-7.54-16.49-4.71-11.73-8.51-23.4-2-35.73.27-.05.67-.24.81-.13,11.32,9.84,24.51,10.86,38.51,8.27C82.82,238.78,84.93,239.76,86.87,241Z"/><path class="cls-9" d="M404.29,164.67c1.1,6.35,2.54,12.66,3.24,19.06,1.62,14.9,8.54,19.67,22.92,15.35,7-2.11,13.94-4.45,21-6.3a33.68,33.68,0,0,1,26.09,3.53c2.92,1.67,6.55,3.11,6,7.26a10.71,10.71,0,0,1-6.31,8.5,38.94,38.94,0,0,1-16.36,3.51c-9.6-.06-19.19-.13-28.78,0-8,.08-8.75,1.49-6,9.09,2.69,7.42,9.78,11.65,13.23,18.39,7.69,15,19.77,15.77,33.94,11.44,10.76-3.28,21.66-6.07,32.5-9.09a25.54,25.54,0,0,1,14.94.27c5.85,1.84,8,4.8,6.39,11.33-2.9,11.44,1.13,16.85,12.3,21.08,13,4.93,23.49-.38,34.08-6.55,4.77,8.12,4.21,23.94-1.32,29.16-3,2.87-6.35,5.79-11.19,4-2.25-8.19-8.88-10.07-16.06-10.92s-13.71,1.95-20.59,2.81c-5.66-3.83-3.48-9.6-3.47-14.7,0-8-2-10.17-10.05-9.1-7.28,1-14.32,3.13-21.31,5.4A184.13,184.13,0,0,1,461.58,285c-8.47,1.35-15.53-.79-20.37-8.62-4.6-7.44-10.21-14.21-14.88-21.62-2-3.13-4.33-6.38-3.86-10.1,1.3-10.35-2-18-11.73-22.41a6.4,6.4,0,0,1-1.16-5.08q-1.08-4.14-2.18-8.28c.47-13.61-6.81-26.2-5.29-40,.28-2.51.2-5.06.28-7.59L404.2,163c.61.34.82.7.65,1.08S404.49,164.67,404.29,164.67Z"/><path class="cls-10" d="M658.64,434.58c.39,1.06.79,2.11,1.18,3.17q-60.37,11-120.72,22.14c-4.47.83-6.84-.51-8.1-4.89-3.65-12.73-7.72-25.33-11.25-38.09s-10.22-16.47-22.55-11.7c-7.61,3-14.82,7.07-22.55,9.6-12.21,4-24.39,4.91-34.78-5-3.16-3.06-3.34-7.12-3.7-11.11-1.13-1.61-1.37-3.21,0-4.81v-12c10.29,14.23,22.41,11.33,34.6,6.84,9-3.31,17.7-7.35,26.74-10.45,11.25-3.84,19-.48,22.74,10.65,3.89,11.71,6.39,23.89,9.59,35.84,3.34,12.48,3.74,12.46,16.23,10.16,29.56-5.45,59.16-10.64,88.75-15.93C642.52,424.55,650.88,429.1,658.64,434.58Z"/><path class="cls-6" d="M156.38,56.5c9.9,8,12.42,18.06,8.32,30-2.43,2.67-4.79,5.46-8.8,5.68-2,1.14-4.4,2.17-6.42,1.07-7.3-4-13.89-1.59-20.82,1.18-5.28,2.12-11.08,1.62-16.66.72-4.28-.69-7.47-.52-6.54,5.18.14.82.28,2.1-.22,2.44-7.35,5-3.92,10.63-1.54,16.68,1.25,3.16-.71,6.68-2.94,9.31-3.42,4-6.46,8.48-10.81,11.68-11.29-8.53-20.66-17.79-15.48-34,1.32-4.14-.51-8.28-3-12A67.19,67.19,0,0,1,66,85c-6.73-14.83-2-24.14,14-26.83,5.09-.84,7.36-2.83,8.41-7.62,1.65-7.58,7.14-9.69,13.46-6.63,10.33,5,21,5.65,32.13,5.49C142.06,49.24,149.08,53.58,156.38,56.5Z"/><path class="cls-6" d="M747.15,344.47c-4.46-7.64-8.42-15.31-5.27-24.66,3.06-9,8.48-12.6,18-11.29,8.84,1.22,16.4,5.84,24.35,9.37,7,3.12,13.95,5.41,21.95,4.78,9.18-.72,14.53,4.92,15.56,15.13,1.47,14.63-1.69,28.67-6.56,42.26-2.31,6.45-1.6,14.12-7.3,19.28-11,7.75-27.08,2-30.06-10.86-.56-2.39-1.47-4.36-3.66-5.27-6.91-2.9-9.41-8.71-9.71-15.45-.22-5.07-2.38-8.22-6.41-11C753.43,353.66,748.7,350.4,747.15,344.47Z"/><path class="cls-9" d="M312.42,477c20.24-1.48,39.88-6.69,59.89-9.59,25.86-3.74,51.25-10.36,77.34-12.68.26,8.12,3.31,18.08-1.09,23.82-4.12,5.38-14.53,4-22.19,5.43Q371.2,494.26,316,504.43c-1.82.58-3.93.36-3.93-1.67C312.12,494.17,309.63,485.54,312.42,477Z"/><path class="cls-11" d="M90,140.4c.09-4.41,3-7,6-9.67,7.38-6.68,7.35-9.7,1-17.59-3.51-4.36-1.51-8.17,3.19-8.62,5.51-.52,4.69-2.67,2.85-5.78-1.3-2.19-1.79-4.21.07-6.11s4.24-1,6.34-.3a27.63,27.63,0,0,0,21.4-1.15c6.18-3.09,11.52-4.67,17.75-.46,1.9,1.28,4.86,1,7.33,1.42-1.7,14-1.27,28.26-6.12,41.77-6.66,10.78-15.14,19.48-27.33,24-5.14,3.37-10.36,3.17-15.62.28-6-1.31-8.86-7.86-15-8.94C94.83,145.5,92.11,143,90,140.4Z"/><path class="cls-6" d="M540.05,37.22c-2.2-8.88-.58-17.82.3-26.6.62-6.24,6-9.34,12-10.24a31.09,31.09,0,0,1,13.44.82c5.66,1.63,11.12,2.27,17.26.8A17.68,17.68,0,0,1,604.4,14.54c4.63,16,8.05,32.42,2.08,49a87.67,87.67,0,0,1-4,8.36c-4.25,1-5.34-2.14-6.34-5.09s-.54-6.08-.37-9.17c.25-4.42,3.92-9.2-1.36-13.16s-9.38-.15-13.74,2.15C571.56,51.42,562.1,53,552.27,49,546.64,46.78,541.87,43.49,540.05,37.22Z"/><path class="cls-11" d="M540.05,37.22c13.78,14.35,29.39,15.64,45.22,4,1.7-1.25,4.93-5.29,5.59-2.71,1.42,5.53,13.1,2.69,8.81,12.08C598,54.23,598,58.85,598,63c0,3.45-.43,7.66,4.47,8.85L600.67,76c-6.13,3.94-9.94,11.2-17.92,12.48-10.23,7.09-20.35,5.78-27.64-3.57l-8.23-6.7C539.33,65.44,535.19,52.08,540.05,37.22Z"/><path class="cls-11" d="M747.15,344.47c2.9,2.65,5.5,5.79,8.78,7.85,6.86,4.29,12.54,8.5,11.11,18.22-.72,4.91,2.55,9.1,8,10.49,4.56,1.15,7.08,3.89,5.3,8.67s1.3,6.14,4.44,7.54c7.42,3.29,15.07,4.63,23,2.1q-1.67,4.85-3.32,9.68c-1.25,4.58-4.65,7-8.88,8.23-8.43,2.35-17,3.75-25.81,2.91-.42-1.58-.11-3-2.89-3.48-10.59-1.86-16.83-9.67-22.41-18a59.65,59.65,0,0,1-4.47-9.11c-3.84-14.24-.34-27.88,3.41-41.5Z"/><path class="cls-11" d="M312.42,477c1.76,8.18,2.95,16.38,1.21,24.73-.41,2,1.16,2.18,2.38,2.7-2.48,1.58-5,2.85-7.05,5.31a33.35,33.35,0,0,1-22.45,11.57l-7.81-3.41c-5.73,2.91-10.7.11-15.76-2a11.41,11.41,0,0,1-2.19-1.28c-3.86-3.11-9.74-5.68-7.94-11.63s7.8-4,12.44-3.7c5,.29,8.06-2,9-6.9.48-2.49.71-5,2.5-7.06-1.44-5.93-3.9-11.77,4-15.68,9.22-4.55,20.66-4,27.34,2.33A56.26,56.26,0,0,1,312.42,477Z"/><path class="cls-9" d="M573.66,261.56c-6.84-3.38-12.77-8.1-18.53-13-1.74-1.49-4.94-2.95-3.63-6a8.09,8.09,0,0,1,6.56-4.82c10.33-1.2,20.64-3,31-3.31,11.85-.4,23.63-.9,35.26-3.23,4.24-.84,5.63,1,5.56,5-.1,5.93.06,11.87.11,17.8-7.67,5.09-16.93,2.94-25.14,5.53-5.07,2.72-10.57,2.66-16.08,2.57C583.74,261.85,578.64,263.33,573.66,261.56Z"/><path class="cls-12" d="M895.58,259.69c11.67,0,22,9.65,22.33,21,.38,11.72-10.75,23-22.57,22.8-10.9-.16-21.12-10.92-21.16-22.29A21.66,21.66,0,0,1,895.58,259.69Z"/><path class="cls-13" d="M412.85,512.37c11.87,0,21.67,9.61,21.76,21.22s-9.79,21.34-21.75,21.41a21.72,21.72,0,0,1-22.16-21C390.42,522.19,400.5,512.33,412.85,512.37Z"/><path class="cls-14" d="M86.87,241c-7.33,0-14.4,2.33-21.83,2-9.91-.39-18.16-3.41-23.83-11.93a115.09,115.09,0,0,1,15.25-51.13c2.89,1.1,1.87,3.5,2.13,5.67C61.14,207.54,72.51,225,86.87,241Z"/><path class="cls-15" d="M743.49,348.1c2.18,7.29-1.24,14.17-2,21.2a77.74,77.74,0,0,0,.38,21.23c.38,1.92-.29,3.09-2.32,3.31-5.09-4.26-7.9-10.1-10.67-15.89-2.62-5.48-5.82-10.84-11.56-12.81-9.07-3.1-8.71-8.76-5.88-15.8C720.51,338.79,729.61,338.44,743.49,348.1Z"/><path class="cls-16" d="M606.36,179.47c12.94-3.26,21.93-11.89,29.93-21.91,1.24,20-6,37.56-15.21,54.62l-17-27.49C603.13,182.21,603.87,180.46,606.36,179.47Z"/><path class="cls-17" d="M190.29,776l5.11-7.05c5.43-3,9.15-8.35,15.12-10.64,4.84-1.85,9.3-2.51,13,2.16,3.93,5,2.11,9.56-1.35,13.76-3.16,3.82-7.21,7-12.29,6.41-6.3-.75-9.4,1.71-11.24,7.4-2,6.09-7.12,6.49-12.48,6-4.92-.47-8-2.64-7.32-8.13C182.8,782.75,190.5,783.94,190.29,776Z"/><path class="cls-18" d="M12.29,867.09c9.15-5.79,17.26-12.87,25.06-20.32.06.28,0,.72.2.8,5.2,2.83,10.8,5.45,9.05,13-1.58,6.77-9,12.71-16.46,11.92-7.08-.74-8.42,3.78-10.58,8.45-3.37,7.27-10.13,5.84-15.44,4.24-5.89-1.78-4.44-6.81-1.94-11.11C5.83,872.14,12.88,875.16,12.29,867.09Z"/><path class="cls-19" d="M740.11,658.37a15.74,15.74,0,0,1,6.73,7c-1.51,4.24,1.54,5.38,4.5,6.18,3.79,1,6,2.73,4.39,7-9.05,5.19-13.49,4.14-18-4.34-1.86-3.47-3.86-5.75-8.58-4.89-4.36.79-8.19-1.61-11.18-4.82-3.71-4-6-8.47-2-13.5,3.75-4.7,8.37-3.3,13-1.29S736.21,655.72,740.11,658.37Z"/><path class="cls-17" d="M885.54,731.21l22.61,16.91c-1.09,8.15,7.16,3.74,9.6,7.14.86,4,1.7,8-4,9.28-4.93,1.06-10.07,1.55-12.58-3.8s-4.55-8.77-11.76-8c-6.27.7-13.9-7.65-13.41-13S879.63,731,885.54,731.21Z"/><path class="cls-20" d="M134.46,393.55c-2.26,2.87-6.09,1.72-8.79,3.46-5-3.77-10.71-6.7-12-14-.5-2.92-4.47-2.54-7.26-3-7.42-1.11-10.16-8.67-5.79-15.46,2.46-1.09,3.44.4,4.49,2.3,2.09,3.74,4.91,2.73,7.75.87,8.72,1.27,15.58,6.15,21.28,12.28C137.68,383.8,140.77,388.92,134.46,393.55Z"/><path class="cls-21" d="M866.72,237.66c.19-7.27,6-13.14,12.84-13.06s13.14,6.42,13.2,13.66c.06,6.66-6.31,12.74-13.35,12.76C873,251,866.55,244.3,866.72,237.66Z"/><path class="cls-22" d="M416.06,578.81a13.15,13.15,0,0,1-13.27,13.43c-7.5,0-12.42-5.12-12.36-13,.05-8.33,4.26-12.64,12.31-12.63C410.26,566.66,416,571.91,416.06,578.81Z"/><path class="cls-23" d="M202.13,191.58c.11-4-.39-8.15,2-11.79,6.79-6.23,15.1-5.43,23.19-4.57,5.24.56,8.55,3.89,8.76,9.56C227.72,193.62,212.78,196.61,202.13,191.58Z"/><path class="cls-24" d="M768.77,419c7.89-1.08,15.77-2.38,23.69-3.18,5.18-.53,8.19-4.35,12.09-6.84,1.14,2.14,3.1,3.09,5.31,3.69-15.38,15.37-31.91,17.37-56.31,6.82C758.49,415.24,763.58,415.73,768.77,419Z"/><path class="cls-25" d="M601.25,282.28c-3.48.86-7,1.78-10.46,2.58-6.35,1.46-9.79,4.9-8.31,11.83.9,1.69,1.4,3.4.36,5.22-5.46,1.76-6.83-1.48-7.27-5.92-.61-6.11,2.37-10.64,6.47-14.67,3-2.91,5.63-6.14,9.16-8.41,4-.83,9.07.63,10.84-5,1.15-1.26,2.71-1.5,4.28-1.7,5.52,4.06,2.73,8.89,1.25,13.6C606.43,283.05,603.89,282.77,601.25,282.28Z"/><path class="cls-26" d="M124.4,494c12.06,8.83,24.91,15.46,40.45,14.71a1.2,1.2,0,0,1,.44,1.22c-.13.42-.25.62-.38.62-18,4.95-33.3.59-45.83-13.3C121.45,497.19,123.84,497.1,124.4,494Z"/><path class="cls-27" d="M35.93,300.33c2.61,2.91,5.42,5.66,7.78,8.75,2.48,3.25,4.74,7,0,10.16-4,2.67-7.62-.07-9.13-3.22-2.27-4.73-4.22-9-9.16-11.88-2.34-1.38-2.25-5.59.37-8.29,3.18,1,5.32,4.4,9.14,3.91Z"/><path class="cls-28" d="M500.09,133.31c3.44,3.87,8.22,1.37,12.22,2.57,2.9,1.4,5.8,2.8,5.55,6.78-9.18,8.39-20.27,4.41-30.7,4.71C494.53,145.5,497.38,139.46,500.09,133.31Z"/><path class="cls-29" d="M50.8,283.28c5.3.84,5.26,6,7.5,9.29-6.55,5.19-14.67,5.87-22.37,7.76l.13,0c-2.39-1.06-6.14-.67-5.38-5.07Z"/><path class="cls-30" d="M454.23,515.68c5.95.13,9.31,2.57,9.21,8.07-.09,5-3.12,7.5-8.13,7.54-5.37,0-8.61-2.46-8.55-8C446.81,518.25,450.05,516,454.23,515.68Z"/><path class="cls-31" d="M873.93,313.17c-1.39,4.38-4,7.74-9.31,7.54-4.52-.18-7.28-2.82-7.37-7.42-.1-5.23,3-8.81,7.9-9S873,307.89,873.93,313.17Z"/><path class="cls-32" d="M606.32,266.17a4.5,4.5,0,0,1-3.72,2.07c-3,2.59-6.44,2.59-10,1.5-4-2.4-5.68-5.6-3.53-10.13,5.26-.23,10.53-1.28,15.8-.07C604.79,261.87,604.57,264.24,606.32,266.17Z"/><path class="cls-33" d="M190.29,776c3.47,8.76,1.61,10.36-11.49,9.89q.88-4.4,1.79-8.76C184,778.4,187.21,777.64,190.29,776Z"/><path class="cls-34" d="M12.29,867.09c2.31.3,3.71,1.43,2.92,3.89s-2.29,4.44-5.13,4.87a11,11,0,0,1-7.91-1.79c1.45-3.31,1.52-7.26,4.58-9.81C7.9,866.55,9.3,868.38,12.29,867.09Z"/><path class="cls-35" d="M755.73,678.52c.6-4.84-2.6-3.92-5.73-4.43-5.35-.87-8.35-3.57-3.16-8.73,3.67,1.91,7.34,3.78,7.21-3.11C754.81,667.65,758.6,672.74,755.73,678.52Z"/><path class="cls-36" d="M917.75,755.26a63.64,63.64,0,0,1-8.14.5,5,5,0,0,1-4.67-4.13c-.68-2.75,1-3.4,3.21-3.51,2.06.83,3-1.38,4.65-1.7C915.86,748.58,916.59,752,917.75,755.26Z"/><path class="cls-37" d="M601.25,282.28l6.32-2.51c5.23,4.05,11.25,1.43,16.88,1.88,6.37.51,12.79.27,19.19.36A145.46,145.46,0,0,1,601.25,282.28Z"/><path class="cls-38" d="M112.42,368.32c.19,2,.41,4.12-2.24,4.68s-4.2-1-5.58-2.93-.19-5.46-4-5.52l3.63-2.92c1.13,4.3,3.51,6.59,8.23,5.2.42.36.55.69.39,1S112.57,368.32,112.42,368.32Z"/><path class="cls-39" d="M30.68,295.3c.66,2.89,4.32,2.6,5.38,5.07-6.07,4.53-7.76-.91-10.26-4.52C27.32,294.71,29,295,30.68,295.3Z"/><path class="cls-40" d="M464.72,654.88a2.27,2.27,0,0,1-2.37-2c-.29-1.73.81-2.57,2.3-2.75,1.76-.21,3.52.2,3.59,2.36C468.29,654.09,467.05,654.86,464.72,654.88Z"/><path class="cls-41" d="M645.27,532.38c-1.57-.08-2.76-.92-2.44-2.44a4.63,4.63,0,0,1,2.15-3c1.43-.61,2.65.7,2.89,2.05C648.19,530.79,647.14,532,645.27,532.38Z"/><path class="cls-42" d="M595.69,591.44c-.07,1.52-.71,2.94-2.23,3s-2.35-1.23-2.39-2.78a2.14,2.14,0,0,1,1.78-2.41C594.55,589,595.41,589.84,595.69,591.44Z"/><path class="cls-43" d="M578.05,601.18c.45.63,1.54,1.47,1.49,2.24a3.22,3.22,0,0,1-3.26,3c-.63,0-1.79-1.4-1.84-2.22C574.31,602.28,575.73,601.41,578.05,601.18Z"/><path class="cls-44" d="M314.54,668.57c-1.4-.06-3-.17-3-2a2.3,2.3,0,0,1,2.74-2.34,3.61,3.61,0,0,1,2.38,1.81C317.46,667.9,316,668.32,314.54,668.57Z"/><path class="cls-45" d="M263.69,661.79c-1.42,0-3-.21-2.94-2a2.29,2.29,0,0,1,2.73-2.34,3.6,3.6,0,0,1,2.38,1.82C266.59,661.09,265.12,661.54,263.69,661.79Z"/><path class="cls-44" d="M617.61,571.32a2.18,2.18,0,1,1-4.23-1,2,2,0,0,1,2.56-1.46C617.26,569.16,617.64,570.11,617.61,571.32Z"/><path class="cls-46" d="M415.07,664.84a2.18,2.18,0,1,1,.69-4.29,2,2,0,0,1,1.62,2.43C417.25,664.35,416.22,664.7,415.07,664.84Z"/><path class="cls-47" d="M497.18,643.94c-.19,1.17-.68,2.16-2,2.22a2.05,2.05,0,0,1-2.43-2.48,2,2,0,0,1,2.32-1.83C496.34,641.86,497,642.72,497.18,643.94Z"/><path class="cls-48" d="M487,647.16c-.09,1.18-.48,2.17-1.81,2.34a2,2,0,0,1-2.58-2.33,2,2,0,0,1,2.19-2A2,2,0,0,1,487,647.16Z"/><path class="cls-49" d="M273.26,660.21c1.44,0,2.89.23,2.91,2a1.93,1.93,0,0,1-2.16,1.95c-1.38-.08-2.84-.66-3-2.2C270.82,660.6,272.17,660.4,273.26,660.21Z"/><path class="cls-50" d="M427.6,661.24a2.21,2.21,0,1,1-1.7-2.4C427.23,659.07,427.6,660,427.6,661.24Z"/><path class="cls-51" d="M256.18,657.87a2,2,0,0,1-2.28,1.87,2.07,2.07,0,0,1-2-2.86,2,2,0,0,1,2.56-1.41A2.1,2.1,0,0,1,256.18,657.87Z"/><path class="cls-52" d="M504.71,638.47a2,2,0,0,1,2.48,1.55,2.06,2.06,0,0,1-2.08,2.79,2,2,0,0,1-2.16-2A2,2,0,0,1,504.71,638.47Z"/><path class="cls-50" d="M659.68,501.6c-.52,1.11-.67,2.91-2.4,2.68-.69-.09-1.54-1.51-1.71-2.44-.3-1.64.73-2.61,2.41-2.57C659.36,499.31,659.85,500.21,659.68,501.6Z"/><path class="cls-48" d="M631,555.28c-.47,1.38-1.21,2.57-2.88,2.31-1.32-.21-1.68-1.34-1.42-2.5.32-1.38.93-2.76,2.71-2.34A2.11,2.11,0,0,1,631,555.28Z"/><path class="cls-53" d="M624.53,563.18c-.36,1.4-.94,2.73-2.67,2.46a2,2,0,0,1-1.65-2.47c.26-1.5,1.17-2.57,2.78-2.44C624.39,560.84,624.61,562,624.53,563.18Z"/><path class="cls-54" d="M336,667.34c-.05,1.14-.27,2.42-1.68,2.17a3.56,3.56,0,0,1-2.29-1.86c-.45-1.12.3-2.1,1.66-2.1A2,2,0,0,1,336,667.34Z"/><path class="cls-55" d="M356.45,667.57c-.12,1.23-.78,2.29-2,2a3.57,3.57,0,0,1-2.15-2.13c-.32-1.23.8-1.95,2-1.91A2.18,2.18,0,0,1,356.45,667.57Z"/><path class="cls-56" d="M236.84,651.09c-.37,1.19-1.24,2-2.4,1.71-.9-.25-2.2-1.2-2.24-1.91-.09-1.57,1.21-2.41,2.77-2.12A2.21,2.21,0,0,1,236.84,651.09Z"/><path class="cls-56" d="M244,652.3c.48.6,1.5,1.32,1.7,2.22.29,1.23-.77,2-2,1.91a2.12,2.12,0,0,1-2.12-2.07C241.51,653.15,242.22,652.36,244,652.3Z"/><path class="cls-57" d="M655.87,511.24c-.41.49-1,1.8-1.78,2-1.84.42-2.15-1.13-2.13-2.56,0-1.15.4-2.22,1.85-2A2.17,2.17,0,0,1,655.87,511.24Z"/><path class="cls-46" d="M435.71,657.05c1.4.1,2.11,1.06,1.62,2.18a3.67,3.67,0,0,1-2.38,1.86c-1.48.24-1.7-1.11-1.6-2.25C433.47,657.48,434.52,657.12,435.71,657.05Z"/><path class="cls-48" d="M552.76,620.72a7.18,7.18,0,0,1-2.38,1.32c-1.45.19-1.74-1.07-1.63-2.22.12-1.32,1.13-1.82,2.31-1.81C552.44,618,552.87,618.94,552.76,620.72Z"/><path class="cls-48" d="M397.17,664.58a2.22,2.22,0,0,1-2.17,2.09c-1.23,0-2.35-.71-2-1.95a3.63,3.63,0,0,1,2.2-2.15C396.43,662.24,397.07,663.33,397.17,664.58Z"/><path class="cls-58" d="M647.45,520c.6-.47,1.33-1.47,2.23-1.67,1.23-.28,2,.78,1.93,2a2.08,2.08,0,0,1-2.07,2.09C648.33,522.48,647.54,521.77,647.45,520Z"/><path class="cls-59" d="M557.51,615c.6-.48,1.33-1.47,2.24-1.67,1.23-.28,2,.75,1.94,2a2.12,2.12,0,0,1-2.1,2.09C558.38,617.44,557.59,616.75,557.51,615Z"/><path class="cls-60" d="M515.46,637.68a6.93,6.93,0,0,1-2.38,1.32c-1.45.19-1.73-1.06-1.63-2.2.11-1.33,1.14-1.79,2.31-1.79C515.15,635,515.57,635.92,515.46,637.68Z"/><path class="cls-61" d="M447.58,658a7.06,7.06,0,0,1-2.41,1.32c-1.49.21-1.72-1.1-1.63-2.23.11-1.36,1.15-1.8,2.34-1.79C447.27,655.33,447.73,656.22,447.58,658Z"/><path class="cls-62" d="M303.3,668c-.49-.53-1.48-1.16-1.79-2-.41-1.16.29-2.12,1.65-2.13,1.17,0,2.18.48,2.3,1.8C305.56,666.83,305.24,667.83,303.3,668Z"/><path class="cls-63" d="M542.59,623c.42.34,1.41.76,1.49,1.31.26,1.86-1.3,2.2-2.65,2.39-1,.15-1.41-.65-1.29-1.58C540.3,623.84,541.06,623.15,542.59,623Z"/><path class="cls-62" d="M532.8,626.9c.74.71,1.55,1.12,1.68,1.68a1.87,1.87,0,0,1-1.7,2.36c-1.13.18-2.51,0-2.24-1.52C530.69,628.56,531.86,627.9,532.8,626.9Z"/><path class="cls-59" d="M456.12,653.51c.37.31,1.37.72,1.45,1.26.25,1.85-1.32,2.18-2.65,2.38-1,.15-1.42-.65-1.3-1.58C453.78,654.34,454.53,653.65,456.12,653.51Z"/><path class="cls-64" d="M475.05,648.3c.56.34,1.78.68,2.2,1.44.71,1.32-.51,1.91-1.57,1.82s-2.37-.43-2.72-1.1C472.38,649.34,473.43,648.64,475.05,648.3Z"/><path class="cls-65" d="M523.33,635.2c-1.55-.08-2-.72-1.84-1.64a2.1,2.1,0,0,1,2.15-2c1.22,0,2.29.73,1.78,2C525.07,634.33,523.85,634.81,523.33,635.2Z"/><path class="cls-66" d="M346.38,668.41c-1,.75-1.55,1.43-2.19,1.55a1.92,1.92,0,0,1-2.44-1.59c-.21-1.19.14-2.31,1.65-1.87A13.68,13.68,0,0,1,346.38,668.41Z"/><path class="cls-67" d="M284.76,661c.35.82.94,1.55.89,2.23-.09,1.31-1.21,1.82-2.39,1.81s-2.56-.28-2-1.8C281.56,662.43,282.92,662.08,284.76,661Z"/><path class="cls-68" d="M293.28,666.69c-1.21-.06-2.24-.53-2.14-1.85A1.87,1.87,0,0,1,293.3,663a2.58,2.58,0,0,1,1.62,1.56C295.3,665.77,294.61,666.56,293.28,666.69Z"/><path class="cls-58" d="M634.57,545.25a1.78,1.78,0,0,1,1.78,2.19,2.45,2.45,0,0,1-1.39,1.69,1.8,1.8,0,0,1-2.33-1.65C632.52,546.26,633.43,545.57,634.57,545.25Z"/><path class="cls-69" d="M641.92,538.82c-.2.22-.77,1.43-1.6,1.66-1.3.34-1.83-.85-1.75-2a2,2,0,0,1,2.21-1.89C641.62,536.57,642.44,536.87,641.92,538.82Z"/><path class="cls-58" d="M384.52,667.56a1.91,1.91,0,0,1-1.66-2.35,2.44,2.44,0,0,1,1.67-1.37,1.69,1.69,0,0,1,2.17,1.74A2.11,2.11,0,0,1,384.52,667.56Z"/><path class="cls-70" d="M610.34,578c-.63,1.31-1.41,2.17-2.62,1.74a2.09,2.09,0,0,1-.93-1.8c.21-1.1,1-2,2.33-1.52C609.68,576.64,610,577.51,610.34,578Z"/><path class="cls-69" d="M603.44,584.28c-.2,1.52-1,2.33-2.1,2.32a2.07,2.07,0,0,1-1.47-1.38,1.88,1.88,0,0,1,1.91-2.1C602.37,583.12,603,583.92,603.44,584.28Z"/><path class="cls-71" d="M584.4,599.75c-.33-.48-1.21-1.48-1.07-1.65a6.88,6.88,0,0,1,2.36-1.8c.15-.07,1.28,1.08,1.22,1.58C586.79,599,586,599.77,584.4,599.75Z"/><path class="cls-69" d="M327,666.69c-2.15,1.07-2.8,1.66-3.45,1.66-1.2,0-2-.83-1.47-2,.22-.47,1.35-.72,2-.7A11.53,11.53,0,0,1,327,666.69Z"/><path class="cls-72" d="M567.45,611.6c-.32-.49-1.11-1.16-1.05-1.74a1.94,1.94,0,0,1,2.3-1.75,2.09,2.09,0,0,1,1.27,1.6C569.83,610.8,569,611.6,567.45,611.6Z"/><path class="cls-73" d="M363.81,665.21c.92.46,2,.65,2.18,1.17.47,1.27-.46,2-1.64,2a2.27,2.27,0,0,1-1.67-1.27C362.55,666.67,363.33,666,363.81,665.21Z"/><path class="cls-73" d="M374.26,665.13c.8.55,1.81.87,1.94,1.41.36,1.45-.84,1.87-1.93,1.72-.57-.08-1.43-.9-1.44-1.41S373.67,665.79,374.26,665.13Z"/><path class="cls-74" d="M407.37,663.56c-.95.65-1.51,1.33-2.13,1.39-1.15.1-2.24-.46-1.85-1.82.13-.49,1.26-1,1.92-1S406.46,662.91,407.37,663.56Z"/><path class="cls-75" d="M639.76,188.29a3.51,3.51,0,0,1,2,3.32c-1.24-.12-3.12.22-3.57-.43C637.29,190,638.73,189,639.76,188.29Z"/><path class="cls-45" d="M659.73,492.32c.4.29,1.34.63,1.55,1.22.33.95-.45,1.56-1.42,1.43a2.14,2.14,0,0,1-1.35-.91C657.94,493.16,658.39,492.58,659.73,492.32Z"/><path class="cls-76" d="M264.74,315.37c-10.36,6.57-22.12,7.88-33.92,8.68-16.84,1.14-33.7,1.84-50.54,3-3.27.23-4.59-.66-5.18-3.74-1.1-5.78-2.46-11.51-3.71-17.26-.65-4.76,3.93-2.05,5.39-3.78C205.45,298.33,235,302,263,292c4.81,5.8,3.26,12.32,2.09,18.79C265,312.31,264.85,313.84,264.74,315.37Z"/><path class="cls-77" d="M370.26,271.53c2.39,7.4.51,15,1,22.48a2.67,2.67,0,0,1-3,3.14c-18.94-.1-35.84,8.55-53.82,12.51-5.59-8.6-14.77-9.29-23.61-10.72-3.72-3.78-3.5-7.8-.71-12,.43-.7,1-2.05,1.27-2,17.53,4,33-4.27,49-8.49C350.28,273.9,360,271.48,370.26,271.53Z"/><path class="cls-9" d="M420.84,370.06c1,5.11,2.26,10.2,1.56,15.5-1,4.56-3.36,6.24-8.39,6.83-9.35,1.09-17.37,7.35-26.95,8.27-7.85,1.11-15.26,5.32-23.55,3.46-7.47-.63-12-5.94-11.9-13.94.1-8.5,5.93-14.79,14.9-15,12.93-.33,25.88-.22,38.82.06C411.26,375.35,416.43,374.08,420.84,370.06Z"/><path class="cls-9" d="M276.78,485.28c1.44,14.29-1.47,17.23-15.49,15.73-2.54-.28-5.47-.78-6.91,1.85-1.55,2.85,1.09,4.68,2.79,6.38a61.82,61.82,0,0,0,5.91,4.73c-1.52,3.28-4.64,3.81-7.68,4.41-5.53,1.08-11.11,1.84-16.65,2.85-12,2.21-13.42,1.14-15.18-11.16a62.2,62.2,0,0,0-.1-9.26c-.61-4.73,1.4-7.48,5.94-8.54C245.3,490.58,260.76,486,276.78,485.28Z"/><path class="cls-24" d="M202.48,434.53c-.26-4.51.42-9.13-1.36-13.49.49-1.29-.17-2.94,1.25-3.93,2.65-.23,2.65,3.18,4.87,3.54,14.42.73,21.93,8,23.06,22.55.32,4.2-.42,7.63-5.67,8.6a16.53,16.53,0,0,0-8.86,4.52c-1.5,1.52,0,3.69-1.15,5.29-6.65,6.12-.65,8.77,3.3,12,1.15,3.59,4.15,7,1,11-5.87,2.6-11.2,1.58-16.1-2.37-4.67-3.84-5.76-8.14-3.08-13.94C204.72,457.47,202.26,445.85,202.48,434.53Z"/><path class="cls-78" d="M269.87,347.73c-1.49-6.54-3.67-13-3.33-19.81-.84-2.42-1.15-4.81.22-7.16,5.77,3.92,10,9.57,15.76,13.61,5,3.52,3.8,8-2.29,10.34C276.88,346,273.33,346.74,269.87,347.73Z"/><path class="cls-79" d="M219,483.87c.29-3.85-1.07-7.27-2.72-10.62-3.55-3.25-4.72-7-2.44-11.5.43-1.89-.4-4.24,2-5.43,2.37,9.66,4.64,19.34,7.18,28.95.87,3.29,1.23,7.53,6.46,7-7.18,4.53-1.92,11.69-3.66,17.37C218.85,502.27,217.51,493.44,219,483.87Z"/><path class="cls-80" d="M207.24,420.65c-3,.84-3.19-2.07-4.6-3.35-2.35-1.07-1.94-3-1.63-5-1.59-13.16-7.69-25.45-7.52-38.95q1-1.39,1.95,0Q201.34,397,207.24,420.65Z"/><path class="cls-81" d="M315.54,313.92c2.38,7.77,2,15.78,2.19,23.74-6.44.38-7.76-3.38-6.54-8.61S314.07,319,315.54,313.92Z"/><path class="cls-82" d="M195.44,373.4l-1.95,0a25.57,25.57,0,0,1-1.22-11.83A28.36,28.36,0,0,1,195.44,373.4Z"/><path class="cls-83" d="M266.76,320.76c-.07,2.39-.14,4.77-.22,7.16-1.77-3.34-1.57-6.92-1.25-10.51Z"/><path class="cls-11" d="M658.64,434.58C648.8,432.29,640.3,428,634.82,419a41.45,41.45,0,0,1-.08-22.29c3.38-13,20.23-17.08,32.39-7.2,2.91,2.37,1.82,5.49,1.06,8.56-1.2,4.83-2.88,9.78.88,14.35,3.85,2.95,8.22,1,12.34,1.29,3.17.23,6.43.42,7.42,4.26.89,3.46-.75,6.13-3.44,8-5.64,4-11.57,7.16-18.87,5.06C663.44,431.22,661.2,433.27,658.64,434.58Z"/><path class="cls-77" d="M666.52,431.07c5.56-1.91,11.65-2.44,16.55-6.1,2.44-1.83,5.8-3.72,4.35-7.31-1.34-3.32-5-2-7.55-1.61-4.39.71-8.42,1.26-10.8-3.63l72.57-13.52c4.24,9.05,2.2,17.43-2.72,25.51-21.13,6.68-42.64,11.25-64.91,11.6C671.21,434.83,668.27,433.85,666.52,431.07Z"/><path class="cls-84" d="M492.43,359.74c-5.75-7.86-13.24-14.44-17.24-23.58V315.39l2.06-.61c7.32,9.42,15.13,18.51,21.83,28.34C505.07,351.9,502.92,356.25,492.43,359.74Z"/><path class="cls-85" d="M592.74,329.1c-16.57-3.62-10.44-16.36-10.67-26.55q.21-2.93.41-5.85c4.82,3.9,9.53,7.94,14.48,11.66,3.88,2.91,9.18,5.86,8.23,10.84C604.09,324.9,598.74,328.08,592.74,329.1Z"/><path class="cls-86" d="M174.57,503.94l4.58,2c-4.16,3.34-9.13,4.2-14.24,4.65l-.06-1.85Z"/><path class="cls-76" d="M411,219.79c0,4,0,7.9.08,11.86.34,12.51-3.76,17.44-16.4,19.82-13.47,2.54-26.3-2.18-39.45-3.36-5.38-2.39-7.48-7-6.63-12.32,1-6,6.23-7.48,11.48-8.17,9.81-1.28,19.38,2.41,29.48.53,8.32-1.56,14.88-4.52,20-11Z"/><path class="cls-76" d="M276.94,281.45l-16.69.69c-4.93-3.28-9.54-6.78-13.07-11.76-3.41-4.79-2.32-8.56,1.66-11.73,10.54-8.4,22.63-9.1,35.2-6.23,8.29,1.89,9.37,8.08,8.08,15.07-1.17,6.34-.84,14.31-11.25,12.81C279.64,280.13,278.25,281,276.94,281.45Z"/><path class="cls-87" d="M154.23,239.6a3.22,3.22,0,0,0-.49.69c-6,15.54-6,15.54-21.4,10.5-.1-3-3.1-6,.34-8.85-2.22-12.16-3.1-24,7.22-33.47,3.08,2.61,5.29-1.21,8-1.13a5.31,5.31,0,0,1,3.37.95c8.86,3,11.52,9.51,9,21a21.06,21.06,0,0,1-3.83,8.27A2.26,2.26,0,0,1,154.23,239.6Z"/><path class="cls-88" d="M154.23,239.6l2.29-2.07c6.23,18.24,9.51,37.21,13.58,56,.81,1.81-.13,2.06-1.61,1.8Q161.35,267.46,154.23,239.6Z"/><path class="cls-89" d="M168.49,295.3l1.61-1.8c2.88,2.43-.3,9.47,6.68,8.78-1.3,2-4.47,1.27-5.39,3.78C169.83,302.63,167.82,299.33,168.49,295.3Z"/><path class="cls-90" d="M606.36,179.47l-2.27,5.22c-4.53-7.51-9.29-14.55-18.2-17.86-3.52-1.31-6.58-4.36-9.32-7.14-6.34-6.43-6-10.45,1.07-16.84,7,1.4,14,2.61,20.23,6.42,6.2.85,6.69,6.07,8.09,10.59C607.57,166.37,607.13,172.92,606.36,179.47Z"/><path class="cls-91" d="M404.29,164.67a5.51,5.51,0,0,1-.09-1.67h6.46c0,.45.07.89.1,1.34Z"/><path class="cls-87" d="M203.93,480.32c-3.94-1.6-6.65-1.42-9.49,2.89A37.39,37.39,0,0,1,178.24,497c.34-5.71-1.19-11-3.13-16.34-2.4-6.6-4.24-13.34-3.83-20.48.23-4,1.51-6.81,6.3-7.28,11.83-1.17,20.3-7.21,24.9-18.36,5,11.68,4,23.6-.58,34.79C199.79,474.43,200.66,477.12,203.93,480.32Z"/><path class="cls-92" d="M140.63,202.29c.07,2.29.15,4.58.22,6.87-5.39,8.9-10.33,17.83-5.74,28.79.61,1.47-.79,3.14-2.43,4a47,47,0,0,1-19-12.12c-4.11-4.24-4.69-7.54,1.54-11C124,213.84,132.2,207.83,140.63,202.29Z"/><path class="cls-93" d="M129,253c0,5.18-3.43,8.44-6.7,11.77-3.77-2-7,1-8.64,2.75-3.4,3.65-5.7.66-5.47-1.07.67-5.11-4-7.91-4.24-12.37C112.46,256.86,120.84,257.05,129,253Z"/><path class="cls-94" d="M106.84,158.15l15.62-.28C116.45,165,112.92,165,106.84,158.15Z"/><path class="cls-95" d="M606,159.86l-8.09-10.59c2-3.63,4.07-7.22,6-10.88s3.79-7.41,8.58-9.89Q609.2,144.17,606,159.86Z"/><path class="cls-96" d="M555.11,84.94c8.68,5.34,17.61,8.69,27.64,3.57-2.19,7.78-7,11-15.11,9C560.84,95.86,554.08,94.33,555.11,84.94Z"/><path class="cls-97" d="M592.73,273c.52-1.51,1-3,0-4.53l9.89-.25C601.56,276.3,600.34,276.89,592.73,273Z"/></g></g></svg>